<svg xmlns="http://www.w3.org/2000/svg" width="31.485" height="37.334" viewBox="0 0 31.485 37.334"><path fill="#FFF" stroke="#FFF" stroke-miterlimit="10" d="M23.549 12.104h-4.252c0-.868-.677-1.629-1.691-2.054l2.613-4.024a1.114 1.114 0 1 0-.746-.483l-2.755 4.242a5.138 5.138 0 0 0-1.952 0L9.812 2.157a1.077 1.077 0 1 0-.746.484l4.812 7.411c-1.015.425-1.691 1.185-1.691 2.054H7.935A7.435 7.435 0 0 0 .5 19.541v8.179a7.44 7.44 0 0 0 5.575 7.201c-.034.605-.05 1.915.436 1.915.43 0 1.142-1.024 1.554-1.68h15.357c.412.656 1.124 1.68 1.554 1.68.486 0 .469-1.309.436-1.915a7.44 7.44 0 0 0 5.575-7.201v-8.18a7.439 7.439 0 0 0-7.438-7.436zM22.033 30.81H5.562a1.46 1.46 0 0 1-1.461-1.461V17.918a1.46 1.46 0 0 1 1.461-1.461h16.471a1.46 1.46 0 0 1 1.461 1.461v11.431a1.46 1.46 0 0 1-1.461 1.461zm4.569-2.595a1.729 1.729 0 1 1 0-3.458 1.729 1.729 0 0 1 0 3.458zm0-6.696a1.729 1.729 0 1 1 0-3.458 1.729 1.729 0 0 1 0 3.458z"/></svg>