<svg id="Layer_1" xmlns="http://www.w3.org/2000/svg" viewBox="0 0 212.6 96.7"><style>.st0{fill:#e5e5e5}.st1{fill:#fff}.st2{fill:#0d1420}.st3{fill:#e49f2e}.st4{fill:#020202}.st5{fill:#eae0d6}.st6{fill:#999f7b}.st7{fill:#f9bd83}.st8{fill:#eaeaea}.st9{fill:#0d9447}.st10{fill:#0d6c37}.st11{fill:#836026}.st12{fill:#322612}.st13{fill:#070707}.st14{fill:#f9bf91}</style><g id="XMLID_3421_"><g id="XMLID_3422_"><g id="XMLID_3458_"><path class="st0" d="M173.2 79.7H129c-6.6 0-12-5.4-12-12V56.8c0-6.6 5.4-12 12-12h44.2c6.6 0 12 5.4 12 12v10.9c0 6.6-5.4 12-12 12z" id="XMLID_3462_"/><g id="XMLID_3461_"><path id="XMLID_91_" class="st1" d="M86 27.5v12.4h-5.7V27c0-.9.1-1.8.2-2.5s.4-1.4.7-2c.3-.6.7-1.2 1.2-1.7.8-.8 1.7-1.5 2.8-2 1.1-.5 2.2-.7 3.3-.7 1.7 0 3.3.5 4.8 1.5 1.5-1 3.1-1.5 4.8-1.5.8 0 1.6.1 2.4.3.8.2 1.5.6 2.2 1.1.7.5 1.3 1 1.8 1.6.4.6.8 1.1 1 1.6.3.5.5 1.2.6 1.8.1.7.2 1.4.2 2.2v13.1h-5.7v-13c0-1-.1-1.7-.4-2-.2-.3-.4-.6-.8-.8-.4-.2-.7-.3-1.1-.3-.4 0-.8.1-1.1.3-.3.2-.6.5-.8.8-.2.4-.4 1.1-.4 2.2v12.9h-5.7V27c0-1.1-.1-1.8-.4-2.2-.2-.4-.5-.6-.8-.8-.3-.2-.7-.3-1.1-.3-.5 0-1 .1-1.3.4-.4.3-.6.6-.8 1.1.1.4.1.8.1 1.4v.9z"/><path id="XMLID_93_" class="st1" d="M126.1 27.9v11.9h-5.7V34h-5.1v5.8h-5.7V27.1c0-.9.1-1.8.2-2.4.1-.7.3-1.3.6-2 .3-.6.6-1.2 1.1-1.7.8-.9 1.7-1.7 2.8-2.2 1.1-.5 2.3-.8 3.6-.8 1.2 0 2.4.2 3.5.7 1.1.5 2 1.2 2.8 2.1.7.8 1.2 1.7 1.5 2.7.3.9.5 2.1.5 3.6v.8zm-10.8 1.3h5.1v-2.1c0-.9-.1-1.6-.3-2-.2-.4-.5-.7-.9-1-.4-.2-.9-.4-1.3-.4-.5 0-1 .1-1.4.4-.4.3-.7.7-.9 1.1-.2.4-.3 1-.3 1.9v2.1z"/><path id="XMLID_96_" class="st1" d="M136.7 35h7.6v4.9h-16l7.2-16.4h-6.9v-4.9h15.2L136.7 35z"/><path id="XMLID_98_" class="st1" d="M152.2 39.9h-5.7V18.5h5.7v21.4z"/><path id="XMLID_100_" class="st1" d="M161.3 39.9h-5.7V18.5h5.7v7.6h1.3c.8 0 1.4-.1 1.8-.4.4-.3.7-.7.9-1.3.2-.6.3-1.5.3-2.6v-3.3h5.7V23c0 1.3-.2 2.3-.5 3-.3.7-.9 1.4-1.7 2.1.6.6 1.1 1.1 1.5 1.7.4.6.6 1.3.8 2 .1.7.2 1.7.2 2.8v5.1h-5.7v-5.6c0-1.3-.4-2.2-1.2-2.7-.3-.2-.5-.3-.8-.4-.3-.1-.8-.1-1.4-.1h-1.3v9z"/><path id="XMLID_102_" class="st1" d="M191.1 27.9v11.9h-5.7V34h-5.1v5.8h-5.7V27.1c0-.9.1-1.8.2-2.4.1-.7.3-1.3.6-2 .3-.6.6-1.2 1.1-1.7.8-.9 1.7-1.7 2.8-2.2 1.1-.5 2.3-.8 3.6-.8 1.2 0 2.4.2 3.5.7 1.1.5 2 1.2 2.8 2.1.7.8 1.2 1.7 1.5 2.7.3.9.5 2.1.5 3.6v.8zm-10.8 1.3h5.1v-2.1c0-.9-.1-1.6-.3-2-.2-.4-.5-.7-.9-1-.4-.2-.9-.4-1.3-.4-.5 0-1 .1-1.4.4s-.7.7-.9 1.1c-.2.4-.3 1-.3 1.9v2.1z"/></g><g id="XMLID_3460_"><path id="XMLID_89_" class="st1" d="M105.6 71.1h6.9v8.6H88.6l12.5-17.9c.1-.1.2-.2.3-.4l.2-.2c.1-.1.1-.1.1-.2l.8-1.2c.7-1.1 1.1-2.1 1.1-3 0-.7-.2-1.4-.5-2-.4-.6-.9-1.1-1.4-1.4-.6-.3-1.3-.5-2-.5-1.2 0-2.1.4-2.9 1.2-.8.8-1.2 1.8-1.2 2.9 0 .8.2 1.6.6 2.2.4.6 1.1 1.2 2 1.6L93 68.2c-4.3-2.9-6.4-6.7-6.4-11.2 0-1.7.4-3.4 1.1-5.1.7-1.6 1.6-3.1 2.8-4.3 1.2-1.2 2.6-2.1 4.2-2.8 1.5-.7 3.2-1 5-1 2.3 0 4.5.6 6.5 1.8 2 1.2 3.6 2.8 4.8 4.8 1.2 2 1.8 4.1 1.8 6.4 0 1.5-.3 3-.8 4.5-.5 1.4-1.5 3.1-3 5.3l-3.4 4.5z"/></g><g id="XMLID_3459_"><path id="XMLID_83_" class="st2" d="M131 69.9h-5.7V48.5h6c2.1 0 3.8.2 5 .6 1.3.4 2.5 1.1 3.6 2 .8.7 1.4 1.4 2 2.3.5.8.9 1.7 1.3 2.7.3 1 .4 2 .4 3s-.1 1.9-.4 2.9c-.3.9-.6 1.8-1.1 2.6-.5.8-1.1 1.5-1.7 2.2-.7.7-1.4 1.2-2.3 1.7-.9.5-1.8.8-2.6 1-.9.2-1.9.3-3.1.3h-.4v-5.7h.6c1.1 0 2-.2 2.8-.6.8-.4 1.4-1 1.9-1.7.4-.7.7-1.6.7-2.6 0-1.1-.2-2-.7-2.8-.5-.8-1.2-1.4-2.1-1.8-.9-.4-1.9-.6-3.2-.6h-1v15.9z"/><path id="XMLID_85_" class="st2" d="M161.2 62.9v7H156v-7c0-1-.1-1.7-.4-2.2-.2-.4-.6-.8-1-1-.4-.2-.9-.4-1.4-.4-.8 0-1.4.3-2 .8-.6.6-.8 1.3-.8 2 0 .8.3 1.5.8 2 .6.5 1.2.8 2.1.8.5 0 1.1-.1 1.7-.4V70c-.6.1-1.2.2-1.7.2-1.5 0-2.8-.4-4.1-1.1-1.3-.7-2.3-1.7-3-2.9-.7-1.2-1.1-2.6-1.1-4 0-1.5.4-2.8 1.1-4.1.7-1.2 1.7-2.2 2.9-2.9 1.2-.7 2.5-1.1 4-1.1s2.8.3 4 1c1.2.7 2.2 1.7 2.9 2.9.7 1.2 1.1 2.6 1.1 4v.9z"/><path id="XMLID_87_" class="st2" d="M164.2 62.9v-8.5h5.2v7.4c0 .8.2 1.4.5 1.7.3.4.8.6 1.4.6.6 0 1.1-.2 1.4-.6s.4-1 .4-1.9v-7.4h5.2v13.1c0 1.3-.1 2.4-.4 3.3-.3.9-.8 1.7-1.5 2.5-.5.6-1.1 1.2-1.8 1.5-.7.4-1.4.7-2.3.9-.8.2-1.7.3-2.8.3-1.1 0-2.3-.1-3.4-.4V71c1 .4 1.9.6 2.8.6 1.1 0 2-.3 2.7-.8.7-.5 1.1-1.3 1.4-2.4-.8.4-1.4.6-2 .8-.5.1-1 .2-1.6.2-1.7 0-3-.5-3.9-1.6-.9-1-1.4-2.5-1.4-4.4v-.5z"/></g></g><g id="XMLID_3424_"><g id="XMLID_3431_"><g id="XMLID_3455_"><path class="st3" d="M45.8 79.2c0 .9-1.7.6-3.4.6s-3.4.3-3.4-.6c0-1.8 1.5-3.3 3.4-3.3s3.4 1.5 3.4 3.3z" id="XMLID_3457_"/><path class="st4" d="M38.9 79.2h6.9v1h-6.9z" id="XMLID_3456_"/></g><path class="st5" d="M42.6 76.2l-2.3-3v-3.4h-8.9v2.6l1.4 2.6 5 3.5h1.7z" id="XMLID_3454_"/><path class="st6" d="M38.3 71.4s-.7 1-1.1 2.6l2.8 4.2.5-.5-2.4-3.7.2-2.6z" id="XMLID_3453_"/><path class="st7" d="M34.5 49.2c-.1.6-.3 1.3-.4 1.9-.1.6-.3 1.3-.2 1.9.2 1.1 1.1 1.8 2 2.5.5.4 1.1.8 1.7.7.7 0 1.2-.6 1.8-.8.3-.1.7-.2 1-.4s.5-.6.3-.9c-.1-.2-.4-.3-.5-.4-.2-.2-.3-.4-.3-.7-.3-1.2-.6-2.5-.8-3.7 0-.1 0-.1-.1-.2 0-.1-.1-.1-.1-.1-.7-.2-1.4-.5-2.2-.5-.9 0-1.8.3-2.5.9" id="XMLID_3452_"/><g id="XMLID_3451_"><path id="XMLID_71_" class="st1" d="M38.4 54.9c.9-.1 1.7-.6 2.6-.7.8-.1 1.1.7 1.4 1.4.2.6.5 1.2.4 1.9 0 .2-.1.5-.1.7-.1.3-.1.6-.1 1 0 1.5-.1 3-.1 4.5 0 .3 0 .5-.1.8-.1.3-.3.5-.4.8-.1.4.1.9.2 1.3.3.7.4 1.5.4 2.3 0 .1 0 .3-.1.4-.1.1-.2.1-.3.2-1.2.5-2.5.7-3.8.4l-.9-.3c0 .2-.3.4-.5.4s-.5 0-.7-.1c-.4-.1-.7-.3-.9-.6-.1-.2-.2-.5-.3-.8-.4-1.5-.8-3.1-.6-4.7.1-.7.3-1.4.5-2.1.5-2.1.9-4.2 1.1-6.4.6-.3 1.5-.4 2.3-.4z"/><path id="XMLID_79_" class="st8" d="M36.8 70.8c-.3 0-.6-.1-.8-.1-.6-.1-1.2-.5-1.5-1-.2-.4-.3-.7-.4-1-.4-1.5-.9-3.3-.7-5.1.1-.7.3-1.3.4-2l.1-.3c.5-2 .9-4.1 1-6.2l.1-.8 3.3-.4c.4 0 .7-.2 1.1-.3.5-.2.9-.3 1.4-.4 1.5-.2 2.1 1.3 2.4 1.9.3.7.6 1.5.5 2.4 0 .2-.1.4-.1.6v.2c0 .2 0 .5-.1.8l-.1 4.5c0 .3 0 .7-.2 1.1-.1.2-.2.3-.3.5 0 .1-.1.2-.1.2 0 .1.1.4.1.6v.1c.3.8.4 1.7.4 2.6 0 .2 0 .6-.3 1-.2.3-.6.5-.7.5-1.5.6-3 .8-4.4.5-.1 0-.3-.1-.4-.1-.2.1-.4.2-.7.3.2-.1.1-.1 0-.1zm-.3-2.9l1.3.5c.2.1.5.2.8.2 1.1.2 2.2 0 3-.3 0-.6-.1-1.2-.3-1.7v-.1c-.2-.5-.4-1.1-.2-1.8.1-.3.2-.5.3-.7 0-.1.1-.1.1-.2v-.4l.1-4.5c0-.3 0-.7.1-1.1 0-.1 0-.2.1-.3 0-.1.1-.2.1-.3 0-.4-.2-.9-.4-1.4l-.4-.8c-.3.1-.6.2-1 .3-.5.2-1 .4-1.6.4l-1.6.3c-.2 1.9-.5 3.9-1 5.7l-.1.3c-.2.6-.3 1.1-.4 1.7-.2 1.4.2 2.9.6 4.3.1.2.1.4.2.5 0 .1.1.1.2.2h.1v-.8z"/></g><path class="st9" d="M37.3 69.7c-2.2.4-4.4.5-6.6.4-.2 0-.5 0-.7-.2-.3-.4.1-.9.3-1.4.2-.6.1-1.3-.3-1.8l-1.2-1.5c-1.7-2-2.2-5-1.3-7.5.4-1.1 1.2-2.1 1.4-3.3.3-1.5-.1-3.3 1-4.2.3-.3.7-.4 1.1-.6.8-.3 1.6-.6 2.3-.4s1.6.8 1.5 1.6c0 .6-.5 1.1-.8 1.6.1.1 0 .4 0 .6 0 .1.1.3.2.4.6.7 1.7.8 2.2 1.5.4.5.4 1.2.3 1.8 0 1.2-.1 2.5-.5 3.7-.2.6-.6 1.2-.8 1.8-.5 1.9.9 3.8 1.6 5.7.2.5.3 1 .3 1.5-.1.5-.5 1-1 1" id="XMLID_3450_"/><path class="st10" d="M32.2 57.8c.3 1.5-.4 3.1-1.6 3.9-.1 0-.1.1-.2.2 0 .1.1.2.2.3.1.1.3.3.5.3.5 0 .9-.9 1.4-.6.3.2.2.6 0 .8-.2.3-.4.5-.5.8 0 .3.3.7.6.4 0-.2 0-.3.1-.5s.3-.2.4-.1c.3.6.6 1.2.7 1.8.1.5.1 1-.3 1.3-.2.2-.5.2-.8.2-.7 0-2 .1-2.8.1.4 0 .1.5.5.6.2.1 1.6 0 1.8-.1.4-.1.8-.3 1.1-.4.2-.1.4-.2.5-.3.5-.4.4-1.2.2-1.9-.1-.6-.3-1.2-.4-1.7 0-.2-.1-.4-.2-.5l-.3-.3c-.1-.2-.1-.5-.1-.9 0-.7.1-1.3 0-2s-.4-1.3-1-1.7" id="XMLID_3449_"/><path class="st10" d="M34.1 52.5c-1.1 0-2.2.4-3 1.1-.7.6-3 1.8-2.4 2.2.2-.1.9-.4 1-.5.3-.2.6-.4.9-.7.2-.1.4-.3.6-.4.3-.1.6-.2.9-.2.8-.2 1.7-.3 2.5-.5-.2.1-.4-.1-.5-.3-.1-.2-.1-.5-.3-.7" id="XMLID_3448_"/><path class="st9" d="M40.5 52.4c-.1.4-.1.9.2 1.2.1.1.3.2.5.3.6.3.9 1 1 1.6.1.6.1 1.3 0 1.9-.1 1.8-.3 3.5-.4 5.3 0 .4-.1.7-.1 1.1-.1.4-.3.8-.4 1.2-.2 1.3.6 2.7 0 3.9-.1.3-.3.5-.3.8 0 .5.4.9.8 1s.9 0 1.4-.1c.6-.2 1.2-.5 1.4-1 .4-1.1-1-2.2-.7-3.3.1-.4.4-.7.6-1 .6-.9.8-2.2 0-3-.3-.3-.8-.5-.9-.9-.3-.6.3-1.3.7-1.9.4-.8.5-1.7.3-2.5-.2-.9-.6-1.6-1-2.4-.4-.6-.8-1.2-1.4-1.6-.6-.4-1.3-.7-2-.5" id="XMLID_3447_"/><path class="st3" d="M39.1 79.4c0 1.3-2.5.8-5 .8s-5 .5-5-.8c0-2.7 2.2-4.8 5-4.8s5 2.2 5 4.8z" id="XMLID_3446_"/><path class="st4" d="M29.1 79.4h10v1.5h-10z" id="XMLID_3444_"/><path class="st7" d="M26.2 26.5s.2 2-.5 4.9c0 0-1.4 11.1 5.1 16 0 0 6.6 4.6 14.1 0 0 0 6-4.9 5.2-15.8v-6.3L48 22.9l-.8-2.8-.7-3.8-5.6-.7L29.3 17l-1.7 2.3.5 4-.3 1.1-.3.9-.8.1-.5.2" id="XMLID_3443_"/><path class="st11" d="M26.1 26.1l2.1-1.3 1.2-1.2-.4-3.2s.9-1.5 3.5-2.2c2.6-.7 11.4 0 11.4 0s.9.1 2 2.2l.9 2.6.9 2 2.4.3-2.1-5.1.3-2.8.8-1.9s-2-.1-3.1.6c0 0-.3-1.9.9-2.8s-.3 0-.3 0-1.7 0-2.8 1.1c0 0-1.5-.9-.1-3 0 0-1.3-.7-2.8.7L39.5 10s-2.2.5-3.3 2.7c0 0-2-1.7-3.8-2.3 0 0-.5 1.7-1.3 3.3l-1.3.9s-1.7-1.9-3-2c0 0 .7 1.7.5 3.8l-1 3 .6 1.9.4 2.5-1.2 2.3z" id="XMLID_3442_"/><g id="XMLID_3441_"><path id="XMLID_78_" class="st12" d="M37.5 47.4h-.8c-8.2-.9-9.1-10.9-9.1-11l1-.1c0 .4.9 9.2 8.2 10.1 0 0 3.6.4 6.5-1.9 2.1-1.6 3.3-4.2 3.7-7.7l1 .1c-.4 3.8-1.8 6.6-4.1 8.4-2.4 1.8-5.1 2.1-6.4 2.1z"/></g><g id="XMLID_3438_"><ellipse class="st1" cx="41.3" cy="27.9" rx="2.3" ry="2.4" id="XMLID_3440_"/><circle class="st13" cx="40.3" cy="28.5" r="1.2" id="XMLID_3439_"/></g><g id="XMLID_3435_"><ellipse class="st1" cx="34.7" cy="27.9" rx="2.3" ry="2.4" id="XMLID_3437_"/><circle class="st13" cx="35.7" cy="28.4" r="1.2" id="XMLID_3436_"/></g><g id="XMLID_3434_"><path id="XMLID_75_" d="M38.2 32.5v-8.9l12.5 1.1-.2 5.9-12.3 1.9zm1-7.7v6.6l10.3-1.6.1-4.1-10.4-.9z"/></g><g id="XMLID_3433_"><path id="XMLID_72_" d="M38.1 32.6l-12.3-2-.1-5.9 12.5-1-.1 8.9zm-11.4-2.8L37 31.4l.1-6.6-10.5.9.1 4.1z"/></g><ellipse class="st14" cx="38.4" cy="36.2" rx="3.1" ry="2.4" id="XMLID_3432_"/></g><g id="XMLID_44_"><path class="st1" d="M52.6 24.2c-1.2 0-2.2 1-2.2 2.2v7.7c0 1.2 1 2.2 2.2 2.2 1.2 0 2.2-1 2.2-2.2v-7.7c.1-1.2-.9-2.2-2.2-2.2z" id="XMLID_46_"/><path class="st1" d="M23.5 24.2c-1.2 0-2.2 1-2.2 2.2v7.7c0 1.2 1 2.2 2.2 2.2 1.2 0 2.2-1 2.2-2.2v-7.7c0-1.2-1-2.2-2.2-2.2z" id="XMLID_45_"/></g><g id="XMLID_3426_"><path class="st1" d="M20.4 26.3c-2.1.4-3.6 2.2-3.6 4.4s1.6 4 3.6 4.4v-8.8z" id="XMLID_3427_"/></g><path class="st1" d="M55.6 26.3v8.9c2.1-.4 3.8-2.2 3.8-4.5s-1.6-4.1-3.8-4.4z" id="XMLID_3425_"/></g><g id="XMLID_3423_"><path id="XMLID_69_" class="st1" d="M69.8 18h.5v62.9h-.5z"/><path id="XMLID_70_" class="st1" d="M68.8 17h2.5v64.9h-2.5z"/></g></g></g></svg>