<svg xmlns="http://www.w3.org/2000/svg" width="1057.317" height="420.732" viewBox="0 0 1057.317 420.732"><path fill="#40B19C" d="M195.655 313.705c0 19.777-16.033 35.81-35.81 35.81h-50.731c-19.777 0-35.81-16.033-35.81-35.81v-50.731c0-19.777 16.033-35.81 35.81-35.81h50.731c19.777 0 35.81 16.033 35.81 35.81v50.731z"/><path fill="#364A5E" d="M328.45 313.705c0 19.777-16.033 35.81-35.81 35.81h-50.73c-19.777 0-35.81-16.033-35.81-35.81v-50.731c0-19.777 16.033-35.81 35.81-35.81h50.731c19.777 0 35.81 16.033 35.81 35.81v50.731z"/><path fill="#E64E3D" d="M459.753 313.705c0 19.777-16.033 35.81-35.81 35.81h-50.731c-19.777 0-35.81-16.033-35.81-35.81v-50.731c0-19.777 16.033-35.81 35.81-35.81h50.731c19.777 0 35.81 16.033 35.81 35.81v50.731z"/><path fill="#EFC31A" d="M592.548 313.705c0 19.777-16.033 35.81-35.81 35.81h-50.731c-19.777 0-35.81-16.033-35.81-35.81v-50.731c0-19.777 16.033-35.81 35.81-35.81h50.731c19.777 0 35.81 16.033 35.81 35.81v50.731z"/><path fill="#218285" d="M725.343 313.705c0 19.777-16.033 35.81-35.81 35.81h-50.731c-19.777 0-35.81-16.033-35.81-35.81v-50.731c0-19.777 16.033-35.81 35.81-35.81h50.731c19.777 0 35.81 16.033 35.81 35.81v50.731z"/><path fill="#FBB040" d="M858.138 313.705c0 19.777-16.033 35.81-35.81 35.81h-50.731c-19.777 0-35.81-16.033-35.81-35.81v-50.731c0-19.777 16.033-35.81 35.81-35.81h50.731c19.777 0 35.81 16.033 35.81 35.81v50.731z"/><path fill="#2781BA" d="M1001.378 313.705c0 19.777-16.033 35.81-35.81 35.81h-50.731c-19.777 0-35.81-16.033-35.81-35.81v-50.731c0-19.777 16.033-35.81 35.81-35.81h50.731c19.777 0 35.81 16.033 35.81 35.81v50.731z"/><path opacity=".6" fill="#6D7686" d="M328.45 161.513c0 19.777-16.033 35.81-35.81 35.81h-50.73c-19.777 0-35.81-16.033-35.81-35.81v-50.731c0-19.777 16.033-35.81 35.81-35.81h50.731c19.777 0 35.81 16.033 35.81 35.81v50.731z"/><path fill="#3B3F48" d="M459.753 161.513c0 19.777-16.033 35.81-35.81 35.81h-50.731c-19.777 0-35.81-16.033-35.81-35.81v-50.731c0-19.777 16.033-35.81 35.81-35.81h50.731c19.777 0 35.81 16.033 35.81 35.81v50.731z"/><path fill="#218285" d="M592.548 161.513c0 19.777-16.033 35.81-35.81 35.81h-50.731c-19.777 0-35.81-16.033-35.81-35.81v-50.731c0-19.777 16.033-35.81 35.81-35.81h50.731c19.777 0 35.81 16.033 35.81 35.81v50.731z"/><path fill="#FFF" d="M725.343 161.513c0 19.777-16.033 35.81-35.81 35.81h-50.731c-19.777 0-35.81-16.033-35.81-35.81v-50.731c0-19.777 16.033-35.81 35.81-35.81h50.731c19.777 0 35.81 16.033 35.81 35.81v50.731z"/><path opacity=".8" fill="#A8B8CD" d="M858.138 161.513c0 19.777-16.033 35.81-35.81 35.81h-50.731c-19.777 0-35.81-16.033-35.81-35.81v-50.731c0-19.777 16.033-35.81 35.81-35.81h50.731c19.777 0 35.81 16.033 35.81 35.81v50.731z"/></svg>