<svg xmlns="http://www.w3.org/2000/svg" width="35.257" height="28.655" viewBox="0 0 35.257 28.655"><path fill="#FFF" d="M35.257 3.393a14.342 14.342 0 0 1-4.155 1.138A7.235 7.235 0 0 0 34.28.53a14.457 14.457 0 0 1-4.589 1.757 7.234 7.234 0 0 0-12.515 4.947c0 .567.065 1.12.187 1.649-6.01-.302-11.34-3.182-14.908-7.558a7.195 7.195 0 0 0-.98 3.636 7.231 7.231 0 0 0 3.218 6.021 7.19 7.19 0 0 1-3.275-.904l-.001.091a7.237 7.237 0 0 0 5.803 7.092 7.21 7.21 0 0 1-3.268.126 7.242 7.242 0 0 0 6.758 5.022 14.511 14.511 0 0 1-8.983 3.097c-.584 0-1.161-.034-1.725-.102a20.458 20.458 0 0 0 11.087 3.252c13.305 0 20.579-11.022 20.579-20.583 0-.313-.006-.626-.019-.936a14.697 14.697 0 0 0 3.608-3.744zm0 0"/></svg>