<svg xmlns="http://www.w3.org/2000/svg" width="34.344" height="21.854" viewBox="0 0 34.344 21.854"><path fill="#FFF" d="M10.926 9.365h10.32c.092.546.171 1.092.171 1.813 0 6.241-4.184 10.675-10.491 10.675A10.918 10.918 0 0 1 0 10.927 10.92 10.92 0 0 1 10.926 0c2.952 0 5.418 1.074 7.322 2.855l-2.966 2.858c-.811-.781-2.231-1.685-4.356-1.685-3.73 0-6.772 3.088-6.772 6.898s3.042 6.898 6.772 6.898c4.327 0 5.949-3.105 6.198-4.713h-6.198V9.365zm23.418 0H31.22V6.244h-3.122v3.121h-3.122v3.121h3.122v3.121h3.122v-3.121h3.124V9.365z"/></svg>