<svg xmlns="http://www.w3.org/2000/svg" width="27.872" height="27.87" viewBox="0 0 27.872 27.87"><path fill="#FFF" d="M21.561 27.87H6.31A6.318 6.318 0 0 1 0 21.559V6.311A6.32 6.32 0 0 1 6.31 0h15.251a6.32 6.32 0 0 1 6.311 6.311v15.248a6.319 6.319 0 0 1-6.311 6.311zM6.31 2.776a3.54 3.54 0 0 0-3.536 3.535v15.248a3.54 3.54 0 0 0 3.536 3.538h15.251a3.54 3.54 0 0 0 3.534-3.538V6.311a3.538 3.538 0 0 0-3.534-3.535H6.31zm7.627 18.445c-3.972 0-7.204-3.232-7.204-7.203 0-3.973 3.232-7.204 7.204-7.204 3.971 0 7.203 3.231 7.203 7.204-.001 3.972-3.232 7.203-7.203 7.203zm0-11.632a4.434 4.434 0 0 0-4.43 4.43 4.432 4.432 0 0 0 4.43 4.429 4.432 4.432 0 0 0 4.429-4.429 4.435 4.435 0 0 0-4.429-4.43zm7.477-4.546a1.826 1.826 0 0 0-1.827 1.83 1.828 1.828 0 1 0 1.827-1.83z"/></svg>