<svg id="Layer_1" xmlns="http://www.w3.org/2000/svg" viewBox="-149.5 384.4 25.6 25.6"><style>.st0{fill:#fff}</style><path class="st0" d="M-123.9 397.9v-.9c0-.6-.1-1.3-.2-1.9 0-.2-.1-.5-.1-.7-.4-1.8-1.3-3.5-2.4-5-1.5-1.9-3.5-3.3-5.7-4.2-1.4-.5-2.9-.7-4.4-.7h-.5c-1.4 0-2.7.3-4 .8-2.2.9-4.2 2.3-5.6 4.2-1.2 1.6-2.1 3.5-2.4 5.4-.1.4-.1.9-.2 1.3v1.4c0 .6.1 1.3.2 1.9 0 .2.1.5.1.7.4 1.8 1.3 3.5 2.4 5 1.5 1.9 3.5 3.3 5.7 4.2 1.4.5 2.9.7 4.4.7h.5c1.4 0 2.7-.3 4-.8 2.2-.9 4.2-2.3 5.6-4.2 1.2-1.6 2.1-3.5 2.4-5.4.1-.4.1-.9.2-1.3v-.5c0 .1 0 0 0 0zm-21.3 5.8c.7-.1 1.3-.2 2-.3 0 .1.1.1.1.2.4 1 1 2 1.4 3-1.4-.6-2.5-1.7-3.5-2.9zm-2.1-5.6h2.9c.1 1.2.4 2.4.6 3.6-.8.2-1.6.3-2.4.4-.3-.7-.6-1.4-.8-2.2 0-.1 0-.2-.1-.3v-.2c0-.1 0-.2-.1-.3 0-.2-.1-.6-.1-1zm3.3-5.3c-.3 1.2-.4 2.4-.4 3.6h-2.8c.1-1.4.5-2.8 1.1-4 .6.1 1.4.3 2.1.4zm1.9-4.7c-.4 1-.9 2-1.4 3-.5-.1-1.1-.2-1.6-.3.8-1.1 1.8-2 3-2.7zm4.5 3.6c-1.2 0-2.5-.1-3.7-.2.6-1.6 1.5-3.1 2.5-4.4l.3-.3c.3-.1.7-.1 1-.1-.1 1.6-.1 3.3-.1 5zm0 4.7h-5c.1-1.1.3-2.2.6-3.3 1.4.2 2.9.3 4.3.3.1 1 .1 2 .1 3zm0 4.7c-1.5 0-3 .1-4.6.3-.3-1.1-.5-2.2-.4-3.3h5v3zm0 6.8c-.5 0-1.2 0-1.5-.5-1-1.3-1.8-2.8-2.4-4.3 1.3-.2 2.7-.3 4-.3-.1 1.7-.1 3.4-.1 5.1zm6.4-1.5c.4-1 .9-2 1.4-3 .5.1 1.1.2 1.6.3-.8 1.1-1.8 2-3 2.7zm-4.6-3.6c1.2 0 2.5.1 3.7.2-.6 1.6-1.5 3.1-2.5 4.5l-.3.3c-.3.1-.7.1-1 .1.1-1.7.1-3.4.1-5.1zm0-4.7h5c-.1 1.1-.3 2.2-.6 3.3-1.4-.2-2.9-.3-4.3-.3-.1-1-.1-2-.1-3zm0-4.7c1.5 0 3-.1 4.6-.3.3 1.1.5 2.2.4 3.3h-5v-3zm4-2c-1.3.2-2.7.3-4 .3v-5c.5 0 1.2 0 1.5.5 1.1 1.2 1.9 2.7 2.5 4.2zm3.7-.6c-.7.1-1.3.2-2 .3 0-.1-.1-.1-.1-.2-.4-1-1-2-1.4-3 1.4.7 2.5 1.7 3.5 2.9zm2.1 5.6h-2.9c-.1-1.2-.4-2.4-.6-3.6.8-.2 1.6-.3 2.4-.4.3.7.6 1.4.8 2.2 0 .1 0 .2.1.3v.2c0 .1 0 .2.1.3 0 .2.1.6.1 1zm0 1.7c-.1 1.4-.5 2.8-1.1 4-.7-.1-1.5-.3-2.2-.4.3-1.2.4-2.4.4-3.6h2.9z"/></svg>