<svg xmlns="http://www.w3.org/2000/svg" width="260.904" height="71.017" viewBox="0 0 260.904 71.017"><path fill="#2A2E33" d="M260.904 48.198c0 12.602-10.216 22.819-22.819 22.819H26.515c-12.602 0-22.819-10.216-22.819-22.819V27.95c0-12.602 10.216-22.819 22.819-22.819h211.57c12.602 0 22.819 10.216 22.819 22.819v20.248z"/><path fill="#3C4049" d="M257.208 43.067c0 12.603-10.216 22.819-22.819 22.819H22.819C10.216 65.886 0 55.67 0 43.067V22.819C0 10.217 10.216 0 22.819 0h211.57c12.602 0 22.819 10.216 22.819 22.819v20.248z"/><g fill="#FFF" stroke="#FFF" stroke-miterlimit="10"><path d="M122.098 45.337c.965 0 1.808-.347 2.502-1.04s1.039-1.559 1.039-2.527V25.251c0-.223.099-.347.322-.347h1.139c.222 0 .347.123.347.347v15.726h3.691v1.808h-3.79a5.327 5.327 0 0 1-1.833 3.095c-.991.842-2.13 1.263-3.417 1.263-1.486 0-2.774-.545-3.814-1.585s-1.561-2.304-1.561-3.79v-5.845c0-.222.099-.321.322-.321h1.163c.223 0 .322.099.322.321v5.845c.002 1.96 1.612 3.569 3.568 3.569z"/><path d="M135.203 39.617v-8.322c0-.223.124-.347.347-.347h1.139c.223 0 .347.123.347.347v8.669c0 .271.05.469.198.618.248.248.743.396 1.462.396h1.163v1.808h-.842c-1.213 0-2.13-.322-2.725-.917-.025-.025-.05-.025-.05-.049 0 .025-.05.099-.074.124-.569.569-1.336.842-2.303.842h-3.714v-1.808h3.764c.892.001 1.288-.445 1.288-1.361zm-.941 5.869v1.437c0 .223-.099.347-.321.347h-1.24c-.222 0-.321-.123-.321-.347v-1.437c0-.222.099-.347.321-.347h1.24c.222 0 .321.125.321.347zm3.318 0v1.437c0 .223-.124.347-.347.347h-1.213c-.223 0-.348-.123-.348-.347v-1.437c0-.222.124-.347.348-.347h1.213c.223 0 .347.125.347.347z"/><path d="M154.992 40.979h1.858v1.808h-1.511c-1.288 0-2.352-.52-2.973-1.437-1.016.965-2.229 1.437-3.592 1.437h-9.534v-1.808h4.309v-5.275c0-1.437.52-2.7 1.536-3.714 1.014-1.016 2.254-1.536 3.69-1.536 1.438 0 2.675.519 3.691 1.536 1.016 1.014 1.536 2.279 1.536 3.714v1.857c0 .867-.198 1.66-.594 2.428.173.669.767.99 1.584.99zm-9.634-5.275v5.275h3.416a3.424 3.424 0 0 0 3.418-3.417v-1.857c0-1.883-1.537-3.417-3.418-3.417s-3.416 1.558-3.416 3.416z"/><path d="M169.088 38.577v-2.378c0-1.09-.372-1.982-1.141-2.75-.767-.767-1.658-1.163-2.748-1.163-1.784 0-3.121.618-3.988 1.857l-.321.471a.342.342 0 0 1-.272.149c-.074 0-.123-.025-.198-.074l-.94-.668c-.074-.049-.099-.124-.124-.223v-.049c0-.074.025-.149.05-.198l.321-.469c1.263-1.734 3.096-2.601 5.474-2.601 1.585 0 2.923.57 4.036 1.684 1.115 1.115 1.684 2.452 1.684 4.038v3.764c0 .271.051.469.198.618.249.248.744.396 1.462.396h1.164v1.808h-.843c-1.411 0-2.402-.396-2.996-1.239-.743.842-1.807 1.239-3.194 1.239h-10.477v-1.808h10.477c1.657-.002 2.376-.745 2.376-2.404z"/><path d="M178.723 39.641v-8.346c0-.223.123-.347.321-.347h1.164c.198 0 .321.123.321.347v8.346c0 1.932-1.237 3.146-3.145 3.146h-4.259v-1.808h4.31c.892-.025 1.288-.446 1.288-1.338zm-1.684-11.937v-1.46c0-.223.123-.347.347-.347h1.189c.223 0 .347.123.347.347v1.46c0 .223-.123.322-.347.322h-1.189c-.223.001-.347-.098-.347-.322zm5.176-1.461v1.46c0 .223-.099.322-.321.322h-1.213c-.223 0-.348-.099-.348-.322v-1.46c0-.223.124-.347.348-.347h1.213c.222.001.321.123.321.347z"/></g><g fill="#FFF"><path d="M45.16 16.175h10.565v17.661H45.16z"/><path d="M50.443 42.196l-4.377-5.701-4.377-5.7h17.509l-4.378 5.7z"/></g><path fill="#686969" d="M61.744 34.446v9.622H39.142v-9.622h-6.514v16.479h35.63V34.446z"/></svg>