<?xml version="1.0" encoding="utf-8"?>
<!-- Generator: Adobe Illustrator 17.0.0, SVG Export Plug-In . SVG Version: 6.00 Build 0)  -->
<!DOCTYPE svg PUBLIC "-//W3C//DTD SVG 1.1//EN" "http://www.w3.org/Graphics/SVG/1.1/DTD/svg11.dtd">
<svg version="1.1" id="Layer_1" xmlns="http://www.w3.org/2000/svg" xmlns:xlink="http://www.w3.org/1999/xlink" x="0px" y="0px"
	 width="36.533px" height="29.258px" viewBox="0 0 36.533 29.258" enable-background="new 0 0 36.533 29.258" xml:space="preserve">
<g>
	<g>
		<path opacity="0.15" fill="#FFFFFF" d="M35.172,16.455l-2.419,2.199h-1.62v-4.624h-5.19c3.137-0.617,5.511-3.387,5.511-6.703
			c0-3.767-3.065-6.832-6.832-6.832c-3.767,0-6.832,3.065-6.832,6.832c0,3.315,2.374,6.085,5.51,6.703H10.454
			c3.137-0.617,5.511-3.387,5.511-6.703c0-3.767-3.065-6.832-6.833-6.832c-3.767,0-6.832,3.065-6.832,6.832
			c0,3.315,2.374,6.085,5.51,6.703h-4.37v2.079H1.472v-0.016L0,15.146v3.152l1.472-0.804v0.083h1.423l0.546,0.97v10.712h27.693
			v-5.986h1.62l2.419,1.759h0.713v-8.576H35.172z"/>
		<g>
			<rect x="4.425" y="13.395" fill="#FFFFFF" width="27.407" height="15.07"/>
			<g>
				<rect x="31.831" y="17.971" fill="#FFFFFF" width="1.603" height="4.57"/>
				<polyline fill="#FFFFFF" points="33.434,17.971 35.828,15.794 35.828,24.281 33.434,22.541 				"/>
				<g>
					<rect x="35.828" y="15.794" fill="#FFFFFF" width="0.705" height="8.487"/>
				</g>
			</g>
			<g>
				<g>
					<circle fill="#FBB040" cx="28.571" cy="24.731" r="0.866"/>
				</g>
				<g>
					<path fill="#FBB040" d="M22.688,24.941c0,0.369,0.299,0.669,0.669,0.669h2.342c0.37,0,0.669-0.3,0.669-0.669v-0.376
						c0-0.369-0.299-0.669-0.669-0.669h-2.342c-0.37,0-0.669,0.3-0.669,0.669V24.941z"/>
				</g>
			</g>
			<g>
				<rect x="9.297" y="0.496" fill="#FFFFFF" width="1.521" height="12.531"/>
				<rect x="3.768" y="6.025" fill="#FFFFFF" width="12.531" height="1.52"/>
				
					<rect x="9.273" y="0.496" transform="matrix(0.741 0.6715 -0.6715 0.741 7.1393 -4.9864)" fill="#FFFFFF" width="1.521" height="12.531"/>
				
					<rect x="9.273" y="0.496" transform="matrix(-0.7409 0.6717 -0.6717 -0.7409 22.0083 5.0316)" fill="#FFFFFF" width="1.521" height="12.53"/>
				<g>
					<path fill="#FFFFFF" d="M10.057,13.523c-3.728,0-6.761-3.033-6.761-6.761C3.296,3.033,6.329,0,10.057,0
						c3.729,0,6.762,3.033,6.762,6.761C16.819,10.49,13.786,13.523,10.057,13.523z M10.057,0.892c-3.236,0-5.869,2.633-5.869,5.869
						c0,3.236,2.633,5.869,5.869,5.869c3.237,0,5.87-2.633,5.87-5.869C15.927,3.525,13.294,0.892,10.057,0.892z"/>
				</g>
				<circle fill="#FFFFFF" cx="10.058" cy="6.761" r="3.12"/>
				<circle fill="#FFFFFF" cx="25.387" cy="6.761" r="3.121"/>
				<circle fill="#FFFFFF" cx="10.058" cy="6.761" r="0.76"/>
			</g>
			<g>
				<rect x="24.627" y="0.496" fill="#FFFFFF" width="1.52" height="12.531"/>
				<rect x="19.097" y="6.025" fill="#FFFFFF" width="12.53" height="1.52"/>
				
					<rect x="24.602" y="0.496" transform="matrix(0.7411 0.6714 -0.6714 0.7411 11.1058 -15.2779)" fill="#FFFFFF" width="1.521" height="12.53"/>
				
					<rect x="24.603" y="0.497" transform="matrix(-0.7408 0.6717 -0.6717 -0.7408 48.693 -5.2672)" fill="#FFFFFF" width="1.521" height="12.53"/>
				<g>
					<path fill="#FFFFFF" d="M25.387,13.523c-3.728,0-6.761-3.033-6.761-6.761C18.625,3.033,21.659,0,25.387,0
						c3.728,0,6.761,3.033,6.761,6.761C32.148,10.49,29.115,13.523,25.387,13.523z M25.387,0.892c-3.236,0-5.869,2.633-5.869,5.869
						c0,3.236,2.633,5.869,5.869,5.869c3.236,0,5.869-2.633,5.869-5.869C31.256,3.525,28.623,0.892,25.387,0.892z"/>
				</g>
				<circle fill="#FFFFFF" cx="25.387" cy="6.761" r="0.76"/>
			</g>
			<g>
				<polyline fill="#FFFFFF" points="2.476,15.452 25.337,15.452 25.337,18.355 4.701,18.355 3.885,16.904 2.476,16.904 				"/>
				<polyline fill="#FFFFFF" points="2.476,15.437 1.019,14.499 1.019,17.618 2.476,16.822 				"/>
			</g>
		</g>
	</g>
</g>
</svg>
