<?xml version="1.0" encoding="utf-8"?>
<!-- Generator: Adobe Illustrator 17.0.0, SVG Export Plug-In . SVG Version: 6.00 Build 0)  -->
<!DOCTYPE svg PUBLIC "-//W3C//DTD SVG 1.1//EN" "http://www.w3.org/Graphics/SVG/1.1/DTD/svg11.dtd">
<svg version="1.1" id="Layer_1" xmlns="http://www.w3.org/2000/svg" xmlns:xlink="http://www.w3.org/1999/xlink" x="0px" y="0px"
	 width="31.646px" height="29.432px" viewBox="0 0 31.646 29.432" enable-background="new 0 0 31.646 29.432" xml:space="preserve">
<g>
	<path fill="#FFFFFF" d="M25.908,15.637c-1.386,0-2.508,1.122-2.508,2.508v8.778c0,1.387,1.123,2.509,2.508,2.509
		c1.385,0,2.508-1.122,2.508-2.509v-8.778C28.416,16.759,27.292,15.637,25.908,15.637z"/>
	<path fill="#FFFFFF" d="M5.739,15.637c-1.385,0-2.508,1.122-2.508,2.508v8.778c0,1.387,1.123,2.509,2.508,2.509
		c1.385,0,2.508-1.122,2.508-2.509v-8.778C8.247,16.759,7.124,15.637,5.739,15.637z"/>
	<path fill="#FFFFFF" d="M31.216,20.487c0.184-1.168,0.902-6.8-1.323-11.731c0.22-0.3,0.32-0.686,0.244-1.08
		C30.077,7.363,28.528,0,16.373,0C4.364,0,1.65,7.727,1.54,8.056c-0.193,0.58,0.019,1.193,0.482,1.541
		c-2.078,4.747-1.7,9.863-1.595,10.898C0.158,21.087,0,21.784,0,22.534c0,2.135,1.263,3.867,2.821,3.867v-7.734
		c-0.568,0-1.096,0.233-1.539,0.629c-0.066-1.947,0.053-5.834,1.641-9.424C3.472,9.844,3.977,9.493,4.17,8.944
		c0.089-0.251,2.284-6.168,12.203-6.168c9.741,0,10.993,5.218,11.038,5.423c0.143,0.752,0.866,1.243,1.624,1.102
		c0.025-0.005,0.048-0.012,0.072-0.017c1.638,3.778,1.504,8.039,1.312,10.062c-0.454-0.427-1.002-0.678-1.594-0.678v7.734
		c1.559,0,2.821-1.731,2.821-3.867C31.646,21.782,31.487,21.082,31.216,20.487z"/>
</g>
</svg>
