<?xml version="1.0" encoding="utf-8"?>
<!-- Generator: Adobe Illustrator 17.0.0, SVG Export Plug-In . SVG Version: 6.00 Build 0)  -->
<!DOCTYPE svg PUBLIC "-//W3C//DTD SVG 1.1//EN" "http://www.w3.org/Graphics/SVG/1.1/DTD/svg11.dtd">
<svg version="1.1" id="Layer_1" xmlns="http://www.w3.org/2000/svg" xmlns:xlink="http://www.w3.org/1999/xlink" x="0px" y="0px"
	 width="31.381px" height="31.282px" viewBox="0 0 31.381 31.282" enable-background="new 0 0 31.381 31.282" xml:space="preserve">
<g id="gamepad">
	<path opacity="0.25" fill="#010101" d="M25.598,17.497L25.598,17.497h-1.037c-0.025-0.001-0.049-0.004-0.074-0.004
		c-0.025,0-0.049,0.003-0.074,0.004H19.02v-0.952h-5.666v0.952h-6.3v0.004C7,17.5,6.948,17.493,6.894,17.493
		C3.087,17.493,0,20.579,0,24.387c0,3.808,3.087,6.894,6.894,6.894c2.483,0,4.653-1.317,5.867-3.286h5.859
		c1.214,1.969,3.384,3.286,5.867,3.286c3.807,0,6.894-3.086,6.894-6.894C31.381,20.958,28.876,18.029,25.598,17.497z"/>
	<g>
		<path fill="#FFFFFF" d="M25.598,16.583L25.598,16.583h-1.037c-0.025-0.001-0.049-0.004-0.074-0.004
			c-0.025,0-0.049,0.003-0.074,0.004H19.02v-0.952h-5.666v0.952h-6.3v0.004C7,16.586,6.948,16.58,6.894,16.58
			C3.087,16.58,0,19.666,0,23.474c0,3.808,3.087,6.894,6.894,6.894c2.483,0,4.653-1.317,5.867-3.286h5.859
			c1.214,1.969,3.384,3.286,5.867,3.286c3.807,0,6.894-3.086,6.894-6.894C31.381,20.045,28.876,17.115,25.598,16.583z"/>
		<path fill="#E1EFFA" d="M30.17,19.578c0.031,0.265,0.049,0.533,0.049,0.806c0,3.808-3.087,6.894-6.894,6.894
			c-2.483,0-4.653-1.317-5.867-3.286h-5.859c-1.214,1.969-3.384,3.286-5.867,3.286c-2.359,0-4.44-1.185-5.683-2.992
			c0.403,3.425,3.313,6.081,6.845,6.081c2.483,0,4.653-1.317,5.867-3.286h5.859c1.214,1.969,3.384,3.286,5.867,3.286
			c3.807,0,6.894-3.086,6.894-6.894C31.381,22.026,30.933,20.685,30.17,19.578z"/>
		<g>
			<circle fill="#40B19C" cx="22.288" cy="21.099" r="1.426"/>
			<path opacity="0.15" fill="#40B19C" d="M22.288,22.127c-0.72,0-1.314-0.534-1.411-1.227c-0.009,0.065-0.015,0.132-0.015,0.199
				c0,0.788,0.639,1.426,1.426,1.426c0.787,0,1.426-0.638,1.426-1.426c0-0.068-0.006-0.134-0.015-0.199
				C23.601,21.593,23.008,22.127,22.288,22.127z"/>
		</g>
		<g>
			<circle fill="#40B19C" cx="27.043" cy="21.099" r="1.426"/>
			<path opacity="0.15" fill="#40B19C" d="M27.043,22.127c-0.72,0-1.314-0.534-1.411-1.227c-0.009,0.065-0.015,0.132-0.015,0.199
				c0,0.788,0.639,1.426,1.426,1.426c0.787,0,1.426-0.638,1.426-1.426c0-0.068-0.006-0.134-0.015-0.199
				C28.356,21.593,27.762,22.127,27.043,22.127z"/>
		</g>
		<g>
			<circle fill="#40B19C" cx="22.288" cy="25.853" r="1.426"/>
			<path opacity="0.15" fill="#40B19C" d="M22.288,26.881c-0.72,0-1.314-0.534-1.411-1.227c-0.009,0.065-0.015,0.132-0.015,0.199
				c0,0.788,0.639,1.426,1.426,1.426c0.787,0,1.426-0.638,1.426-1.426c0-0.068-0.006-0.134-0.015-0.199
				C23.601,26.347,23.008,26.881,22.288,26.881z"/>
		</g>
		<g>
			<circle fill="#40B19C" cx="27.043" cy="25.853" r="1.426"/>
			<path opacity="0.15" fill="#40B19C" d="M27.043,26.881c-0.72,0-1.314-0.534-1.411-1.227c-0.009,0.065-0.015,0.132-0.015,0.199
				c0,0.788,0.639,1.426,1.426,1.426c0.787,0,1.426-0.638,1.426-1.426c0-0.068-0.006-0.134-0.015-0.199
				C28.356,26.347,27.762,26.881,27.043,26.881z"/>
		</g>
		<g>
			<path fill="#FFFFFF" d="M16.602,15.631h-0.792V6.566c0-0.79,0.211-1.463,0.61-1.949c0.373-0.454,0.901-0.715,1.446-0.715
				c0.976,0,2.026,0.834,2.026,2.664v4.64c0,1.354,0.671,1.971,1.295,1.971c0.618,0,1.284-0.617,1.284-1.971V0h0.792v11.206
				c0,1.899-1.076,2.763-2.077,2.763c-1.038,0-2.088-0.949-2.088-2.763v-4.64c0-1.286-0.639-1.871-1.234-1.871
				c-0.609,0-1.264,0.586-1.264,1.871V15.631z"/>
		</g>
		<g>
			<g>
				<polygon fill="#40B19C" points="9.133,22.566 7.231,22.566 7.231,20.664 5.329,20.664 5.329,22.566 3.427,22.566 3.427,24.468 
					5.329,24.468 5.329,26.37 7.231,26.37 7.231,24.468 9.133,24.468 				"/>
				<polygon fill="#40B19C" points="7.231,26.37 7.231,24.468 9.133,24.468 9.133,22.566 7.231,22.566 7.231,20.664 6.28,20.664 
					6.28,26.37 				"/>
			</g>
			<g>
				<polygon fill="#FFFFFF" points="5.884,21.819 6.28,21.133 6.677,21.819 				"/>
				<polygon fill="#FFFFFF" points="6.677,25.214 6.28,25.9 5.884,25.214 				"/>
				<polygon fill="#FFFFFF" points="7.978,23.121 8.664,23.517 7.978,23.913 				"/>
				<polygon fill="#FFFFFF" points="4.583,23.913 3.897,23.517 4.583,23.121 				"/>
			</g>
		</g>
		<rect x="13.97" y="21.476" fill="#2B455F" width="1.664" height="0.343"/>
		<rect x="16.777" y="21.476" fill="#2B455F" width="1.664" height="0.343"/>
	</g>
</g>
</svg>
