<?xml version="1.0" encoding="utf-8"?>
<!-- Generator: Adobe Illustrator 17.0.0, SVG Export Plug-In . SVG Version: 6.00 Build 0)  -->
<!DOCTYPE svg PUBLIC "-//W3C//DTD SVG 1.1//EN" "http://www.w3.org/Graphics/SVG/1.1/DTD/svg11.dtd">
<svg version="1.1" id="Layer_1" xmlns="http://www.w3.org/2000/svg" xmlns:xlink="http://www.w3.org/1999/xlink" x="0px" y="0px"
	 width="27.256px" height="26.655px" viewBox="0 0 27.256 26.655" enable-background="new 0 0 27.256 26.655" xml:space="preserve">
<path fill="#FFFFFF" d="M20.982,21.854l1.295-2.231c0.268-0.462,0.86-0.621,1.323-0.352l3.657,2.123
	c0.001-1.559-0.799-3.075-2.245-3.913c-1.12-0.65-2.402-0.759-3.552-0.417c-0.232-0.1-0.45-0.242-0.637-0.437l-4.515-4.698
	l6.608-6.607l2.66-1.079l1.079-2.66L25.073,0l-2.659,1.08l-1.079,2.66l-6.577,6.577l-3.282-3.416
	c-0.204-0.213-0.346-0.457-0.435-0.716c0.61-1.966-0.188-4.16-2.044-5.237C7.551,0.111,5.836,0.167,4.484,0.94l3.657,2.123
	c0.462,0.268,0.62,0.86,0.352,1.323L7.199,6.617C6.93,7.08,6.337,7.237,5.874,6.969L2.218,4.846c-0.001,1.559,0.8,3.075,2.246,3.913
	c1.119,0.65,2.401,0.761,3.552,0.419C8.248,9.276,8.465,9.42,8.651,9.613l3.337,3.473l-0.732,0.732l0,0
	c-0.654-0.654-1.766-0.605-2.481,0.111l-8.204,8.204c-0.716,0.716-0.765,1.826-0.11,2.482l1.581,1.58
	c0.654,0.656,1.765,0.607,2.481-0.11l8.204-8.204c0.715-0.715,0.765-1.827,0.109-2.481l-0.001-0.001l0.701-0.701l0.594,0.617
	l0.001-0.002L18,19.339c0.202,0.211,0.346,0.456,0.434,0.716c-0.609,1.966,0.19,4.16,2.046,5.236
	c1.445,0.838,3.159,0.781,4.511,0.008l-3.656-2.123C20.869,22.907,20.714,22.316,20.982,21.854z"/>
</svg>
