<?xml version="1.0" encoding="utf-8"?>
<!-- Generator: Adobe Illustrator 17.0.0, SVG Export Plug-In . SVG Version: 6.00 Build 0)  -->
<!DOCTYPE svg PUBLIC "-//W3C//DTD SVG 1.1//EN" "http://www.w3.org/Graphics/SVG/1.1/DTD/svg11.dtd">
<svg version="1.1" id="Layer_1" xmlns="http://www.w3.org/2000/svg" xmlns:xlink="http://www.w3.org/1999/xlink" x="0px" y="0px"
	 width="19.953px" height="32.935px" viewBox="0 0 19.953 32.935" enable-background="new 0 0 19.953 32.935" xml:space="preserve">
<g id="hourglass">
	<g>
		<g>
			<path fill="#E1EFFA" d="M1.256,2.1L1.256,9.5c0,1.705,0.65,3.41,1.951,4.711c1.301,1.301,3.006,1.951,4.711,1.951h0.38
				c0.047,0,0.137,0.012,0.215,0.09c0.058,0.057,0.089,0.134,0.089,0.215c0,0.081-0.032,0.158-0.089,0.215
				c-0.078,0.077-0.169,0.089-0.215,0.089h-0.38c-1.705,0-3.41,0.651-4.711,1.951c-1.301,1.301-1.951,3.006-1.951,4.711l0.001,7.4
				h17.442v-7.4c0-1.705-0.65-3.41-1.951-4.711c-1.301-1.301-3.006-1.951-4.711-1.951h-0.379c-0.082,0-0.159-0.032-0.216-0.089
				c-0.057-0.058-0.089-0.134-0.089-0.215c0-0.082,0.031-0.158,0.089-0.215c0.057-0.058,0.133-0.09,0.216-0.09h0.379
				c1.705,0,3.41-0.651,4.711-1.951c1.301-1.301,1.951-3.006,1.951-4.711V2.1H1.256z"/>
			<path fill="#FFFFFF" d="M2.288,29.802l0-6.368c0-1.504,0.586-2.918,1.649-3.981c1.064-1.063,2.477-1.648,3.981-1.648h0.38
				c0.356,0,0.692-0.139,0.944-0.391c0.253-0.252,0.392-0.588,0.392-0.946c0-0.358-0.14-0.694-0.393-0.946
				C8.99,15.269,8.654,15.13,8.298,15.13h-0.38c-1.504,0-2.917-0.586-3.981-1.649C2.874,12.418,2.288,11.004,2.288,9.5l0-6.368
				h15.377V9.5c0,1.504-0.586,2.918-1.649,3.981c-1.063,1.063-2.477,1.649-3.981,1.649h-0.379c-0.361,0-0.7,0.141-0.952,0.398
				c-0.246,0.245-0.385,0.581-0.385,0.939c0,0.356,0.138,0.69,0.389,0.943c0.254,0.255,0.59,0.394,0.948,0.394h0.379
				c1.504,0,2.917,0.585,3.981,1.649c1.064,1.063,1.649,2.477,1.649,3.981v6.368H2.288z"/>
			<path fill="#4A494A" d="M19.953,31.884c0,0.578-0.472,1.05-1.049,1.05H1.05c-0.577,0-1.05-0.473-1.05-1.05l0,0
				c0-0.578,0.473-1.05,1.05-1.05h17.853C19.481,30.834,19.953,31.307,19.953,31.884L19.953,31.884z"/>
			<path fill="#4A494A" d="M19.953,1.05c0,0.578-0.472,1.05-1.049,1.05H1.05C0.473,2.1,0,1.628,0,1.05l0,0C0,0.473,0.473,0,1.05,0
				h17.853C19.481,0,19.953,0.473,19.953,1.05L19.953,1.05z"/>
		</g>
		<path fill="#2781BA" d="M10.321,23.543v-7.077c0-0.133,0.018-0.264,0.055-0.389c0.064-0.208,0.179-0.397,0.336-0.554
			c0.032-0.032,0.065-0.061,0.099-0.091c0.034-0.027,0.069-0.053,0.106-0.077c0.035-0.024,0.072-0.048,0.11-0.067
			c0.059-0.032,0.117-0.058,0.178-0.08c0.019-0.008,0.04-0.013,0.059-0.018c0.032-0.011,0.064-0.019,0.099-0.024
			c0.093-0.024,0.192-0.034,0.293-0.034h0.381c1.503,0,2.915-0.586,3.982-1.65c0.714-0.714,1.212-1.585,1.46-2.537
			c-2.239,0.25-4.791,0.392-7.502,0.392c-2.707,0-5.261-0.141-7.501-0.392c0.25,0.951,0.749,1.823,1.463,2.537
			c1.063,1.064,2.476,1.65,3.979,1.65h0.381c0.178,0,0.352,0.034,0.511,0.101c0.08,0.032,0.157,0.075,0.229,0.123
			c0.075,0.048,0.141,0.104,0.205,0.168c0.093,0.096,0.173,0.2,0.234,0.314c0.04,0.077,0.072,0.157,0.099,0.24
			c0.037,0.125,0.056,0.256,0.056,0.389v7.062c0,2.359-7.345,2.452-7.345,2.452v3.823h7.689h7.689V25.98
			C17.665,25.98,10.351,25.887,10.321,23.543z"/>
		<g>
			<path fill="#2781BA" d="M11.679,13.896c-0.043,0.005-0.082,0.014-0.121,0.024c-0.023,0.005-0.049,0.01-0.072,0.018
				c-0.075,0.021-0.147,0.048-0.219,0.08c-0.046,0.019-0.092,0.043-0.135,0.067c-0.046,0.024-0.089,0.05-0.131,0.077
				c-0.042,0.029-0.082,0.059-0.122,0.091c-0.192,0.157-0.333,0.347-0.413,0.554c-0.045,0.125-0.068,0.256-0.068,0.389v0.819
				c0.067-0.183,0.172-0.352,0.312-0.493c0.032-0.032,0.065-0.061,0.099-0.091c0.034-0.027,0.069-0.053,0.106-0.077
				c0.035-0.024,0.072-0.048,0.11-0.067c0.059-0.032,0.117-0.058,0.178-0.08c0.019-0.008,0.04-0.013,0.059-0.018
				c0.032-0.011,0.064-0.019,0.099-0.024c0.093-0.024,0.192-0.034,0.293-0.034h0.381c1.503,0,2.915-0.586,3.982-1.65
				c0.229-0.229,0.432-0.475,0.616-0.734c-1.188,0.722-2.62,1.114-4.128,1.114h-0.468C11.914,13.861,11.793,13.872,11.679,13.896z"
				/>
			<path fill="#2781BA" d="M9.364,14.567c-0.075-0.115-0.173-0.218-0.288-0.314c-0.079-0.064-0.16-0.12-0.252-0.168
				c-0.089-0.048-0.184-0.091-0.282-0.123c-0.196-0.067-0.409-0.101-0.628-0.101H7.447c-1.507,0-2.939-0.391-4.125-1.113
				c0.183,0.258,0.387,0.504,0.616,0.733c1.063,1.064,2.476,1.65,3.979,1.65h0.381c0.178,0,0.352,0.034,0.511,0.101
				c0.08,0.032,0.157,0.075,0.229,0.123c0.075,0.048,0.141,0.104,0.205,0.168c0.093,0.096,0.173,0.2,0.234,0.314
				c0.03,0.057,0.054,0.117,0.076,0.178v-0.819c0-0.133-0.023-0.264-0.069-0.389C9.453,14.725,9.414,14.644,9.364,14.567z"/>
			<polygon fill="#2781BA" points="9.977,28.533 2.288,28.533 2.288,29.803 9.977,29.803 17.665,29.803 17.665,28.533 			"/>
		</g>
		<path opacity="0.2" fill="#FFFFFF" d="M14.326,3.765V9.5c0,1.504-0.525,2.918-1.477,3.981c-0.383,0.427-0.817,0.776-1.286,1.042
			c0.035-0.003,0.07-0.007,0.106-0.007h0.339c1.347,0,2.615-0.525,3.567-1.478c0.953-0.953,1.478-2.219,1.478-3.567V3.765H14.326z"
			/>
		<path opacity="0.2" fill="#FFFFFF" d="M14.326,29.147v-5.735c0-1.504-0.525-2.918-1.477-3.981
			c-0.383-0.427-0.817-0.776-1.286-1.042c0.035,0.003,0.07,0.007,0.106,0.007h0.339c1.347,0,2.615,0.525,3.567,1.478
			c0.953,0.953,1.478,2.219,1.478,3.567v5.706H14.326z"/>
	</g>
</g>
</svg>
