<?xml version="1.0" encoding="utf-8"?>
<!-- Generator: Adobe Illustrator 17.0.0, SVG Export Plug-In . SVG Version: 6.00 Build 0)  -->
<!DOCTYPE svg PUBLIC "-//W3C//DTD SVG 1.1//EN" "http://www.w3.org/Graphics/SVG/1.1/DTD/svg11.dtd">
<svg version="1.1" id="Layer_1" xmlns="http://www.w3.org/2000/svg" xmlns:xlink="http://www.w3.org/1999/xlink" x="0px" y="0px"
	 width="31.485px" height="37.334px" viewBox="0 0 31.485 37.334" enable-background="new 0 0 31.485 37.334" xml:space="preserve">
<path fill="#FFFFFF" stroke="#FFFFFF" stroke-miterlimit="10" d="M23.549,12.104h-4.252c0-0.868-0.677-1.629-1.691-2.054
	l2.613-4.024c0.06,0.01,0.121,0.016,0.183,0.016c0.615,0,1.114-0.499,1.114-1.114s-0.499-1.114-1.114-1.114
	c-0.615,0-1.114,0.499-1.114,1.114c0,0.227,0.068,0.438,0.185,0.615l-2.755,4.242c-0.31-0.06-0.637-0.093-0.976-0.093
	c-0.339,0-0.666,0.033-0.976,0.093L9.812,2.157c0.107-0.167,0.17-0.366,0.17-0.58c0-0.595-0.482-1.077-1.077-1.077
	c-0.595,0-1.077,0.482-1.077,1.077c0,0.595,0.482,1.077,1.077,1.077c0.055,0,0.108-0.005,0.161-0.013l4.812,7.411
	c-1.015,0.425-1.691,1.185-1.691,2.054H7.935c-4.106,0-7.435,3.329-7.435,7.435v8.179c0,3.464,2.369,6.375,5.575,7.201
	c-0.034,0.605-0.05,1.915,0.436,1.915c0.43,0,1.142-1.024,1.554-1.68h15.357c0.412,0.656,1.124,1.68,1.554,1.68
	c0.486,0,0.469-1.309,0.436-1.915c3.206-0.826,5.575-3.737,5.575-7.201V19.54C30.985,15.433,27.656,12.104,23.549,12.104z
	 M22.033,30.81H5.562c-0.807,0-1.461-0.654-1.461-1.461V17.918c0-0.807,0.654-1.461,1.461-1.461h16.471
	c0.807,0,1.461,0.654,1.461,1.461v11.431C23.494,30.156,22.84,30.81,22.033,30.81z M26.602,28.215c-0.955,0-1.729-0.774-1.729-1.729
	s0.774-1.729,1.729-1.729c0.955,0,1.729,0.774,1.729,1.729S27.557,28.215,26.602,28.215z M26.602,21.519
	c-0.955,0-1.729-0.774-1.729-1.729c0-0.955,0.774-1.729,1.729-1.729c0.955,0,1.729,0.774,1.729,1.729
	C28.331,20.745,27.557,21.519,26.602,21.519z"/>
</svg>
