<svg xmlns="http://www.w3.org/2000/svg" width="36.533" height="29.258" viewBox="0 0 36.533 29.258"><path opacity=".15" fill="#FFF" d="M35.172 16.455l-2.419 2.199h-1.62V14.03h-5.19c3.137-.617 5.511-3.387 5.511-6.703A6.84 6.84 0 0 0 24.622.495a6.84 6.84 0 0 0-6.832 6.832c0 3.315 2.374 6.085 5.51 6.703H10.454c3.137-.617 5.511-3.387 5.511-6.703A6.84 6.84 0 0 0 9.132.495 6.84 6.84 0 0 0 2.3 7.327c0 3.315 2.374 6.085 5.51 6.703H3.44v2.079H1.472v-.016L0 15.146v3.152l1.472-.804v.083h1.423l.546.97v10.712h27.693v-5.986h1.62l2.419 1.759h.713v-8.576h-.714z"/><path fill="#FFF" d="M4.425 13.395h27.407v15.07H4.425z"/><path fill="#FFF" d="M31.831 17.971h1.603v4.57h-1.603zm1.603 0l2.394-2.177v8.487l-2.394-1.74m2.394-6.747h.705v8.487h-.705z"/><circle fill="#FBB040" cx="28.571" cy="24.731" r=".866"/><path fill="#FBB040" d="M22.688 24.941c0 .369.299.669.669.669h2.342c.37 0 .669-.3.669-.669v-.376a.669.669 0 0 0-.669-.669h-2.342c-.37 0-.669.3-.669.669v.376z"/><g fill="#FFF"><path d="M9.297.496h1.521v12.531H9.297z"/><path d="M3.768 6.025h12.531v1.52H3.768z"/><path d="M13.678 1.608l1.127 1.021-8.415 9.286-1.127-1.022z"/><path d="M14.805 10.893l-1.127 1.021L5.26 2.631l1.127-1.022z"/><path d="M10.057 13.523a6.769 6.769 0 0 1-6.761-6.761A6.769 6.769 0 0 1 10.057 0a6.769 6.769 0 0 1 6.762 6.761 6.77 6.77 0 0 1-6.762 6.762zm0-12.631a5.876 5.876 0 0 0-5.869 5.869 5.876 5.876 0 0 0 5.869 5.869 5.876 5.876 0 0 0 5.87-5.869 5.876 5.876 0 0 0-5.87-5.869z"/><circle cx="10.058" cy="6.761" r="3.12"/><circle cx="25.387" cy="6.761" r="3.121"/><circle cx="10.058" cy="6.761" r=".76"/></g><g fill="#FFF"><path d="M24.627.496h1.52v12.531h-1.52z"/><path d="M19.097 6.025h12.53v1.52h-12.53z"/><path d="M29.005 1.607l1.128 1.022-8.413 9.286-1.127-1.022z"/><path d="M30.133 10.89l-1.126 1.022L20.59 2.63l1.127-1.022z"/><path d="M25.387 13.523a6.769 6.769 0 0 1-6.761-6.761A6.768 6.768 0 0 1 25.387 0a6.769 6.769 0 0 1 6.761 6.761 6.769 6.769 0 0 1-6.761 6.762zm0-12.631a5.876 5.876 0 0 0-5.869 5.869 5.876 5.876 0 0 0 5.869 5.869 5.876 5.876 0 0 0 5.869-5.869A5.876 5.876 0 0 0 25.387.892z"/><circle cx="25.387" cy="6.761" r=".76"/></g><path d="M2.476 15.452h22.861v2.903H4.701l-.816-1.451H2.476m0-1.467l-1.457-.938v3.119l1.457-.796" fill="#FFF"/></svg>