<svg xmlns="http://www.w3.org/2000/svg" width="31.381" height="31.282" viewBox="0 0 31.381 31.282"><path opacity=".25" fill="#010101" d="M25.598 17.497h-1.037c-.025-.001-.049-.004-.074-.004-.025 0-.049.003-.074.004H19.02v-.952h-5.666v.952h-6.3v.004c-.054-.001-.106-.008-.16-.008a6.894 6.894 0 1 0 0 13.788 6.884 6.884 0 0 0 5.867-3.286h5.859a6.884 6.884 0 0 0 5.867 3.286 6.894 6.894 0 0 0 6.894-6.894c0-3.429-2.505-6.358-5.783-6.89z"/><path fill="#FFF" d="M25.598 16.583h-1.037c-.025-.001-.049-.004-.074-.004-.025 0-.049.003-.074.004H19.02v-.952h-5.666v.952h-6.3v.004c-.054-.001-.106-.007-.16-.007a6.894 6.894 0 1 0 0 13.788 6.884 6.884 0 0 0 5.867-3.286h5.859a6.884 6.884 0 0 0 5.867 3.286 6.894 6.894 0 0 0 6.894-6.894c0-3.429-2.505-6.359-5.783-6.891z"/><path fill="#E1EFFA" d="M30.17 19.578a6.894 6.894 0 0 1-6.845 7.7 6.884 6.884 0 0 1-5.867-3.286h-5.859a6.884 6.884 0 0 1-11.55.294 6.894 6.894 0 0 0 6.845 6.081 6.884 6.884 0 0 0 5.867-3.286h5.859a6.884 6.884 0 0 0 5.867 3.286 6.894 6.894 0 0 0 6.894-6.894 6.839 6.839 0 0 0-1.211-3.895z"/><g fill="#40B19C"><circle cx="22.288" cy="21.099" r="1.426"/><path opacity=".15" d="M22.288 22.127c-.72 0-1.314-.534-1.411-1.227a1.426 1.426 0 1 0 2.822 0 1.426 1.426 0 0 1-1.411 1.227z"/></g><g fill="#40B19C"><circle cx="27.043" cy="21.099" r="1.426"/><path opacity=".15" d="M27.043 22.127c-.72 0-1.314-.534-1.411-1.227a1.426 1.426 0 1 0 2.822 0 1.427 1.427 0 0 1-1.411 1.227z"/></g><g fill="#40B19C"><circle cx="22.288" cy="25.853" r="1.426"/><path opacity=".15" d="M22.288 26.881c-.72 0-1.314-.534-1.411-1.227a1.426 1.426 0 1 0 2.822 0 1.426 1.426 0 0 1-1.411 1.227z"/></g><g fill="#40B19C"><circle cx="27.043" cy="25.853" r="1.426"/><path opacity=".15" d="M27.043 26.881c-.72 0-1.314-.534-1.411-1.227a1.426 1.426 0 1 0 2.822 0 1.427 1.427 0 0 1-1.411 1.227z"/></g><path fill="#FFF" d="M16.602 15.631h-.792V6.566c0-.79.211-1.463.61-1.949.373-.454.901-.715 1.446-.715.976 0 2.026.834 2.026 2.664v4.64c0 1.354.671 1.971 1.295 1.971.618 0 1.284-.617 1.284-1.971V0h.792v11.206c0 1.899-1.076 2.763-2.077 2.763-1.038 0-2.088-.949-2.088-2.763v-4.64c0-1.286-.639-1.871-1.234-1.871-.609 0-1.264.586-1.264 1.871v9.065z"/><g fill="#40B19C"><path d="M9.133 22.566H7.231v-1.902H5.329v1.902H3.427v1.902h1.902v1.902h1.902v-1.902h1.902z"/><path d="M7.231 26.37v-1.902h1.902v-1.902H7.231v-1.902H6.28v5.706z"/></g><path d="M5.884 21.819l.396-.686.397.686zm.793 3.395l-.397.686-.396-.686zm1.301-2.093l.686.396-.686.396zm-3.395.792l-.686-.396.686-.396z" fill="#FFF"/><path fill="#2B455F" d="M13.97 21.476h1.664v.343H13.97zm2.807 0h1.664v.343h-1.664z"/></svg>