<?xml version="1.0" standalone="no"?>
<!DOCTYPE svg PUBLIC "-//W3C//DTD SVG 20010904//EN"
 "http://www.w3.org/TR/2001/REC-SVG-20010904/DTD/svg10.dtd">
<svg version="1.0" xmlns="http://www.w3.org/2000/svg"
 width="100.000000pt" height="100.000000pt" viewBox="0 0 100.000000 100.000000"
 preserveAspectRatio="xMidYMid meet">
<metadata>
Created by potrace 1.11, written by Peter Selinger 2001-2013
</metadata>
<g transform="translate(0.000000,100.000000) scale(0.100000,-0.100000)"
fill="#000000" stroke="none">
<path d="M0 500 l0 -500 500 0 500 0 0 500 0 500 -500 0 -500 0 0 -500z m586
342 c13 -8 34 -46 34 -61 0 -6 -44 -10 -115 -10 l-115 0 0 28 c0 19 7 31 23
39 25 12 156 16 173 4z m-246 -117 l5 -39 75 -13 c91 -16 235 -2 245 24 4 12
2 13 -7 5 -20 -16 -138 -27 -138 -13 0 6 7 11 15 11 8 0 15 7 15 15 0 8 -7 15
-15 15 -8 0 -15 7 -15 16 0 15 9 16 67 10 37 -4 70 -12 74 -17 3 -6 9 -1 12
10 6 24 42 29 51 6 3 -8 12 -15 20 -15 18 0 46 -38 46 -62 0 -22 -37 -61 -50
-53 -5 3 -11 1 -15 -5 -3 -5 -19 -10 -36 -10 -22 0 -29 -5 -29 -20 0 -61 -73
-150 -123 -150 -14 0 -17 -5 -11 -22 3 -13 13 -31 21 -40 15 -17 14 -84 -4
-215 -5 -39 -2 -45 26 -70 17 -15 31 -31 31 -35 0 -5 -47 -8 -105 -8 -60 0
-105 4 -105 10 0 5 9 18 21 29 17 15 19 23 10 39 -18 34 -13 42 29 42 44 0 51
14 26 59 -11 20 -11 32 1 73 14 47 14 51 -6 69 -15 14 -19 27 -15 44 5 19 0
26 -24 39 -41 21 -70 61 -83 113 -9 32 -16 43 -31 43 -38 0 -87 28 -94 54 -7
29 18 76 40 76 8 0 17 7 20 16 3 9 15 14 28 12 18 -2 24 -11 28 -43z m153 16
c3 -14 0 -17 -14 -14 -13 4 -19 0 -19 -11 0 -9 7 -16 15 -16 8 0 15 -4 15 -10
0 -12 -19 -12 -84 -4 -42 6 -46 9 -46 35 0 30 11 34 91 38 28 1 38 -3 42 -18z"/>
<path d="M371 594 c0 -11 3 -14 6 -6 3 7 2 16 -1 19 -3 4 -6 -2 -5 -13z"/>
<path d="M615 569 c-4 -19 -21 -46 -37 -61 -17 -15 -26 -28 -20 -28 26 0 85
100 69 116 -3 3 -8 -9 -12 -27z"/>
<path d="M380 567 c0 -4 7 -21 14 -36 22 -43 60 -63 109 -58 l42 4 -45 2 c-49
2 -78 21 -103 66 -9 17 -16 26 -17 22z"/>
</g>
</svg>
