<svg xmlns="http://www.w3.org/2000/svg" width="31.646" height="29.432" viewBox="0 0 31.646 29.432"><g fill="#FFF"><path d="M25.908 15.637a2.507 2.507 0 0 0-2.508 2.508v8.778a2.508 2.508 0 1 0 5.016 0v-8.778a2.508 2.508 0 0 0-2.508-2.508zm-20.169 0a2.508 2.508 0 0 0-2.508 2.508v8.778a2.508 2.508 0 1 0 5.016 0v-8.778a2.508 2.508 0 0 0-2.508-2.508z"/><path d="M31.216 20.487c.184-1.168.902-6.8-1.323-11.731.22-.3.32-.686.244-1.08C30.077 7.363 28.528 0 16.373 0 4.364 0 1.65 7.727 1.54 8.056a1.38 1.38 0 0 0 .482 1.541C-.056 14.344.322 19.46.427 20.495A4.942 4.942 0 0 0 0 22.534c0 2.135 1.263 3.867 2.821 3.867v-7.734c-.568 0-1.096.233-1.539.629-.066-1.947.053-5.834 1.641-9.424a1.395 1.395 0 0 0 1.247-.928c.089-.251 2.284-6.168 12.203-6.168 9.741 0 10.993 5.218 11.038 5.423a1.387 1.387 0 0 0 1.624 1.102l.072-.017c1.638 3.778 1.504 8.039 1.312 10.062-.454-.427-1.002-.678-1.594-.678v7.734c1.559 0 2.821-1.731 2.821-3.867 0-.753-.159-1.453-.43-2.048z"/></g></svg>