<svg xmlns="http://www.w3.org/2000/svg" width="27.256" height="26.655" viewBox="0 0 27.256 26.655"><path fill="#FFF" d="M20.982 21.854l1.295-2.231a.968.968 0 0 1 1.323-.352l3.657 2.123a4.505 4.505 0 0 0-5.797-4.33c-.232-.1-.45-.242-.637-.437l-4.515-4.698 6.608-6.607 2.66-1.079 1.079-2.66L25.073 0l-2.659 1.08-1.079 2.66-6.577 6.577-3.282-3.416a1.937 1.937 0 0 1-.435-.716A4.511 4.511 0 0 0 8.997.948 4.518 4.518 0 0 0 4.484.94l3.657 2.123c.462.268.62.86.352 1.323L7.199 6.617a.97.97 0 0 1-1.325.352L2.218 4.846a4.506 4.506 0 0 0 5.798 4.332c.232.098.449.242.635.435l3.337 3.473-.732.732c-.654-.654-1.766-.605-2.481.111L.571 22.133c-.716.716-.765 1.826-.11 2.482l1.581 1.58c.654.656 1.765.607 2.481-.11l8.204-8.204c.715-.715.765-1.827.109-2.481l-.001-.001.701-.701.594.617.001-.002L18 19.339c.202.211.346.456.434.716a4.512 4.512 0 1 0 6.557 5.244l-3.656-2.123a.965.965 0 0 1-.353-1.322z"/></svg>