<svg xmlns="http://www.w3.org/2000/svg" width="31.248" height="51.714" viewBox="0 0 31.248 51.714"><path fill="#FFF" d="M6.001.13l25.176 3.126-6.003 48.353-25.176-3.126z"/><path fill="none" d="M27.591 13.732l-1.838 14.802-20.527-2.548 1.837-14.803zM3.278 41.696l1.837-14.802 20.528 2.548-1.838 14.803z"/><path fill="#F6F6F6" d="M7.542 3.048l-1.256-.156.182-1.466 1.256.156zm-.5 4.028L5.785 6.92l.182-1.467 1.257.156zm-.5 4.027l-1.256-.156.182-1.466 1.256.156zm-.499 4.027l-1.257-.156.182-1.466 1.257.156zm-.5 4.028l-1.256-.156.182-1.467 1.256.156zm-.499 4.027l-1.257-.156.182-1.465 1.257.156zm-.5 4.027l-1.256-.156.182-1.467 1.256.156zm-.5 4.028l-1.256-.155.182-1.467 1.257.156zm-.5 4.027l-1.256-.156.182-1.465 1.256.156zm-.499 4.027l-1.257-.156.182-1.466 1.257.156zm-.5 4.027l-1.256-.156.182-1.466 1.256.156zm-.499 4.028l-1.257-.156.182-1.466 1.257.156z"/><path fill="#010101" d="M28.944 2.834l-1.24 9.99-20.528-2.548 1.24-9.99L6.112 0 .081 48.594l2.304.286.779-6.277 20.528 2.548-.779 6.277 2.304.286L31.248 3.12l-2.304-.286zm-1.353 10.898l-1.837 14.802-20.528-2.548 1.837-14.802 20.528 2.548zM2.044 47.35l-1.257-.156.182-1.466 1.257.156-.182 1.466zm.5-4.028l-1.257-.156.182-1.466 1.257.156-.182 1.466zm.499-4.028l-1.257-.156.182-1.466 1.257.156-.182 1.466zm.5-4.026l-1.257-.156.182-1.466 1.257.156-.182 1.466zm.5-4.027l-1.257-.156.182-1.467 1.257.156-.182 1.467zm.5-4.028l-1.257-.156.182-1.467 1.257.156-.182 1.467zm.5-4.028l-1.257-.156.182-1.466 1.257.156-.182 1.466zm.5-4.027l-1.257-.156.182-1.467 1.257.156-.182 1.467zm.499-4.028l-1.257-.156.182-1.466 1.257.156-.182 1.466zm.5-4.027l-1.257-.156.182-1.466 1.257.156-.182 1.466zm.5-4.027L5.785 6.92l.182-1.467 1.257.156-.182 1.467zm.5-4.027l-1.257-.156.182-1.466 1.257.156-.182 1.466zM3.277 41.695l1.837-14.802 20.528 2.548-1.837 14.802-20.528-2.548zm21.598 8.488l-1.257-.156.182-1.466 1.257.156-.182 1.466zm.5-4.027L24.118 46l.182-1.466 1.257.156-.182 1.466zm.5-4.028l-1.257-.156.182-1.466 1.257.156-.182 1.466zm.499-4.027l-1.257-.156.182-1.466 1.257.156-.182 1.466zm.5-4.027l-1.257-.156.182-1.467 1.257.156-.182 1.467zm.5-4.027l-1.257-.156.182-1.467 1.257.156-.182 1.467zm.5-4.028l-1.257-.156.182-1.466 1.257.156-.182 1.466zm.5-4.027l-1.257-.156.182-1.467 1.257.156-.182 1.467zm.5-4.028l-1.257-.156.182-1.466 1.257.156-.182 1.466zm.499-4.027l-1.257-.156.182-1.466 1.257.156-.182 1.466zm.5-4.027l-1.257-.156.182-1.467 1.257.156-.182 1.467zm.5-4.028l-1.257-.156.182-1.466 1.257.156-.182 1.466z"/><path fill="#F6F6F6" d="M30.373 5.881l-1.258-.156.182-1.466 1.258.157zm-.5 4.029l-1.257-.157.182-1.467 1.257.156zm-.499 4.026l-1.258-.156.182-1.466 1.258.156zm-.5 4.027l-1.257-.156.182-1.466 1.257.156zm-.5 4.027l-1.257-.155.182-1.467 1.257.156zm-.5 4.027l-1.257-.156.182-1.465 1.257.156zm-.499 4.028l-1.258-.156.182-1.467 1.258.156zm-.5 4.028l-1.257-.156.182-1.467 1.257.156zm-.499 4.027l-1.258-.157.182-1.465 1.258.156zm-.501 4.026l-1.257-.156.182-1.466 1.257.156zm-.499 4.028l-1.258-.156.182-1.466 1.258.156zm-.5 4.028l-1.257-.156.182-1.466 1.257.156z"/></svg>