<svg xmlns="http://www.w3.org/2000/svg" width="19.953" height="32.935" viewBox="0 0 19.953 32.935"><path fill="#E1EFFA" d="M1.256 2.1v7.4c0 1.705.65 3.41 1.951 4.711a6.641 6.641 0 0 0 4.711 1.951h.38a.303.303 0 0 1 .304.305.303.303 0 0 1-.304.304h-.38c-1.705 0-3.41.651-4.711 1.951a6.641 6.641 0 0 0-1.951 4.711l.001 7.4h17.442v-7.4c0-1.705-.65-3.41-1.951-4.711a6.641 6.641 0 0 0-4.711-1.951h-.379a.304.304 0 1 1 0-.609h.379c1.705 0 3.41-.651 4.711-1.951A6.641 6.641 0 0 0 18.699 9.5V2.1H1.256z"/><path fill="#FFF" d="M2.288 29.802v-6.368c0-1.504.586-2.918 1.649-3.981a5.594 5.594 0 0 1 3.981-1.648h.38c.356 0 .692-.139.944-.391.253-.252.392-.588.392-.946s-.14-.694-.393-.946a1.32 1.32 0 0 0-.943-.392h-.38a5.595 5.595 0 0 1-3.981-1.649A5.594 5.594 0 0 1 2.288 9.5V3.132h15.377V9.5a5.594 5.594 0 0 1-1.649 3.981 5.594 5.594 0 0 1-3.981 1.649h-.379c-.361 0-.7.141-.952.398a1.32 1.32 0 0 0-.385.939c0 .356.138.69.389.943.254.255.59.394.948.394h.379c1.504 0 2.917.585 3.981 1.649a5.59 5.59 0 0 1 1.649 3.981v6.368H2.288z"/><path fill="#4A494A" d="M19.953 31.884c0 .578-.472 1.05-1.049 1.05H1.05c-.577 0-1.05-.473-1.05-1.05 0-.578.473-1.05 1.05-1.05h17.853c.578 0 1.05.473 1.05 1.05zm0-30.834c0 .578-.472 1.05-1.049 1.05H1.05C.473 2.1 0 1.628 0 1.05 0 .473.473 0 1.05 0h17.853c.578 0 1.05.473 1.05 1.05z"/><path fill="#2781BA" d="M10.321 23.543v-7.077c0-.133.018-.264.055-.389a1.34 1.34 0 0 1 .336-.554c.032-.032.065-.061.099-.091a1.366 1.366 0 0 1 .216-.144c.059-.032.117-.058.178-.08.019-.008.04-.013.059-.018a.53.53 0 0 1 .099-.024c.093-.024.192-.034.293-.034h.381a5.601 5.601 0 0 0 3.982-1.65 5.563 5.563 0 0 0 1.46-2.537 68.49 68.49 0 0 1-7.502.392c-2.707 0-5.261-.141-7.501-.392.25.951.749 1.823 1.463 2.537a5.588 5.588 0 0 0 3.979 1.65h.381a1.316 1.316 0 0 1 .945.392c.093.096.173.2.234.314a1.37 1.37 0 0 1 .155.629v7.062c0 2.359-7.345 2.452-7.345 2.452v3.823h15.378V25.98c-.001 0-7.315-.093-7.345-2.437z"/><path d="M11.679 13.896a.893.893 0 0 0-.121.024c-.023.005-.049.01-.072.018a1.597 1.597 0 0 0-.354.147 1.67 1.67 0 0 0-.131.077 2.145 2.145 0 0 0-.122.091 1.351 1.351 0 0 0-.413.554 1.146 1.146 0 0 0-.068.389v.819c.067-.183.172-.352.312-.493.032-.032.065-.061.099-.091a1.366 1.366 0 0 1 .216-.144c.059-.032.117-.058.178-.08.019-.008.04-.013.059-.018a.53.53 0 0 1 .099-.024c.093-.024.192-.034.293-.034h.381a5.601 5.601 0 0 0 4.598-2.384c-1.188.722-2.62 1.114-4.128 1.114h-.468c-.123 0-.244.011-.358.035zm-2.315.671a1.494 1.494 0 0 0-.54-.482 1.73 1.73 0 0 0-.282-.123 1.945 1.945 0 0 0-.628-.101h-.467c-1.507 0-2.939-.391-4.125-1.113.183.258.387.504.616.733a5.588 5.588 0 0 0 3.979 1.65h.381a1.316 1.316 0 0 1 .945.392c.093.096.173.2.234.314a1.4 1.4 0 0 1 .076.178v-.819a1.123 1.123 0 0 0-.189-.629zm.613 13.966H2.288v1.27h15.377v-1.27z" fill="#2781BA"/><path opacity=".2" fill="#FFF" d="M14.326 3.765V9.5c0 1.504-.525 2.918-1.477 3.981a5.127 5.127 0 0 1-1.286 1.042c.035-.003.07-.007.106-.007h.339a5.01 5.01 0 0 0 3.567-1.478 5.01 5.01 0 0 0 1.478-3.567V3.765h-2.727zm0 25.382v-5.735c0-1.504-.525-2.918-1.477-3.981a5.127 5.127 0 0 0-1.286-1.042c.035.003.07.007.106.007h.339a5.01 5.01 0 0 1 3.567 1.478 5.01 5.01 0 0 1 1.478 3.567v5.706h-2.727z"/></svg>