<svg xmlns="http://www.w3.org/2000/svg" width="260.904" height="71.017" viewBox="0 0 260.904 71.017"><path fill="#2A2E33" d="M0 48.198C0 60.8 10.216 71.017 22.819 71.017h211.57c12.602 0 22.819-10.216 22.819-22.819V27.95c0-12.602-10.216-22.819-22.819-22.819H22.819C10.217 5.131 0 15.347 0 27.95v20.248z"/><path fill="#3C4049" d="M3.696 43.067c0 12.603 10.216 22.819 22.819 22.819h211.57c12.602 0 22.819-10.216 22.819-22.819V22.819C260.904 10.217 250.688 0 238.085 0H26.515C13.913 0 3.696 10.216 3.696 22.819v20.248z"/><g fill="#FFF" stroke="#FFF" stroke-miterlimit="10"><path d="M42.394 32.633c.86.861 1.28 1.911 1.28 3.129v1.574c0 1.218-.42 2.268-1.28 3.129-.861.86-1.911 1.302-3.129 1.302s-2.268-.441-3.129-1.302c-.86-.861-1.301-1.911-1.301-3.129v-1.574c0-1.218.44-2.268 1.301-3.129.861-.86 1.911-1.302 3.129-1.302s2.268.442 3.129 1.302zm-.252 4.704v-1.574c0-1.575-1.303-2.897-2.877-2.897s-2.897 1.302-2.897 2.897v1.574c0 1.575 1.323 2.897 2.897 2.897s2.877-1.322 2.877-2.897zM37.06 28.98v-1.154c0-.189.084-.273.273-.273h1.05c.188 0 .272.084.272.273v1.154c0 .189-.084.273-.272.273h-1.05c-.189.001-.273-.083-.273-.273zm2.793 0v-1.154c0-.189.105-.273.294-.273h1.028c.189 0 .273.084.273.273v1.154c0 .189-.084.273-.273.273h-1.028c-.188.001-.294-.083-.294-.273zm8.211 13.585v-10.52c0-.188.105-.294.295-.294h.965c.189 0 .295.105.295.294v8.188h3.191v1.533h-3.191v.798c0 2.226-1.365 3.569-3.591 3.569h-1.05c-.189 0-.273-.084-.273-.273v-.986c0-.189.084-.273.273-.273h1.05c1.407 0 2.036-.63 2.036-2.036z"/><path d="M66.416 39.1v-7.097c0-.188.084-.272.273-.272h.986c.189 0 .273.084.273.272V39.1c0 1.617-1.07 2.667-2.688 2.667h-1.05c-1.008 0-1.784-.252-2.31-.777l-.021-.042c-.021.042-.063.084-.084.105-.482.462-1.133.714-1.952.714h-1.028c-1.029 0-1.807-.252-2.331-.777l-.021-.042c-.463.525-1.135.819-2.016.819H51.78v-1.533h2.709c.756-.021 1.092-.356 1.092-1.134v-7.097c0-.188.084-.272.273-.272h.966c.188 0 .294.084.294.272v7.37c0 .23.063.398.189.524.188.21.608.336 1.238.336h1.344c.756 0 1.113-.378 1.113-1.134V32.57c0-.189.084-.273.272-.273h.987c.188 0 .272.084.272.273v6.803c0 .714.546.86 1.407.86h1.322c.781.001 1.158-.355 1.158-1.133zm-6.844-10.12v-1.238c0-.189.084-.294.272-.294h1.028c.189 0 .295.104.295.294v1.238c0 .189-.105.273-.295.273h-1.028c-.188.001-.272-.083-.272-.273zm1.406-2.624v-1.239c0-.188.084-.272.273-.272h1.028c.188 0 .272.084.272.272v1.239c0 .188-.084.272-.272.272h-1.027c-.19.001-.274-.083-.274-.272zm1.658 1.092h1.051c.188 0 .272.104.272.294v1.238c0 .189-.084.273-.272.273h-1.051c-.188 0-.272-.084-.272-.273v-1.238c0-.19.084-.294.272-.294zm11.321 12.786h1.029v1.533h-.987c-1.638 0-2.667-1.029-2.667-2.667V26.902c0-.189.084-.294.273-.294h.986c.189 0 .273.104.273.294V39.1c.001.778.337 1.134 1.093 1.134z"/><path d="M78.64 39.1v-7.075c0-.189.084-.294.272-.294h.987c.188 0 .272.104.272.294v7.349c0 .252.063.42.188.546.211.21.631.314 1.239.314h.966v1.533h-.712c-1.05 0-1.806-.294-2.331-.819-.504.504-1.112.819-2.016.819h-3.044v-1.533h3.065c.757-.021 1.114-.356 1.114-1.134zm1.575 4.809v1.238c0 .189-.105.273-.294.273h-1.028c-.189 0-.273-.084-.273-.273v-1.238c0-.189.084-.294.273-.294h1.028c.188 0 .294.104.294.294z"/><path d="M93.066 32.633c.86.861 1.301 1.911 1.301 3.129v1.574c0 1.218-.44 2.268-1.301 3.129a4.333 4.333 0 0 1-3.15 1.302h-7.873v-1.533h3.443v-4.472c0-1.218.441-2.268 1.302-3.129.86-.86 1.911-1.302 3.128-1.302a4.337 4.337 0 0 1 3.15 1.302zm-.252 4.704v-1.574c0-1.575-1.323-2.897-2.898-2.897-1.574 0-2.876 1.322-2.876 2.897v4.472h2.876c1.575-.001 2.898-1.323 2.898-2.898zm17.178-4.704c.86.861 1.28 1.911 1.28 3.129v1.574c0 1.218-.42 2.268-1.28 3.129-.861.86-1.911 1.302-3.129 1.302s-2.268-.441-3.129-1.302c-.86-.861-1.301-1.911-1.301-3.129v-1.574c0-1.218.44-2.268 1.301-3.129.861-.86 1.911-1.302 3.129-1.302s2.268.442 3.129 1.302zm-.252 4.704v-1.574c0-1.575-1.303-2.897-2.877-2.897s-2.897 1.302-2.897 2.897v1.574c0 1.575 1.323 2.897 2.897 2.897s2.877-1.322 2.877-2.897zm-5.082-8.357v-1.154c0-.189.084-.273.273-.273h1.05c.188 0 .272.084.272.273v1.154c0 .189-.084.273-.272.273h-1.05c-.189.001-.273-.083-.273-.273zm2.793 0v-1.154c0-.189.105-.273.294-.273h1.028c.189 0 .273.084.273.273v1.154c0 .189-.084.273-.273.273h-1.028c-.189.001-.294-.083-.294-.273zm16.379 11.254h.966v1.533h-.714c-.924 0-1.638-.294-2.205-.84a3.968 3.968 0 0 0-.188-.21c-.608.714-1.554 1.05-2.855 1.05h-4.515c-.188 0-.272-.084-.272-.273v-.986c0-.189.084-.273.272-.273h4.515c1.428 0 2.036-.398 2.036-1.764v-3.359c0-1.218-1.049-2.246-2.268-2.246-.881 0-1.553.168-1.994.482l-.398.273c-.063.042-.105.042-.168.042h-.043c-.084 0-.125-.042-.168-.105l-.566-.798a.237.237 0 0 1-.063-.168v-.042a.306.306 0 0 1 .125-.188l.379-.273c.713-.504 1.68-.756 2.896-.756 1.029 0 1.953.378 2.688 1.113.735.734 1.113 1.616 1.113 2.666v3.969c-.001.775.629 1.153 1.427 1.153z"/><path d="M138.005 31.92c.903.903 1.344 1.974 1.344 3.255v1.994c0 1.281-.44 2.352-1.344 3.255-.903.902-1.995 1.344-3.255 1.344h-10.477v-1.533h4.01a3.263 3.263 0 0 1-.545-1.806v-1.722c0-1.742 1.28-3.107 2.792-3.401a4.607 4.607 0 0 1 4.22-2.75c1.259-.001 2.351.461 3.255 1.364zm-6.929 8.314h2.037v-3.527c0-1.05-.861-1.932-1.911-1.932s-1.911.882-1.911 1.932v1.722c0 .987.799 1.805 1.785 1.805zm6.74-3.065v-1.994c0-1.659-1.407-3.065-3.066-3.065-1.049 0-1.889.44-2.498 1.302a3.454 3.454 0 0 1 2.394 3.296v3.527h.104a3.085 3.085 0 0 0 3.066-3.066zm7.54 3.065h1.028v1.533h-.986c-1.638 0-2.666-1.029-2.666-2.667V26.902c0-.189.084-.294.272-.294h.987c.188 0 .272.104.272.294V39.1c.001.778.337 1.134 1.093 1.134z"/><path d="M163.435 40.234h.986v1.533h-.714c-.924 0-1.638-.294-2.204-.84-.021-.021-.021-.021-.043-.063-.42.588-1.217.903-2.12.903h-1.05c-1.05 0-1.806-.294-2.33-.819-.021.021-.063.084-.084.105-.483.482-1.113.714-1.932.714h-1.051c-1.028 0-1.826-.273-2.33-.777-.021-.021-.021-.042-.021-.042-.461.525-1.133.819-2.016.819h-2.666v-1.533h2.709c.756 0 1.092-.378 1.092-1.154v-7.055c0-.189.084-.294.272-.294h.987c.188 0 .293.104.293.294v7.349c0 .23.043.398.168.524.211.21.631.336 1.239.336h1.344c.756 0 1.112-.378 1.112-1.154v-6.509c0-.189.084-.273.273-.273h.986c.189 0 .273.084.273.273v6.803c0 .23.042.398.168.524.23.21.65.336 1.26.336h1.322c.777 0 1.135-.378 1.135-1.154v-7.055c0-.189.084-.294.272-.294h.987c.188 0 .272.104.272.294v7.055c.004.776.634 1.154 1.411 1.154zM153.65 28.98v-1.238c0-.189.084-.294.273-.294h1.029c.188 0 .293.104.293.294v1.238c0 .189-.104.273-.293.273h-1.029c-.189.001-.273-.083-.273-.273zm1.407-2.624v-1.239c0-.188.084-.272.272-.272h1.029c.189 0 .273.084.273.272v1.239c0 .188-.084.272-.273.272h-1.029c-.188.001-.272-.083-.272-.272zm1.659 1.092h1.049c.189 0 .295.104.295.294v1.238c0 .189-.105.273-.295.273h-1.049c-.189 0-.273-.084-.273-.273v-1.238c0-.19.084-.294.273-.294z"/><path d="M174.922 32.633c.861.861 1.303 1.911 1.303 3.129v1.574c0 1.218-.441 2.268-1.303 3.129a4.33 4.33 0 0 1-3.148 1.302H163.9v-1.533h3.443v-4.472c0-1.218.44-2.268 1.302-3.129.861-.86 1.91-1.302 3.129-1.302a4.336 4.336 0 0 1 3.148 1.302zm-.252 4.704v-1.574c0-1.575-1.322-2.897-2.896-2.897-1.575 0-2.877 1.322-2.877 2.897v4.472h2.877c1.573-.001 2.896-1.323 2.896-2.898z"/></g><path fill="#FFF" d="M211.978 46.925h9.394v5.439h-9.394z"/><path fill="#686969" d="M209.414 51.388h14.523v3.448h-14.523zm26.915-6.1a2.596 2.596 0 0 1-2.596 2.596h-34.116a2.596 2.596 0 0 1-2.596-2.596v-24.43a2.596 2.596 0 0 1 2.596-2.596h34.116a2.596 2.596 0 0 1 2.596 2.596v24.43z"/><path fill="#FFF" d="M200.005 21.499h33.339v23.147h-33.339z"/></svg>