<?xml version="1.0" encoding="utf-8"?>
<!-- Generator: Adobe Illustrator 17.0.0, SVG Export Plug-In . SVG Version: 6.00 Build 0)  -->
<!DOCTYPE svg PUBLIC "-//W3C//DTD SVG 1.1//EN" "http://www.w3.org/Graphics/SVG/1.1/DTD/svg11.dtd">
<svg version="1.1" id="Layer_1" xmlns="http://www.w3.org/2000/svg" xmlns:xlink="http://www.w3.org/1999/xlink" x="0px" y="0px"
	 width="260.904px" height="71.017px" viewBox="0 0 260.904 71.017" enable-background="new 0 0 260.904 71.017"
	 xml:space="preserve">
<g>
	<g>
		<g>
			<g>
				<path fill="#2A2E33" d="M0,48.198C0,60.8,10.216,71.017,22.819,71.017h211.57c12.602,0,22.819-10.216,22.819-22.819V27.95
					c0-12.602-10.216-22.819-22.819-22.819H22.819C10.217,5.131,0,15.347,0,27.95V48.198z"/>
			</g>
			<g>
				<path fill="#3C4049" d="M3.696,43.067c0,12.603,10.216,22.819,22.819,22.819h211.57c12.602,0,22.819-10.216,22.819-22.819
					V22.819C260.904,10.217,250.688,0,238.085,0H26.515C13.913,0,3.696,10.216,3.696,22.819L3.696,43.067L3.696,43.067z"/>
			</g>
		</g>
	</g>
</g>
<g>
	<path fill="#FFFFFF" stroke="#FFFFFF" stroke-miterlimit="10" d="M42.394,32.633c0.86,0.861,1.28,1.911,1.28,3.129v1.574
		c0,1.218-0.42,2.268-1.28,3.129c-0.861,0.86-1.911,1.302-3.129,1.302s-2.268-0.441-3.129-1.302
		c-0.86-0.861-1.301-1.911-1.301-3.129v-1.574c0-1.218,0.44-2.268,1.301-3.129c0.861-0.86,1.911-1.302,3.129-1.302
		S41.533,31.773,42.394,32.633z M42.142,37.337v-1.574c0-1.575-1.303-2.897-2.877-2.897s-2.897,1.302-2.897,2.897v1.574
		c0,1.575,1.323,2.897,2.897,2.897S42.142,38.912,42.142,37.337z M37.06,28.98v-1.154c0-0.189,0.084-0.273,0.273-0.273h1.05
		c0.188,0,0.272,0.084,0.272,0.273v1.154c0,0.189-0.084,0.273-0.272,0.273h-1.05C37.144,29.254,37.06,29.17,37.06,28.98z
		 M39.853,28.98v-1.154c0-0.189,0.105-0.273,0.294-0.273h1.028c0.189,0,0.273,0.084,0.273,0.273v1.154
		c0,0.189-0.084,0.273-0.273,0.273h-1.028C39.959,29.254,39.853,29.17,39.853,28.98z"/>
	<path fill="#FFFFFF" stroke="#FFFFFF" stroke-miterlimit="10" d="M48.064,42.565v-10.52c0-0.188,0.105-0.294,0.295-0.294h0.965
		c0.189,0,0.295,0.105,0.295,0.294v8.188h3.191v1.533h-3.191v0.798c0,2.226-1.365,3.569-3.591,3.569h-1.05
		c-0.189,0-0.273-0.084-0.273-0.273v-0.986c0-0.189,0.084-0.273,0.273-0.273h1.05C47.435,44.601,48.064,43.971,48.064,42.565z"/>
	<path fill="#FFFFFF" stroke="#FFFFFF" stroke-miterlimit="10" d="M66.416,39.1v-7.097c0-0.188,0.084-0.272,0.273-0.272h0.986
		c0.189,0,0.273,0.084,0.273,0.272V39.1c0,1.617-1.07,2.667-2.688,2.667h-1.05c-1.008,0-1.784-0.252-2.31-0.777l-0.021-0.042
		c-0.021,0.042-0.063,0.084-0.084,0.105c-0.482,0.462-1.133,0.714-1.952,0.714h-1.028c-1.029,0-1.807-0.252-2.331-0.777
		l-0.021-0.042c-0.463,0.525-1.135,0.819-2.016,0.819H51.78v-1.533h2.688h0.021c0.756-0.021,1.092-0.356,1.092-1.134v-7.097
		c0-0.188,0.084-0.272,0.273-0.272h0.966c0.188,0,0.294,0.084,0.294,0.272v7.37c0,0.23,0.063,0.398,0.189,0.524
		c0.188,0.21,0.608,0.336,1.238,0.336h1.344c0.756,0,1.113-0.378,1.113-1.134V32.57c0-0.189,0.084-0.273,0.272-0.273h0.987
		c0.188,0,0.272,0.084,0.272,0.273v6.803c0,0.714,0.546,0.86,1.407,0.86h1.322C66.039,40.234,66.416,39.878,66.416,39.1z
		 M59.572,28.98v-1.238c0-0.189,0.084-0.294,0.272-0.294h1.028c0.189,0,0.295,0.104,0.295,0.294v1.238
		c0,0.189-0.105,0.273-0.295,0.273h-1.028C59.656,29.254,59.572,29.17,59.572,28.98z M60.978,26.356v-1.239
		c0-0.188,0.084-0.272,0.273-0.272h1.028c0.188,0,0.272,0.084,0.272,0.272v1.239c0,0.188-0.084,0.272-0.272,0.272h-1.027
		C61.062,26.629,60.978,26.545,60.978,26.356z M62.636,27.448h1.051c0.188,0,0.272,0.104,0.272,0.294v1.238
		c0,0.189-0.084,0.273-0.272,0.273h-1.051c-0.188,0-0.272-0.084-0.272-0.273v-1.238C62.364,27.552,62.448,27.448,62.636,27.448z"/>
	<path fill="#FFFFFF" stroke="#FFFFFF" stroke-miterlimit="10" d="M73.957,40.234h1.029v1.533h-0.987
		c-1.638,0-2.667-1.029-2.667-2.667V26.902c0-0.189,0.084-0.294,0.273-0.294h0.986c0.189,0,0.273,0.104,0.273,0.294V39.1
		C72.865,39.878,73.201,40.234,73.957,40.234z"/>
	<path fill="#FFFFFF" stroke="#FFFFFF" stroke-miterlimit="10" d="M78.64,39.1v-7.075c0-0.189,0.084-0.294,0.272-0.294h0.987
		c0.188,0,0.272,0.104,0.272,0.294v7.349c0,0.252,0.063,0.42,0.188,0.546c0.211,0.21,0.631,0.314,1.239,0.314h0.966v1.533h-0.712
		c-1.05,0-1.806-0.294-2.331-0.819c-0.504,0.504-1.112,0.819-2.016,0.819h-3.044v-1.533h3.065
		C78.283,40.213,78.64,39.878,78.64,39.1z M80.215,43.909v1.238c0,0.189-0.105,0.273-0.294,0.273h-1.028
		c-0.189,0-0.273-0.084-0.273-0.273v-1.238c0-0.189,0.084-0.294,0.273-0.294h1.028C80.109,43.615,80.215,43.719,80.215,43.909z"/>
	<path fill="#FFFFFF" stroke="#FFFFFF" stroke-miterlimit="10" d="M93.066,32.633c0.86,0.861,1.301,1.911,1.301,3.129v1.574
		c0,1.218-0.44,2.268-1.301,3.129c-0.861,0.86-1.932,1.302-3.15,1.302h-7.873v-1.533h3.443v-4.472c0-1.218,0.441-2.268,1.302-3.129
		c0.86-0.86,1.911-1.302,3.128-1.302C91.134,31.332,92.205,31.773,93.066,32.633z M92.814,37.337v-1.574
		c0-1.575-1.323-2.897-2.898-2.897c-1.574,0-2.876,1.322-2.876,2.897v4.472h2.876C91.491,40.234,92.814,38.912,92.814,37.337z"/>
	<path fill="#FFFFFF" stroke="#FFFFFF" stroke-miterlimit="10" d="M109.992,32.633c0.86,0.861,1.28,1.911,1.28,3.129v1.574
		c0,1.218-0.42,2.268-1.28,3.129c-0.861,0.86-1.911,1.302-3.129,1.302s-2.268-0.441-3.129-1.302
		c-0.86-0.861-1.301-1.911-1.301-3.129v-1.574c0-1.218,0.44-2.268,1.301-3.129c0.861-0.86,1.911-1.302,3.129-1.302
		S109.131,31.773,109.992,32.633z M109.74,37.337v-1.574c0-1.575-1.303-2.897-2.877-2.897s-2.897,1.302-2.897,2.897v1.574
		c0,1.575,1.323,2.897,2.897,2.897S109.74,38.912,109.74,37.337z M104.658,28.98v-1.154c0-0.189,0.084-0.273,0.273-0.273h1.05
		c0.188,0,0.272,0.084,0.272,0.273v1.154c0,0.189-0.084,0.273-0.272,0.273h-1.05C104.742,29.254,104.658,29.17,104.658,28.98z
		 M107.451,28.98v-1.154c0-0.189,0.105-0.273,0.294-0.273h1.028c0.189,0,0.273,0.084,0.273,0.273v1.154
		c0,0.189-0.084,0.273-0.273,0.273h-1.028C107.556,29.254,107.451,29.17,107.451,28.98z"/>
	<path fill="#FFFFFF" stroke="#FFFFFF" stroke-miterlimit="10" d="M123.83,40.234h0.966v1.533h-0.714
		c-0.924,0-1.638-0.294-2.205-0.84c-0.125-0.147-0.188-0.21-0.188-0.21c-0.608,0.714-1.554,1.05-2.855,1.05h-4.515
		c-0.188,0-0.272-0.084-0.272-0.273v-0.986c0-0.189,0.084-0.273,0.272-0.273h4.515c1.428,0,2.036-0.398,2.036-1.764v-3.359
		c0-1.218-1.049-2.246-2.268-2.246c-0.881,0-1.553,0.168-1.994,0.482l-0.398,0.273c-0.063,0.042-0.105,0.042-0.168,0.042h-0.043
		c-0.084,0-0.125-0.042-0.168-0.105l-0.566-0.798c-0.042-0.042-0.063-0.104-0.063-0.168V32.55c0.021-0.084,0.063-0.146,0.125-0.188
		l0.379-0.273c0.713-0.504,1.68-0.756,2.896-0.756c1.029,0,1.953,0.378,2.688,1.113c0.735,0.734,1.113,1.616,1.113,2.666v3.969
		C122.402,39.856,123.032,40.234,123.83,40.234z"/>
	<path fill="#FFFFFF" stroke="#FFFFFF" stroke-miterlimit="10" d="M138.005,31.92c0.903,0.903,1.344,1.974,1.344,3.255v1.994
		c0,1.281-0.44,2.352-1.344,3.255c-0.903,0.902-1.995,1.344-3.255,1.344h-10.477v-1.533h4.01c-0.356-0.546-0.545-1.154-0.545-1.806
		v-1.722c0-1.742,1.28-3.107,2.792-3.401c0.651-1.49,2.204-2.75,4.22-2.75C136.009,30.555,137.101,31.017,138.005,31.92z
		 M131.076,40.234h2.037v-3.527c0-1.05-0.861-1.932-1.911-1.932s-1.911,0.882-1.911,1.932v1.722
		C129.291,39.416,130.09,40.234,131.076,40.234z M137.816,37.169v-1.994c0-1.659-1.407-3.065-3.066-3.065
		c-1.049,0-1.889,0.44-2.498,1.302c1.302,0.42,2.394,1.658,2.394,3.296v3.527h0.104C136.429,40.234,137.816,38.848,137.816,37.169z"
		/>
	<path fill="#FFFFFF" stroke="#FFFFFF" stroke-miterlimit="10" d="M145.356,40.234h1.028v1.533h-0.986
		c-1.638,0-2.666-1.029-2.666-2.667V26.902c0-0.189,0.084-0.294,0.272-0.294h0.987c0.188,0,0.272,0.104,0.272,0.294V39.1
		C144.264,39.878,144.6,40.234,145.356,40.234z"/>
	<path fill="#FFFFFF" stroke="#FFFFFF" stroke-miterlimit="10" d="M163.435,40.234h0.986v1.533h-0.714
		c-0.924,0-1.638-0.294-2.204-0.84c-0.021-0.021-0.021-0.021-0.043-0.063c-0.42,0.588-1.217,0.903-2.12,0.903h-1.05
		c-1.05,0-1.806-0.294-2.33-0.819c-0.021,0.021-0.063,0.084-0.084,0.105c-0.483,0.482-1.113,0.714-1.932,0.714h-1.051
		c-1.028,0-1.826-0.273-2.33-0.777c-0.021-0.021-0.021-0.042-0.021-0.042c-0.461,0.525-1.133,0.819-2.016,0.819h-2.666v-1.533h2.709
		c0.756,0,1.092-0.378,1.092-1.154v-7.055c0-0.189,0.084-0.294,0.272-0.294h0.987c0.188,0,0.293,0.104,0.293,0.294v7.349
		c0,0.23,0.043,0.398,0.168,0.524c0.211,0.21,0.631,0.336,1.239,0.336h1.344c0.756,0,1.112-0.378,1.112-1.154v-6.509
		c0-0.189,0.084-0.273,0.273-0.273h0.986c0.189,0,0.273,0.084,0.273,0.273v6.803c0,0.23,0.042,0.398,0.168,0.524
		c0.23,0.21,0.65,0.336,1.26,0.336h1.322c0.777,0,1.135-0.378,1.135-1.154v-7.055c0-0.189,0.084-0.294,0.272-0.294h0.987
		c0.188,0,0.272,0.104,0.272,0.294v7.055C162.028,39.856,162.658,40.234,163.435,40.234z M153.65,28.98v-1.238
		c0-0.189,0.084-0.294,0.273-0.294h1.029c0.188,0,0.293,0.104,0.293,0.294v1.238c0,0.189-0.104,0.273-0.293,0.273h-1.029
		C153.734,29.254,153.65,29.17,153.65,28.98z M155.057,26.356v-1.239c0-0.188,0.084-0.272,0.272-0.272h1.029
		c0.189,0,0.273,0.084,0.273,0.272v1.239c0,0.188-0.084,0.272-0.273,0.272h-1.029C155.141,26.629,155.057,26.545,155.057,26.356z
		 M156.716,27.448h1.049c0.189,0,0.295,0.104,0.295,0.294v1.238c0,0.189-0.105,0.273-0.295,0.273h-1.049
		c-0.189,0-0.273-0.084-0.273-0.273v-1.238C156.443,27.552,156.527,27.448,156.716,27.448z"/>
	<path fill="#FFFFFF" stroke="#FFFFFF" stroke-miterlimit="10" d="M174.922,32.633c0.861,0.861,1.303,1.911,1.303,3.129v1.574
		c0,1.218-0.441,2.268-1.303,3.129c-0.86,0.86-1.932,1.302-3.148,1.302H163.9v-1.533h3.443v-4.472c0-1.218,0.44-2.268,1.302-3.129
		c0.861-0.86,1.91-1.302,3.129-1.302C172.99,31.332,174.061,31.773,174.922,32.633z M174.67,37.337v-1.574
		c0-1.575-1.322-2.897-2.896-2.897c-1.575,0-2.877,1.322-2.877,2.897v4.472h2.877C173.347,40.234,174.67,38.912,174.67,37.337z"/>
</g>
<g>
	<rect x="211.978" y="46.925" fill="#FFFFFF" width="9.394" height="5.439"/>
	<rect x="209.414" y="51.388" fill="#686969" width="14.523" height="3.448"/>
	<g>
		<path fill="#686969" d="M236.329,45.288c0,1.434-1.162,2.596-2.596,2.596h-34.116c-1.434,0-2.596-1.162-2.596-2.596v-24.43
			c0-1.434,1.162-2.596,2.596-2.596h34.116c1.434,0,2.596,1.162,2.596,2.596V45.288z"/>
		<rect x="200.005" y="21.499" fill="#FFFFFF" width="33.339" height="23.147"/>
	</g>
</g>
</svg>
