<?xml version="1.0" encoding="utf-8"?>
<!-- Generator: Adobe Illustrator 17.0.0, SVG Export Plug-In . SVG Version: 6.00 Build 0)  -->
<!DOCTYPE svg PUBLIC "-//W3C//DTD SVG 1.1//EN" "http://www.w3.org/Graphics/SVG/1.1/DTD/svg11.dtd">
<svg version="1.1" id="Layer_1" xmlns="http://www.w3.org/2000/svg" xmlns:xlink="http://www.w3.org/1999/xlink" x="0px" y="0px"
	 width="60.167px" height="14.667px" viewBox="0 0 60.167 14.667" enable-background="new 0 0 60.167 14.667" xml:space="preserve">
<path fill="#3D414A" d="M60.167,7.333c0,4.05-3.283,7.333-7.333,7.333h-45.5C3.283,14.667,0,11.383,0,7.333l0,0
	C0,3.283,3.283,0,7.333,0h45.5C56.883,0,60.167,3.283,60.167,7.333L60.167,7.333z"/>
<g>
	<g>
		<path fill="#FFFFFF" stroke="#FFFFFF" stroke-width="0.2" stroke-miterlimit="10" d="M10.489,9.433v-3.51
			c0-0.063,0.034-0.098,0.098-0.098h0.322c0.063,0,0.098,0.035,0.098,0.098v2.731h1.064v0.512h-1.064v0.267
			c0,0.742-0.455,1.19-1.197,1.19H9.459c-0.063,0-0.091-0.028-0.091-0.091v-0.33c0-0.063,0.028-0.091,0.091-0.091H9.81
			C10.278,10.112,10.489,9.902,10.489,9.433z"/>
		<path fill="#FFFFFF" stroke="#FFFFFF" stroke-width="0.2" stroke-miterlimit="10" d="M16.608,8.277V5.91
			c0-0.063,0.028-0.091,0.091-0.091h0.329c0.063,0,0.092,0.028,0.092,0.091v2.367c0,0.539-0.357,0.89-0.896,0.89h-0.351
			c-0.336,0-0.596-0.084-0.771-0.259l-0.007-0.015c-0.007,0.015-0.021,0.028-0.028,0.035c-0.161,0.154-0.378,0.238-0.651,0.238
			h-0.343c-0.344,0-0.603-0.084-0.777-0.259l-0.007-0.015c-0.154,0.176-0.379,0.273-0.673,0.273h-0.89V8.655h0.896h0.007
			c0.253-0.007,0.364-0.118,0.364-0.378V5.91c0-0.063,0.028-0.091,0.092-0.091h0.322c0.063,0,0.098,0.028,0.098,0.091v2.458
			c0,0.077,0.021,0.134,0.063,0.176c0.063,0.069,0.203,0.111,0.414,0.111h0.448c0.252,0,0.371-0.126,0.371-0.378V6.099
			c0-0.063,0.027-0.092,0.091-0.092h0.329c0.063,0,0.091,0.028,0.091,0.092v2.269c0,0.238,0.183,0.287,0.47,0.287h0.441
			C16.482,8.655,16.608,8.536,16.608,8.277z M14.325,4.901V4.488c0-0.063,0.028-0.098,0.091-0.098h0.344
			c0.063,0,0.098,0.035,0.098,0.098v0.413c0,0.063-0.035,0.092-0.098,0.092h-0.344C14.354,4.993,14.325,4.964,14.325,4.901z
			 M14.795,4.026V3.613c0-0.063,0.027-0.092,0.091-0.092h0.343c0.063,0,0.091,0.028,0.091,0.092v0.413
			c0,0.063-0.027,0.091-0.091,0.091h-0.343C14.822,4.117,14.795,4.088,14.795,4.026z M15.348,4.39h0.351
			c0.063,0,0.091,0.035,0.091,0.098v0.413c0,0.063-0.028,0.092-0.091,0.092h-0.351c-0.063,0-0.091-0.028-0.091-0.092V4.488
			C15.257,4.425,15.285,4.39,15.348,4.39z"/>
		<path fill="#FFFFFF" stroke="#FFFFFF" stroke-width="0.2" stroke-miterlimit="10" d="M19.12,8.655h0.343v0.512h-0.329
			c-0.546,0-0.89-0.343-0.89-0.89V4.207c0-0.063,0.028-0.098,0.091-0.098h0.33c0.063,0,0.091,0.035,0.091,0.098v4.069
			C18.756,8.536,18.868,8.655,19.12,8.655z"/>
		<path fill="#FFFFFF" stroke="#FFFFFF" stroke-width="0.2" stroke-miterlimit="10" d="M20.68,8.277v-2.36
			c0-0.063,0.028-0.098,0.092-0.098h0.329c0.063,0,0.091,0.035,0.091,0.098v2.451c0,0.084,0.021,0.141,0.063,0.183
			c0.069,0.07,0.21,0.104,0.413,0.104h0.322v0.512h-0.238c-0.351,0-0.603-0.098-0.777-0.273c-0.168,0.168-0.371,0.273-0.673,0.273
			h-1.016V8.655h1.022C20.562,8.648,20.68,8.536,20.68,8.277z M21.205,9.881v0.413c0,0.063-0.034,0.091-0.098,0.091h-0.343
			c-0.063,0-0.092-0.028-0.092-0.091V9.881c0-0.063,0.028-0.099,0.092-0.099h0.343C21.171,9.783,21.205,9.818,21.205,9.881z"/>
		<path fill="#FFFFFF" stroke="#FFFFFF" stroke-width="0.2" stroke-miterlimit="10" d="M25.491,6.119
			c0.287,0.287,0.434,0.638,0.434,1.044v0.525c0,0.406-0.146,0.756-0.434,1.043c-0.288,0.287-0.645,0.435-1.051,0.435h-2.627V8.655
			h1.148V7.163c0-0.406,0.147-0.757,0.435-1.044s0.638-0.434,1.044-0.434S25.203,5.832,25.491,6.119z M25.406,7.689V7.163
			c0-0.525-0.44-0.967-0.966-0.967s-0.96,0.441-0.96,0.967v1.491h0.96C24.966,8.655,25.406,8.214,25.406,7.689z"/>
		<path fill="#FFFFFF" stroke="#FFFFFF" stroke-width="0.2" stroke-miterlimit="10" d="M32.883,8.27V5.916
			c0-0.063,0.028-0.098,0.091-0.098h0.329c0.063,0,0.092,0.035,0.092,0.098v2.451c0,0.077,0.021,0.134,0.063,0.176
			c0.07,0.069,0.21,0.111,0.413,0.111h0.322v0.512h-0.238c-0.343,0-0.602-0.091-0.771-0.259c0-0.008-0.007-0.015-0.007-0.015
			c-0.021,0.021-0.027,0.035-0.027,0.035h0.007c-0.161,0.161-0.379,0.238-0.651,0.238h-2.444c-0.421,0-0.785-0.147-1.079-0.441
			c-0.294-0.301-0.441-0.651-0.441-1.071c0-0.287,0.077-0.561,0.231-0.813s0.357-0.441,0.616-0.574l0.141-0.077
			c0.014-0.007,0.027-0.007,0.042-0.007c0.042,0,0.069,0.021,0.091,0.049l0.14,0.294c0.015,0.021,0.021,0.028,0.021,0.049
			c0,0.028-0.021,0.057-0.056,0.077l-0.141,0.07c-0.301,0.154-0.574,0.504-0.574,0.932c0,0.546,0.455,1.001,1.009,1.001h2.444
			C32.764,8.655,32.883,8.529,32.883,8.27z M30.571,5.503V5.09c0-0.063,0.028-0.091,0.092-0.091h0.343
			c0.063,0,0.098,0.027,0.098,0.091v0.413c0,0.063-0.035,0.091-0.098,0.091h-0.343C30.6,5.594,30.571,5.567,30.571,5.503z
			 M31.034,4.628V4.214c0-0.063,0.034-0.091,0.098-0.091h0.343c0.063,0,0.092,0.028,0.092,0.091v0.414
			c0,0.063-0.028,0.091-0.092,0.091h-0.343C31.068,4.719,31.034,4.691,31.034,4.628z M31.594,4.999h0.351
			c0.063,0,0.091,0.027,0.091,0.091v0.413c0,0.063-0.028,0.091-0.091,0.091h-0.351c-0.063,0-0.091-0.027-0.091-0.091V5.09
			C31.503,5.027,31.531,4.999,31.594,4.999z"/>
		<path fill="#FFFFFF" stroke="#FFFFFF" stroke-width="0.2" stroke-miterlimit="10" d="M35.442,8.277v-2.36
			c0-0.063,0.035-0.098,0.099-0.098h0.322c0.063,0,0.098,0.035,0.098,0.098V8.27c0,0.546-0.351,0.896-0.896,0.896h-1.051V8.655
			h1.051C35.331,8.648,35.442,8.543,35.442,8.277z M35.499,9.881v0.413c0,0.063-0.035,0.091-0.092,0.091h-0.343
			c-0.063,0-0.098-0.028-0.098-0.091V9.881c0-0.063,0.035-0.099,0.098-0.099h0.343C35.464,9.783,35.499,9.818,35.499,9.881z"/>
	</g>
</g>
<path fill-rule="evenodd" clip-rule="evenodd" fill="#FFFFFF" d="M44.3,5.55h6.496v5.231H44.3V5.55z M51.736,9.17h0.519v0.508
	h-0.519V9.17z M51.433,6.555h1.124v1.102h-1.124V6.555z M51.736,7.863h0.519v0.508h-0.519V7.863z M51.736,8.511h0.519V9.03h-0.519
	V8.511z M44.04,5.322h7.037v5.685H44.04V5.322z M43.295,4.674h0.832h2.53c0.248,0,0.313-0.184,0.151-0.378l-0.778-0.962
	c-0.14-0.184-0.281-0.324-0.303-0.324c0,0-0.011,0-0.022,0c-0.227,0-0.411-0.173-0.411-0.389c0-0.227,0.184-0.4,0.411-0.4
	c0.217,0,0.389,0.173,0.389,0.4c0,0.021,0,0.043,0,0.065c-0.01,0.032,0.097,0.216,0.249,0.4l0.983,1.178
	c0.162,0.184,0.314,0.335,0.357,0.335c0.033,0,0.195-0.152,0.346-0.335l0.983-1.178c0.162-0.184,0.271-0.368,0.26-0.4
	c-0.011-0.022-0.011-0.043-0.011-0.065c0-0.227,0.184-0.4,0.411-0.4c0.216,0,0.389,0.173,0.389,0.4c0,0.216-0.173,0.4-0.389,0.4
	c-0.011,0-0.022,0-0.043,0c-0.011-0.011-0.14,0.151-0.303,0.335l-0.778,0.94c-0.151,0.195-0.076,0.378,0.162,0.378h3.362h0.854
	v0.724v5.545v0.713h-0.854h-7.945h-0.832v-0.713V5.398V4.674z"/>
</svg>
