<?xml version="1.0" encoding="utf-8"?>
<!-- Generator: Adobe Illustrator 17.0.0, SVG Export Plug-In . SVG Version: 6.00 Build 0)  -->
<!DOCTYPE svg PUBLIC "-//W3C//DTD SVG 1.1//EN" "http://www.w3.org/Graphics/SVG/1.1/DTD/svg11.dtd">
<svg version="1.1" id="Layer_1" xmlns="http://www.w3.org/2000/svg" xmlns:xlink="http://www.w3.org/1999/xlink" x="0px" y="0px"
	 width="60.167px" height="14.667px" viewBox="0 0 60.167 14.667" enable-background="new 0 0 60.167 14.667" xml:space="preserve">
<path fill="#3D414A" d="M60.167,7.333c0,4.05-3.283,7.333-7.333,7.333h-45.5C3.283,14.667,0,11.383,0,7.333l0,0
	C0,3.283,3.283,0,7.333,0h45.5C56.883,0,60.167,3.283,60.167,7.333L60.167,7.333z"/>
<g>
	<g>
		<path fill="#FFFFFF" stroke="#FFFFFF" stroke-width="0.2" stroke-miterlimit="10" d="M12.116,8.655h1.766
			c0.063,0,0.091,0.028,0.091,0.092v0.329c0,0.063-0.028,0.091-0.091,0.091h-2.851c-0.099,0-0.231,0.063-0.393,0.189
			c-0.084,0.111-0.126,0.252-0.126,0.42s0.049,0.315,0.147,0.435c0.098,0.119,0.245,0.182,0.462,0.182h0.609
			c0.063,0,0.098,0.028,0.098,0.091v0.329c0,0.063-0.035,0.092-0.098,0.092h-0.609c-0.309,0-0.567-0.112-0.792-0.329
			C10.113,10.35,10,10.084,10,9.776c0-0.329,0.099-0.596,0.295-0.806c0.259-0.21,0.504-0.315,0.735-0.315h0.182
			c-0.14-0.224-0.203-0.469-0.203-0.728V7.163c0-0.406,0.147-0.764,0.435-1.051s0.637-0.427,1.043-0.427
			c0.309,0,0.589,0.091,0.841,0.266s0.413,0.393,0.483,0.658l0.042,0.154c0,0.014,0.007,0.028,0.007,0.042
			c0,0.042-0.021,0.063-0.07,0.077l-0.321,0.084c-0.015,0.007-0.021,0.007-0.035,0.007c-0.042,0-0.063-0.027-0.077-0.077
			l-0.042-0.153c-0.084-0.295-0.455-0.547-0.827-0.547c-0.524,0-0.966,0.441-0.966,0.967v0.764
			C11.521,8.305,11.759,8.655,12.116,8.655z"/>
		<path fill="#FFFFFF" stroke="#FFFFFF" stroke-width="0.2" stroke-miterlimit="10" d="M15.965,8.655h0.343v0.512h-0.329
			c-0.546,0-0.89-0.343-0.89-0.89V4.207c0-0.063,0.028-0.098,0.092-0.098h0.329c0.063,0,0.091,0.035,0.091,0.098v4.069
			C15.601,8.536,15.713,8.655,15.965,8.655z"/>
		<path fill="#FFFFFF" stroke="#FFFFFF" stroke-width="0.2" stroke-miterlimit="10" d="M20.587,8.655h0.524v0.512h-0.427
			c-0.364,0-0.665-0.147-0.841-0.406c-0.287,0.273-0.63,0.406-1.016,0.406h-2.696V8.655h1.219V7.163
			c0-0.406,0.147-0.764,0.435-1.051s0.637-0.435,1.043-0.435s0.757,0.147,1.044,0.435s0.435,0.645,0.435,1.051v0.525
			c0,0.245-0.057,0.469-0.168,0.687C20.188,8.564,20.356,8.655,20.587,8.655z M17.863,7.163v1.491h0.966
			c0.533,0,0.967-0.434,0.967-0.966V7.163c0-0.532-0.434-0.967-0.967-0.967C18.296,6.197,17.863,6.638,17.863,7.163z"/>
		<path fill="#FFFFFF" stroke="#FFFFFF" stroke-width="0.2" stroke-miterlimit="10" d="M22.517,8.27V5.916
			c0-0.063,0.035-0.098,0.091-0.098h0.329c0.063,0,0.092,0.035,0.092,0.098v2.451c0,0.077,0.021,0.134,0.063,0.176
			c0.07,0.069,0.21,0.111,0.413,0.111h0.329v0.512h-0.237c-0.344,0-0.609-0.091-0.777-0.259c0-0.008-0.008-0.008-0.008-0.015
			l-0.027,0.035c-0.161,0.161-0.371,0.238-0.645,0.238h-1.205V8.655h1.219C22.405,8.655,22.517,8.522,22.517,8.27z M22.034,4.901
			V4.488c0-0.063,0.035-0.098,0.099-0.098h0.35c0.063,0,0.092,0.035,0.092,0.098v0.413c0,0.063-0.028,0.092-0.092,0.092h-0.35
			C22.069,4.993,22.034,4.964,22.034,4.901z M22.972,4.901V4.488c0-0.063,0.028-0.098,0.092-0.098h0.343
			c0.063,0,0.098,0.035,0.098,0.098v0.413c0,0.063-0.034,0.092-0.098,0.092h-0.343C23,4.993,22.972,4.964,22.972,4.901z"/>
		<path fill="#FFFFFF" stroke="#FFFFFF" stroke-width="0.2" stroke-miterlimit="10" d="M28.538,8.277V5.91
			c0-0.063,0.028-0.091,0.091-0.091h0.329c0.063,0,0.092,0.028,0.092,0.091v2.367c0,0.547-0.351,0.89-0.896,0.89h-0.351
			c-0.343,0-0.603-0.098-0.777-0.273c0,0.007-0.014,0.021-0.028,0.035c-0.161,0.161-0.378,0.238-0.645,0.238h-0.35
			c-0.344,0-0.603-0.091-0.777-0.267l-0.007-0.007c-0.008,0.007-0.015,0.021-0.021,0.035c-0.161,0.161-0.378,0.238-0.651,0.238
			h-0.89V8.655h0.896h0.007c0.245-0.007,0.364-0.126,0.364-0.378V5.91c0-0.063,0.035-0.091,0.099-0.091h0.322
			c0.063,0,0.091,0.028,0.091,0.091v2.458c0,0.077,0.021,0.134,0.063,0.176c0.07,0.069,0.203,0.111,0.414,0.111h0.448
			c0.252,0,0.371-0.126,0.371-0.378V6.099c0-0.063,0.035-0.092,0.091-0.092h0.329c0.063,0,0.091,0.028,0.091,0.092v2.269
			c0,0.077,0.021,0.134,0.063,0.176c0.07,0.069,0.203,0.111,0.406,0.111h0.441C28.419,8.655,28.538,8.536,28.538,8.277z"/>
		<path fill="#FFFFFF" stroke="#FFFFFF" stroke-width="0.2" stroke-miterlimit="10" d="M33.775,8.655h0.322v0.512h-0.238
			c-0.309,0-0.554-0.098-0.735-0.28c-0.021-0.021-0.05-0.049-0.084-0.098c-0.218,0.252-0.532,0.378-0.938,0.378h-2.073
			c-0.063,0-0.092-0.028-0.092-0.091V8.746c0-0.063,0.028-0.092,0.092-0.092h2.073c0.469,0,0.679-0.21,0.679-0.679V4.207
			c0-0.063,0.028-0.098,0.091-0.098h0.33c0.063,0,0.091,0.035,0.091,0.098V8.27C33.291,8.529,33.508,8.655,33.775,8.655z
			 M31.519,4.768v3.215c0,0.063-0.027,0.091-0.091,0.091h-0.329c-0.063,0-0.091-0.028-0.091-0.091V4.768
			c0-0.063,0.027-0.098,0.091-0.098h0.329C31.492,4.67,31.519,4.705,31.519,4.768z"/>
		<path fill="#FFFFFF" stroke="#FFFFFF" stroke-width="0.2" stroke-miterlimit="10" d="M35.109,8.277V4.207
			c0-0.063,0.028-0.098,0.092-0.098h0.329c0.063,0,0.091,0.035,0.091,0.098v4.069c0,0.547-0.351,0.89-0.89,0.89h-0.813V8.655h0.813
			h0.007C34.997,8.648,35.109,8.529,35.109,8.277z"/>
	</g>
</g>
<g>
	<g>
		<path fill="#FFFFFF" d="M46.992,7.551v4.097c0.097,0.014,0.195,0.021,0.296,0.021h0.296V7.53h-0.296
			C47.187,7.53,47.089,7.537,46.992,7.551z M52.314,7.53v4.139h0.296c0.1,0,0.199-0.007,0.296-0.021V7.551
			C52.809,7.537,52.71,7.53,52.61,7.53H52.314z M54.679,6.938c0-2.613-2.118-4.73-4.73-4.73c-2.613,0-4.731,2.118-4.731,4.73
			c0,0.568,0.1,1.112,0.283,1.616c-0.18,0.307-0.283,0.664-0.283,1.045c0,0.826,0.483,1.538,1.183,1.87V7.729
			c-0.186,0.088-0.356,0.204-0.507,0.341c-0.055-0.27-0.084-0.55-0.084-0.836c0-2.286,1.853-4.139,4.139-4.139
			c2.286,0,4.139,1.853,4.139,4.139c0,0.286-0.029,0.566-0.084,0.836c-0.15-0.137-0.321-0.253-0.507-0.341v3.741
			c0.699-0.332,1.183-1.045,1.183-1.87c0-0.381-0.103-0.738-0.283-1.045C54.579,8.05,54.679,7.506,54.679,6.938z"/>
	</g>
</g>
</svg>
