<?xml version="1.0" encoding="utf-8"?>
<!-- Generator: Adobe Illustrator 17.0.0, SVG Export Plug-In . SVG Version: 6.00 Build 0)  -->
<!DOCTYPE svg PUBLIC "-//W3C//DTD SVG 1.1//EN" "http://www.w3.org/Graphics/SVG/1.1/DTD/svg11.dtd">
<svg version="1.1" id="Layer_1" xmlns="http://www.w3.org/2000/svg" xmlns:xlink="http://www.w3.org/1999/xlink" x="0px" y="0px"
	 width="60.167px" height="14.667px" viewBox="0 0 60.167 14.667" enable-background="new 0 0 60.167 14.667" xml:space="preserve">
<path fill="#3D414A" d="M60.167,7.333c0,4.05-3.283,7.333-7.333,7.333h-45.5C3.283,14.667,0,11.383,0,7.333l0,0
	C0,3.283,3.283,0,7.333,0h45.5C56.883,0,60.167,3.283,60.167,7.333L60.167,7.333z"/>
<g>
	<g>
		<path fill="#FFFFFF" stroke="#FFFFFF" stroke-width="0.2" stroke-miterlimit="10" d="M7.564,6.908
			c0.228,0.228,0.339,0.506,0.339,0.827v0.417c0,0.322-0.111,0.6-0.339,0.827C7.337,9.207,7.059,9.324,6.737,9.324
			c-0.322,0-0.601-0.116-0.828-0.345C5.682,8.751,5.565,8.474,5.565,8.152V7.735c0-0.321,0.116-0.6,0.344-0.827
			s0.506-0.345,0.828-0.345C7.059,6.563,7.337,6.68,7.564,6.908z M7.498,8.152V7.735c0-0.416-0.345-0.767-0.761-0.767
			c-0.417,0-0.767,0.345-0.767,0.767v0.417c0,0.416,0.35,0.767,0.767,0.767C7.153,8.918,7.498,8.568,7.498,8.152z M6.153,5.941
			V5.636c0-0.051,0.022-0.072,0.072-0.072h0.278c0.05,0,0.072,0.021,0.072,0.072v0.305c0,0.051-0.022,0.072-0.072,0.072H6.226
			C6.176,6.013,6.153,5.992,6.153,5.941z M6.893,5.941V5.636c0-0.051,0.027-0.072,0.078-0.072h0.271c0.05,0,0.072,0.021,0.072,0.072
			v0.305c0,0.051-0.022,0.072-0.072,0.072H6.971C6.92,6.013,6.893,5.992,6.893,5.941z"/>
		<path fill="#FFFFFF" stroke="#FFFFFF" stroke-width="0.2" stroke-miterlimit="10" d="M9.066,9.535V6.752
			c0-0.05,0.027-0.078,0.078-0.078h0.255c0.05,0,0.078,0.028,0.078,0.078v2.166h0.844v0.405H9.478v0.211
			c0,0.589-0.361,0.944-0.95,0.944H8.25c-0.05,0-0.072-0.022-0.072-0.072v-0.261c0-0.05,0.022-0.072,0.072-0.072h0.277
			C8.899,10.074,9.066,9.907,9.066,9.535z"/>
		<path fill="#FFFFFF" stroke="#FFFFFF" stroke-width="0.2" stroke-miterlimit="10" d="M13.922,8.618V6.741
			c0-0.05,0.022-0.072,0.072-0.072h0.262c0.05,0,0.072,0.022,0.072,0.072v1.878c0,0.428-0.284,0.705-0.711,0.705h-0.278
			c-0.267,0-0.472-0.066-0.61-0.205l-0.006-0.012c-0.006,0.012-0.017,0.022-0.022,0.028c-0.128,0.122-0.3,0.188-0.517,0.188h-0.272
			c-0.271,0-0.478-0.066-0.616-0.205l-0.006-0.012c-0.122,0.139-0.3,0.217-0.533,0.217h-0.705V8.918h0.711h0.006
			c0.2-0.006,0.289-0.095,0.289-0.3V6.741c0-0.05,0.021-0.072,0.072-0.072h0.255c0.05,0,0.078,0.022,0.078,0.072v1.95
			c0,0.061,0.017,0.105,0.05,0.139c0.05,0.056,0.161,0.089,0.328,0.089h0.355c0.199,0,0.294-0.101,0.294-0.3V6.891
			c0-0.05,0.022-0.072,0.072-0.072h0.261c0.05,0,0.072,0.022,0.072,0.072v1.8c0,0.188,0.145,0.228,0.372,0.228h0.351
			C13.822,8.918,13.922,8.824,13.922,8.618z M12.111,5.941V5.614c0-0.05,0.022-0.078,0.072-0.078h0.272
			c0.05,0,0.077,0.028,0.077,0.078v0.327c0,0.051-0.027,0.072-0.077,0.072h-0.272C12.134,6.013,12.111,5.992,12.111,5.941z
			 M12.483,5.246V4.919c0-0.05,0.022-0.072,0.072-0.072h0.272c0.05,0,0.072,0.022,0.072,0.072v0.327
			c0,0.051-0.022,0.072-0.072,0.072h-0.272C12.506,5.319,12.483,5.297,12.483,5.246z M12.923,5.535H13.2
			c0.05,0,0.072,0.028,0.072,0.078v0.327c0,0.051-0.022,0.072-0.072,0.072h-0.277c-0.051,0-0.072-0.021-0.072-0.072V5.614
			C12.851,5.564,12.872,5.535,12.923,5.535z"/>
		<path fill="#FFFFFF" stroke="#FFFFFF" stroke-width="0.2" stroke-miterlimit="10" d="M15.92,8.918h0.272v0.405h-0.262
			c-0.433,0-0.705-0.272-0.705-0.705V5.391c0-0.05,0.022-0.077,0.072-0.077h0.261c0.051,0,0.072,0.027,0.072,0.077v3.228
			C15.631,8.824,15.72,8.918,15.92,8.918z"/>
		<path fill="#FFFFFF" stroke="#FFFFFF" stroke-width="0.2" stroke-miterlimit="10" d="M17.159,8.618V6.746
			c0-0.05,0.022-0.078,0.072-0.078h0.261c0.05,0,0.072,0.028,0.072,0.078v1.944c0,0.066,0.017,0.11,0.05,0.145
			c0.056,0.055,0.167,0.083,0.328,0.083h0.255v0.405h-0.188c-0.277,0-0.478-0.078-0.616-0.217c-0.134,0.134-0.295,0.217-0.533,0.217
			h-0.806V8.918h0.812C17.064,8.912,17.159,8.824,17.159,8.618z M17.576,9.89v0.328c0,0.05-0.028,0.072-0.078,0.072h-0.272
			c-0.05,0-0.072-0.022-0.072-0.072V9.89c0-0.05,0.022-0.078,0.072-0.078h0.272C17.548,9.812,17.576,9.84,17.576,9.89z"/>
		<path fill="#FFFFFF" stroke="#FFFFFF" stroke-width="0.2" stroke-miterlimit="10" d="M20.976,6.908
			c0.228,0.228,0.345,0.506,0.345,0.827v0.417c0,0.322-0.117,0.6-0.345,0.827c-0.228,0.229-0.511,0.345-0.833,0.345H18.06V8.918
			h0.911V7.735c0-0.321,0.116-0.6,0.344-0.827c0.229-0.228,0.506-0.345,0.828-0.345S20.748,6.68,20.976,6.908z M20.909,8.152V7.735
			c0-0.416-0.351-0.767-0.767-0.767c-0.417,0-0.761,0.351-0.761,0.767v1.184h0.761C20.559,8.918,20.909,8.568,20.909,8.152z"/>
		<path fill="#FFFFFF" stroke="#FFFFFF" stroke-width="0.2" stroke-miterlimit="10" d="M25.456,6.908
			c0.228,0.228,0.339,0.506,0.339,0.827v0.417c0,0.322-0.111,0.6-0.339,0.827c-0.228,0.229-0.505,0.345-0.827,0.345
			s-0.601-0.116-0.828-0.345c-0.228-0.228-0.344-0.505-0.344-0.827V7.735c0-0.321,0.116-0.6,0.344-0.827s0.506-0.345,0.828-0.345
			S25.229,6.68,25.456,6.908z M25.39,8.152V7.735c0-0.416-0.345-0.767-0.761-0.767c-0.417,0-0.767,0.345-0.767,0.767v0.417
			c0,0.416,0.35,0.767,0.767,0.767C25.045,8.918,25.39,8.568,25.39,8.152z M24.045,5.941V5.636c0-0.051,0.022-0.072,0.072-0.072
			h0.278c0.05,0,0.072,0.021,0.072,0.072v0.305c0,0.051-0.022,0.072-0.072,0.072h-0.278C24.067,6.013,24.045,5.992,24.045,5.941z
			 M24.784,5.941V5.636c0-0.051,0.027-0.072,0.077-0.072h0.272c0.05,0,0.072,0.021,0.072,0.072v0.305
			c0,0.051-0.022,0.072-0.072,0.072h-0.272C24.812,6.013,24.784,5.992,24.784,5.941z"/>
		<path fill="#FFFFFF" stroke="#FFFFFF" stroke-width="0.2" stroke-miterlimit="10" d="M29.119,8.918h0.255v0.405h-0.188
			c-0.244,0-0.434-0.078-0.583-0.223c-0.034-0.038-0.051-0.055-0.051-0.055c-0.161,0.188-0.411,0.277-0.755,0.277h-1.194
			c-0.05,0-0.072-0.022-0.072-0.072V8.991c0-0.05,0.022-0.072,0.072-0.072h1.194c0.378,0,0.539-0.105,0.539-0.467V7.563
			c0-0.322-0.278-0.595-0.601-0.595c-0.233,0-0.411,0.045-0.527,0.128l-0.105,0.072C27.086,7.18,27.074,7.18,27.058,7.18h-0.011
			c-0.022,0-0.033-0.012-0.044-0.028l-0.15-0.211c-0.011-0.011-0.017-0.027-0.017-0.044V6.885c0.006-0.022,0.017-0.039,0.033-0.05
			l0.1-0.072c0.189-0.133,0.444-0.2,0.767-0.2c0.272,0,0.517,0.101,0.711,0.295s0.295,0.428,0.295,0.705v1.05
			C28.741,8.818,28.907,8.918,29.119,8.918z"/>
		<path fill="#FFFFFF" stroke="#FFFFFF" stroke-width="0.2" stroke-miterlimit="10" d="M32.87,6.719
			c0.238,0.238,0.355,0.521,0.355,0.86v0.527c0,0.339-0.117,0.622-0.355,0.861c-0.239,0.239-0.528,0.355-0.861,0.355h-2.771V8.918
			h1.061c-0.094-0.145-0.144-0.306-0.144-0.478V7.985c0-0.461,0.338-0.821,0.738-0.899c0.172-0.395,0.583-0.728,1.116-0.728
			C32.342,6.358,32.631,6.48,32.87,6.719z M31.037,8.918h0.539V7.985c0-0.277-0.229-0.511-0.506-0.511s-0.506,0.233-0.506,0.511
			v0.456C30.564,8.701,30.776,8.918,31.037,8.918z M32.82,8.107V7.579c0-0.438-0.373-0.811-0.812-0.811
			c-0.277,0-0.5,0.116-0.661,0.344c0.345,0.111,0.634,0.439,0.634,0.872v0.934h0.027C32.453,8.918,32.82,8.551,32.82,8.107z"/>
		<path fill="#FFFFFF" stroke="#FFFFFF" stroke-width="0.2" stroke-miterlimit="10" d="M34.816,8.918h0.272v0.405h-0.262
			c-0.433,0-0.705-0.272-0.705-0.705V5.391c0-0.05,0.022-0.077,0.072-0.077h0.261c0.051,0,0.072,0.027,0.072,0.077v3.228
			C34.527,8.824,34.616,8.918,34.816,8.918z"/>
		<path fill="#FFFFFF" stroke="#FFFFFF" stroke-width="0.2" stroke-miterlimit="10" d="M39.6,8.918h0.261v0.405h-0.188
			c-0.245,0-0.434-0.078-0.584-0.223c-0.005-0.005-0.005-0.005-0.011-0.017c-0.111,0.156-0.322,0.239-0.562,0.239h-0.277
			c-0.277,0-0.478-0.078-0.616-0.217c-0.006,0.006-0.017,0.022-0.022,0.028c-0.128,0.127-0.294,0.188-0.511,0.188h-0.278
			c-0.271,0-0.482-0.072-0.616-0.205c-0.006-0.006-0.006-0.012-0.006-0.012c-0.122,0.139-0.3,0.217-0.533,0.217H34.95V8.918h0.717
			c0.2,0,0.289-0.101,0.289-0.306V6.746c0-0.05,0.021-0.078,0.071-0.078h0.262c0.05,0,0.077,0.028,0.077,0.078v1.944
			c0,0.061,0.012,0.105,0.045,0.139c0.056,0.056,0.167,0.089,0.327,0.089h0.355c0.2,0,0.295-0.101,0.295-0.306V6.891
			c0-0.05,0.022-0.072,0.072-0.072h0.261c0.05,0,0.072,0.022,0.072,0.072v1.8c0,0.061,0.011,0.105,0.045,0.139
			c0.061,0.056,0.172,0.089,0.333,0.089h0.35c0.206,0,0.3-0.101,0.3-0.306V6.746c0-0.05,0.022-0.078,0.072-0.078h0.262
			c0.05,0,0.071,0.028,0.071,0.078v1.866C39.227,8.818,39.394,8.918,39.6,8.918z M37.011,5.941V5.614
			c0-0.05,0.022-0.078,0.072-0.078h0.272c0.05,0,0.077,0.028,0.077,0.078v0.327c0,0.051-0.027,0.072-0.077,0.072h-0.272
			C37.033,6.013,37.011,5.992,37.011,5.941z M37.383,5.246V4.919c0-0.05,0.022-0.072,0.072-0.072h0.272
			c0.05,0,0.072,0.022,0.072,0.072v0.327c0,0.051-0.022,0.072-0.072,0.072h-0.272C37.405,5.319,37.383,5.297,37.383,5.246z
			 M37.822,5.535H38.1c0.05,0,0.078,0.028,0.078,0.078v0.327c0,0.051-0.028,0.072-0.078,0.072h-0.277
			c-0.051,0-0.072-0.021-0.072-0.072V5.614C37.75,5.564,37.771,5.535,37.822,5.535z"/>
		<path fill="#FFFFFF" stroke="#FFFFFF" stroke-width="0.2" stroke-miterlimit="10" d="M42.641,6.908
			c0.228,0.228,0.345,0.506,0.345,0.827v0.417c0,0.322-0.117,0.6-0.345,0.827c-0.228,0.229-0.511,0.345-0.833,0.345h-2.083V8.918
			h0.911V7.735c0-0.321,0.116-0.6,0.345-0.827c0.228-0.228,0.505-0.345,0.827-0.345S42.413,6.68,42.641,6.908z M42.574,8.152V7.735
			c0-0.416-0.35-0.767-0.767-0.767s-0.761,0.351-0.761,0.767v1.184h0.761C42.225,8.918,42.574,8.568,42.574,8.152z"/>
	</g>
</g>
<path fill-rule="evenodd" clip-rule="evenodd" fill="#FFFFFF" d="M47.303,2.782C47.375,2.74,47.458,2.73,47.53,2.73
	c0.083,0,0.176,0.01,0.238,0.051l5.688,4.126c0.145,0.093,0.238,0.259,0.238,0.424c0,0.165-0.094,0.321-0.238,0.414l-5.688,4.137
	c-0.145,0.072-0.321,0.072-0.465,0c-0.145-0.093-0.238-0.259-0.238-0.424V3.196C47.065,3.03,47.158,2.875,47.303,2.782L47.303,2.782
	z"/>
</svg>
