<?xml version="1.0" encoding="utf-8"?>
<!-- Generator: Adobe Illustrator 17.0.0, SVG Export Plug-In . SVG Version: 6.00 Build 0)  -->
<!DOCTYPE svg PUBLIC "-//W3C//DTD SVG 1.1//EN" "http://www.w3.org/Graphics/SVG/1.1/DTD/svg11.dtd">
<svg version="1.1" id="Layer_1" xmlns="http://www.w3.org/2000/svg" xmlns:xlink="http://www.w3.org/1999/xlink" x="0px" y="0px"
	 width="60.167px" height="14.667px" viewBox="0 0 60.167 14.667" enable-background="new 0 0 60.167 14.667" xml:space="preserve">
<path fill="#3D414A" d="M60.167,7.333c0,4.05-3.283,7.333-7.333,7.333h-45.5C3.283,14.667,0,11.383,0,7.333l0,0
	C0,3.283,3.283,0,7.333,0h45.5C56.883,0,60.167,3.283,60.167,7.333L60.167,7.333z"/>
<g>
	<g>
		<path fill="#FFFFFF" stroke="#FFFFFF" stroke-width="0.2" stroke-miterlimit="10" d="M28.976,9.888
			c0.272,0,0.511-0.099,0.707-0.295c0.196-0.195,0.294-0.44,0.294-0.714V4.207c0-0.063,0.028-0.098,0.092-0.098h0.321
			c0.063,0,0.099,0.035,0.099,0.098v4.447h1.043v0.512H30.46c-0.07,0.351-0.245,0.645-0.519,0.875
			c-0.279,0.238-0.602,0.357-0.966,0.357c-0.421,0-0.785-0.154-1.079-0.448s-0.441-0.651-0.441-1.071V7.226
			c0-0.063,0.028-0.091,0.092-0.091h0.329c0.063,0,0.091,0.028,0.091,0.091v1.653C27.967,9.433,28.422,9.888,28.976,9.888z"/>
		<path fill="#FFFFFF" stroke="#FFFFFF" stroke-width="0.2" stroke-miterlimit="10" d="M32.678,8.27V5.916
			c0-0.063,0.035-0.098,0.099-0.098h0.322c0.063,0,0.098,0.035,0.098,0.098v2.451c0,0.077,0.014,0.134,0.056,0.176
			c0.07,0.069,0.211,0.111,0.414,0.111h0.329v0.512h-0.238c-0.344,0-0.603-0.091-0.771-0.259C32.98,8.9,32.973,8.9,32.973,8.893
			c0,0.007-0.015,0.028-0.021,0.035C32.79,9.089,32.574,9.166,32.3,9.166h-1.051V8.655h1.064C32.567,8.655,32.678,8.529,32.678,8.27
			z M32.412,9.93v0.406c0,0.063-0.028,0.098-0.091,0.098h-0.351c-0.063,0-0.091-0.035-0.091-0.098V9.93
			c0-0.063,0.027-0.099,0.091-0.099h0.351C32.384,9.831,32.412,9.867,32.412,9.93z M33.351,9.93v0.406
			c0,0.063-0.035,0.098-0.099,0.098H32.91c-0.063,0-0.098-0.035-0.098-0.098V9.93c0-0.063,0.034-0.099,0.098-0.099h0.343
			C33.316,9.831,33.351,9.867,33.351,9.93z"/>
		<path fill="#FFFFFF" stroke="#FFFFFF" stroke-width="0.2" stroke-miterlimit="10" d="M38.273,8.655h0.524v0.512H38.37
			c-0.364,0-0.665-0.147-0.841-0.406c-0.287,0.273-0.63,0.406-1.016,0.406h-2.696V8.655h1.219V7.163
			c0-0.406,0.147-0.764,0.435-1.051s0.637-0.435,1.043-0.435s0.757,0.147,1.044,0.435s0.435,0.645,0.435,1.051v0.525
			c0,0.245-0.057,0.469-0.168,0.687C37.873,8.564,38.041,8.655,38.273,8.655z M35.548,7.163v1.491h0.966
			c0.533,0,0.967-0.434,0.967-0.966V7.163c0-0.532-0.434-0.967-0.967-0.967C35.982,6.197,35.548,6.638,35.548,7.163z"/>
		<path fill="#FFFFFF" stroke="#FFFFFF" stroke-width="0.2" stroke-miterlimit="10" d="M42.254,7.976V7.303
			c0-0.308-0.104-0.56-0.321-0.777c-0.218-0.217-0.47-0.329-0.777-0.329c-0.505,0-0.883,0.175-1.128,0.525l-0.091,0.133
			c-0.021,0.028-0.05,0.042-0.077,0.042c-0.021,0-0.035-0.007-0.057-0.021l-0.266-0.189c-0.021-0.014-0.028-0.035-0.035-0.063V6.61
			c0-0.021,0.007-0.042,0.014-0.056l0.092-0.133c0.356-0.49,0.875-0.735,1.548-0.735c0.447,0,0.826,0.161,1.142,0.476
			c0.314,0.315,0.476,0.693,0.476,1.142v1.064c0,0.077,0.015,0.134,0.057,0.176c0.069,0.069,0.21,0.111,0.413,0.111h0.329v0.512
			h-0.238c-0.399,0-0.68-0.112-0.848-0.351c-0.21,0.238-0.511,0.351-0.903,0.351h-2.963V8.655h2.963
			C42.052,8.655,42.254,8.445,42.254,7.976z"/>
		<path fill="#FFFFFF" stroke="#FFFFFF" stroke-width="0.2" stroke-miterlimit="10" d="M44.977,8.277v-2.36
			c0-0.063,0.035-0.098,0.091-0.098h0.329c0.057,0,0.092,0.035,0.092,0.098v2.36c0,0.547-0.351,0.89-0.89,0.89h-1.205V8.655h1.212
			h0.007C44.865,8.648,44.977,8.529,44.977,8.277z M44.5,4.901V4.488c0-0.063,0.035-0.098,0.099-0.098h0.336
			c0.063,0,0.098,0.035,0.098,0.098v0.413c0,0.063-0.034,0.092-0.098,0.092h-0.336C44.535,4.993,44.5,4.964,44.5,4.901z
			 M45.964,4.488v0.413c0,0.063-0.027,0.092-0.091,0.092h-0.343c-0.063,0-0.099-0.028-0.099-0.092V4.488
			c0-0.063,0.035-0.098,0.099-0.098h0.343C45.937,4.39,45.964,4.425,45.964,4.488z"/>
	</g>
</g>
<path fill="#FFFFFF" d="M15.184,9.361v1.236c0,0.328-0.266,0.594-0.594,0.594H8.743c-0.328,0-0.594-0.266-0.594-0.594V9.361
	c0-0.328,0.266-0.594,0.594-0.594c0.328,0,0.594,0.266,0.594,0.594v0.642h4.661V9.361c0-0.328,0.266-0.594,0.594-0.594
	C14.918,8.768,15.184,9.034,15.184,9.361z M9.348,7.268l2.254,1.458c0.039,0.025,0.09,0.025,0.129,0l2.254-1.458
	c0.099-0.064,0.054-0.218-0.064-0.218h-0.662c-0.066,0-0.119-0.053-0.119-0.119V3.595c0-0.066-0.053-0.119-0.119-0.119h-2.71
	c-0.066,0-0.119,0.053-0.119,0.119v3.336c0,0.066-0.053,0.119-0.119,0.119H9.412C9.294,7.049,9.249,7.204,9.348,7.268z"/>
</svg>
