<svg xmlns="http://www.w3.org/2000/svg" width="50.845" height="50.845" viewBox="0 0 50.845 50.845"><path fill="#3B3F48" d="M21.808 24.655h10.32c.092.546.171 1.092.171 1.813 0 6.241-4.184 10.675-10.491 10.675a10.92 10.92 0 0 1-10.926-10.927 10.92 10.92 0 0 1 10.926-10.927c2.952 0 5.418 1.074 7.322 2.855l-2.966 2.858c-.811-.781-2.231-1.685-4.356-1.685-3.73 0-6.772 3.088-6.772 6.898s3.042 6.898 6.772 6.898c4.327 0 5.949-3.105 6.198-4.713h-6.198v-3.745zm23.419 0h-3.124v-3.121h-3.122v3.121h-3.122v3.121h3.122v3.121h3.122v-3.121h3.124v-3.121z"/><circle fill="none" stroke="#3B3F48" stroke-width="3" stroke-miterlimit="10" cx="25.422" cy="25.422" r="23.922"/></svg>