<svg xmlns="http://www.w3.org/2000/svg" width="50.845" height="50.845" viewBox="0 0 50.845 50.845"><path fill="#3B3F48" d="M33.047 39.617H17.796a6.318 6.318 0 0 1-6.31-6.311V18.058a6.318 6.318 0 0 1 6.31-6.311h15.251a6.32 6.32 0 0 1 6.311 6.311v15.248a6.319 6.319 0 0 1-6.311 6.311zM17.796 14.523a3.54 3.54 0 0 0-3.536 3.535v15.248a3.54 3.54 0 0 0 3.536 3.538h15.251a3.54 3.54 0 0 0 3.534-3.538V18.058a3.538 3.538 0 0 0-3.534-3.535H17.796zm7.627 18.444c-3.972 0-7.204-3.232-7.204-7.203 0-3.973 3.232-7.204 7.204-7.204 3.971 0 7.203 3.231 7.203 7.204 0 3.972-3.232 7.203-7.203 7.203zm0-11.632a4.434 4.434 0 0 0-4.43 4.43 4.432 4.432 0 0 0 4.43 4.429 4.432 4.432 0 0 0 4.429-4.429 4.435 4.435 0 0 0-4.429-4.43zm7.477-4.546a1.826 1.826 0 0 0-1.827 1.83 1.828 1.828 0 0 0 3.657 0 1.828 1.828 0 0 0-1.83-1.83z"/><circle fill="none" stroke="#3B3F48" stroke-width="3" stroke-miterlimit="10" cx="25.422" cy="25.422" r="23.922"/></svg>