<svg xmlns="http://www.w3.org/2000/svg" width="74.656" height="74.669" viewBox="0 0 74.656 74.669"><g fill="#FFF"><path d="M37.191 10.3c-.407-.418-.873-.896-1.467-1.307a155.94 155.94 0 0 1-.906-.682c-.339-.197-.689-.401-1.051-.608-.713-.448-1.546-.753-2.397-1.103-.881-.244-1.781-.598-2.745-.71-.951-.207-1.941-.217-2.925-.275-.984.058-1.973.071-2.924.278-.964.115-1.865.465-2.746.706-.85.353-1.682.659-2.396 1.107-.362.207-.719.401-1.051.604l-.906.686c-.59.404-1.067.893-1.479 1.31a6.96 6.96 0 0 0-.982 1.12c-.49.659-.753 1.052-.753 1.052s.419-.224 1.122-.645c.34-.228.783-.458 1.271-.696.485-.251 1.015-.53 1.64-.781l.946-.404c.334-.115.68-.238 1.036-.36.689-.289 1.484-.397 2.243-.648.797-.139 1.604-.323 2.444-.387.832-.125 1.685-.119 2.534-.163.85.044 1.703.037 2.534.166.839.068 1.647.248 2.444.387.76.251 1.552.363 2.242.652.71.238 1.381.482 1.983.764.621.248 1.161.533 1.652.788.496.244.928.469 1.262.689.693.414 1.12.638 1.12.638s-.256-.387-.755-1.052a7.294 7.294 0 0 0-.99-1.126z"/><path d="M52.733 46.934a2.347 2.347 0 0 0-2.429-.55l-4.567-4.566c8.12-10.086 7.505-24.925-1.854-34.285C39.025 2.675 32.568 0 25.701 0 18.832 0 12.375 2.675 7.519 7.533-2.506 17.558-2.506 33.87 7.52 43.895c4.855 4.855 11.312 7.53 18.18 7.53a25.505 25.505 0 0 0 16.104-5.676l4.567 4.569a2.338 2.338 0 0 0 .55 2.427l15.847 15.844 5.811-5.809-15.846-15.846zM9.486 41.93C.544 32.988.544 18.441 9.485 9.499A22.778 22.778 0 0 1 25.7 2.784c6.125 0 11.884 2.383 16.215 6.715 8.94 8.942 8.94 23.489-.001 32.431a22.791 22.791 0 0 1-16.215 6.715c-6.124 0-11.882-2.387-16.213-6.715zM63.89 69.718l5.812-5.807 2.225 2.226-5.811 5.808zm10.079-1.546l-.918-.917-5.81 5.809.919.917c.916.917 2.403.92 3.319 0l2.489-2.488a2.35 2.35 0 0 0 .001-3.321z"/></g></svg>