<svg xmlns="http://www.w3.org/2000/svg" width="50.845" height="50.845" viewBox="0 0 50.845 50.845"><path fill="#3B3F48" d="M43.051 16.014a14.342 14.342 0 0 1-4.155 1.138 7.235 7.235 0 0 0 3.178-4.001 14.457 14.457 0 0 1-4.589 1.757 7.23 7.23 0 0 0-5.284-2.286 7.234 7.234 0 0 0-7.232 7.234c0 .567.065 1.12.187 1.649-6.01-.302-11.34-3.182-14.908-7.558a7.195 7.195 0 0 0-.98 3.636 7.231 7.231 0 0 0 3.218 6.021 7.19 7.19 0 0 1-3.275-.904l-.001.09a7.237 7.237 0 0 0 5.803 7.092 7.21 7.21 0 0 1-3.268.126 7.242 7.242 0 0 0 6.758 5.022 14.511 14.511 0 0 1-8.983 3.097c-.584 0-1.161-.034-1.725-.102a20.458 20.458 0 0 0 11.087 3.252c13.305 0 20.579-11.022 20.579-20.583 0-.313-.006-.626-.019-.936a14.651 14.651 0 0 0 3.609-3.744zm0 0"/><circle fill="none" stroke="#3B3F48" stroke-width="3" stroke-miterlimit="10" cx="25.422" cy="25.422" r="23.922"/></svg>