<?xml version="1.0" encoding="utf-8"?>
<!-- Generator: Adobe Illustrator 17.0.0, SVG Export Plug-In . SVG Version: 6.00 Build 0)  -->
<!DOCTYPE svg PUBLIC "-//W3C//DTD SVG 1.1//EN" "http://www.w3.org/Graphics/SVG/1.1/DTD/svg11.dtd">
<svg version="1.1" id="Layer_1" xmlns="http://www.w3.org/2000/svg" xmlns:xlink="http://www.w3.org/1999/xlink" x="0px" y="0px"
	 width="1057.317px" height="420.732px" viewBox="0 0 1057.317 420.732" enable-background="new 0 0 1057.317 420.732"
	 xml:space="preserve">
<path fill="#40B19C" d="M195.655,313.705c0,19.777-16.033,35.81-35.81,35.81h-50.731c-19.777,0-35.81-16.033-35.81-35.81v-50.731
	c0-19.777,16.033-35.81,35.81-35.81h50.731c19.777,0,35.81,16.033,35.81,35.81V313.705z"/>
<path fill="#364A5E" d="M328.45,313.705c0,19.777-16.033,35.81-35.81,35.81H241.91c-19.777,0-35.81-16.033-35.81-35.81v-50.731
	c0-19.777,16.033-35.81,35.81-35.81h50.731c19.777,0,35.81,16.033,35.81,35.81V313.705z"/>
<path fill="#E64E3D" d="M459.753,313.705c0,19.777-16.033,35.81-35.81,35.81h-50.731c-19.777,0-35.81-16.033-35.81-35.81v-50.731
	c0-19.777,16.033-35.81,35.81-35.81h50.731c19.777,0,35.81,16.033,35.81,35.81V313.705z"/>
<path fill="#EFC31A" d="M592.548,313.705c0,19.777-16.033,35.81-35.81,35.81h-50.731c-19.777,0-35.81-16.033-35.81-35.81v-50.731
	c0-19.777,16.033-35.81,35.81-35.81h50.731c19.777,0,35.81,16.033,35.81,35.81V313.705z"/>
<path fill="#218285" d="M725.343,313.705c0,19.777-16.033,35.81-35.81,35.81h-50.731c-19.777,0-35.81-16.033-35.81-35.81v-50.731
	c0-19.777,16.033-35.81,35.81-35.81h50.731c19.777,0,35.81,16.033,35.81,35.81V313.705z"/>
<path fill="#FBB040" d="M858.138,313.705c0,19.777-16.033,35.81-35.81,35.81h-50.731c-19.777,0-35.81-16.033-35.81-35.81v-50.731
	c0-19.777,16.033-35.81,35.81-35.81h50.731c19.777,0,35.81,16.033,35.81,35.81V313.705z"/>
<path fill="#2781BA" d="M1001.378,313.705c0,19.777-16.033,35.81-35.81,35.81h-50.731c-19.777,0-35.81-16.033-35.81-35.81v-50.731
	c0-19.777,16.033-35.81,35.81-35.81h50.731c19.777,0,35.81,16.033,35.81,35.81V313.705z"/>
<path opacity="0.6" fill="#6D7686" d="M328.45,161.513c0,19.777-16.033,35.81-35.81,35.81H241.91
	c-19.777,0-35.81-16.033-35.81-35.81v-50.731c0-19.777,16.033-35.81,35.81-35.81h50.731c19.777,0,35.81,16.033,35.81,35.81V161.513z
	"/>
<path fill="#3B3F48" d="M459.753,161.513c0,19.777-16.033,35.81-35.81,35.81h-50.731c-19.777,0-35.81-16.033-35.81-35.81v-50.731
	c0-19.777,16.033-35.81,35.81-35.81h50.731c19.777,0,35.81,16.033,35.81,35.81V161.513z"/>
<path fill="#218285" d="M592.548,161.513c0,19.777-16.033,35.81-35.81,35.81h-50.731c-19.777,0-35.81-16.033-35.81-35.81v-50.731
	c0-19.777,16.033-35.81,35.81-35.81h50.731c19.777,0,35.81,16.033,35.81,35.81V161.513z"/>
<path fill="#FFFFFF" d="M725.343,161.513c0,19.777-16.033,35.81-35.81,35.81h-50.731c-19.777,0-35.81-16.033-35.81-35.81v-50.731
	c0-19.777,16.033-35.81,35.81-35.81h50.731c19.777,0,35.81,16.033,35.81,35.81V161.513z"/>
<path opacity="0.8" fill="#A8B8CD" d="M858.138,161.513c0,19.777-16.033,35.81-35.81,35.81h-50.731
	c-19.777,0-35.81-16.033-35.81-35.81v-50.731c0-19.777,16.033-35.81,35.81-35.81h50.731c19.777,0,35.81,16.033,35.81,35.81V161.513z
	"/>
</svg>
