<?xml version="1.0" encoding="utf-8"?>
<!-- Generator: Adobe Illustrator 17.0.0, SVG Export Plug-In . SVG Version: 6.00 Build 0)  -->
<!DOCTYPE svg PUBLIC "-//W3C//DTD SVG 1.1//EN" "http://www.w3.org/Graphics/SVG/1.1/DTD/svg11.dtd">
<svg version="1.1" id="Layer_1" xmlns="http://www.w3.org/2000/svg" xmlns:xlink="http://www.w3.org/1999/xlink" x="0px" y="0px"
	 width="31.248px" height="51.714px" viewBox="0 0 31.248 51.714" enable-background="new 0 0 31.248 51.714" xml:space="preserve">
<g>
	<g>
		
			<rect x="2.904" y="1.507" transform="matrix(0.9924 0.1232 -0.1232 0.9924 3.3047 -1.7229)" fill="#FFFFFF" width="25.369" height="48.723"/>
		
			<rect x="8.951" y="9.516" transform="matrix(-0.1232 0.9924 -0.9924 -0.1232 38.1374 6.0212)" fill="none" width="14.916" height="20.685"/>
		
			<rect x="7.001" y="25.226" transform="matrix(0.1232 -0.9924 0.9924 0.1232 -22.6191 45.5364)" fill="none" width="14.916" height="20.685"/>
		
			<rect x="6.371" y="1.499" transform="matrix(-0.9924 -0.1232 0.1232 -0.9924 13.6801 5.3207)" fill="#F6F6F6" width="1.266" height="1.477"/>
		
			<rect x="5.872" y="5.526" transform="matrix(-0.9924 -0.1232 0.1232 -0.9924 12.1882 13.2833)" fill="#F6F6F6" width="1.266" height="1.478"/>
		
			<rect x="5.372" y="9.554" transform="matrix(-0.9924 -0.1232 0.1232 -0.9924 10.6964 21.2459)" fill="#F6F6F6" width="1.266" height="1.477"/>
		
			<rect x="4.872" y="13.581" transform="matrix(-0.9924 -0.1232 0.1232 -0.9924 9.2045 29.2078)" fill="#F6F6F6" width="1.266" height="1.477"/>
		
			<rect x="4.372" y="17.608" transform="matrix(-0.9924 -0.1232 0.1232 -0.9924 7.7127 37.1704)" fill="#F6F6F6" width="1.266" height="1.478"/>
		
			<rect x="3.872" y="21.635" transform="matrix(-0.9924 -0.1232 0.1232 -0.9924 6.2208 45.133)" fill="#F6F6F6" width="1.266" height="1.477"/>
		
			<rect x="3.372" y="25.663" transform="matrix(-0.9924 -0.1232 0.1232 -0.9924 4.7289 53.0955)" fill="#F6F6F6" width="1.266" height="1.478"/>
		
			<rect x="2.872" y="29.69" transform="matrix(-0.9924 -0.1232 0.1232 -0.9924 3.2368 61.0588)" fill="#F6F6F6" width="1.266" height="1.478"/>
		
			<rect x="2.373" y="33.718" transform="matrix(-0.9924 -0.1232 0.1232 -0.9924 1.745 69.0214)" fill="#F6F6F6" width="1.266" height="1.477"/>
		
			<rect x="1.873" y="37.745" transform="matrix(-0.9924 -0.1232 0.1232 -0.9924 0.2533 76.9827)" fill="#F6F6F6" width="1.266" height="1.477"/>
		
			<rect x="1.373" y="41.773" transform="matrix(-0.9924 -0.1232 0.1232 -0.9924 -1.2387 84.9459)" fill="#F6F6F6" width="1.266" height="1.477"/>
		
			<rect x="0.873" y="45.8" transform="matrix(-0.9924 -0.1232 0.1232 -0.9924 -2.7305 92.9085)" fill="#F6F6F6" width="1.266" height="1.477"/>
		<path fill="#010101" d="M28.944,2.834l-1.24,9.99L7.176,10.276l1.24-9.99L6.112,0L0.081,48.594l2.304,0.286l0.779-6.277
			l20.528,2.548l-0.779,6.277l2.304,0.286L31.248,3.12L28.944,2.834z M27.591,13.732l-1.837,14.802L5.226,25.986l1.837-14.802
			L27.591,13.732z M2.044,47.35l-1.257-0.156l0.182-1.466l1.257,0.156L2.044,47.35z M2.544,43.322l-1.257-0.156L1.469,41.7
			l1.257,0.156L2.544,43.322z M3.043,39.294l-1.257-0.156l0.182-1.466l1.257,0.156L3.043,39.294z M3.543,35.268l-1.257-0.156
			l0.182-1.466l1.257,0.156L3.543,35.268z M4.043,31.241l-1.257-0.156l0.182-1.467l1.257,0.156L4.043,31.241z M4.543,27.213
			l-1.257-0.156l0.182-1.467l1.257,0.156L4.543,27.213z M5.043,23.185l-1.257-0.156l0.182-1.466l1.257,0.156L5.043,23.185z
			 M5.543,19.158l-1.257-0.156l0.182-1.467l1.257,0.156L5.543,19.158z M6.042,15.13l-1.257-0.156l0.182-1.466l1.257,0.156
			L6.042,15.13z M6.542,11.103l-1.257-0.156l0.182-1.466l1.257,0.156L6.542,11.103z M7.042,7.076L5.785,6.92l0.182-1.467
			l1.257,0.156L7.042,7.076z M7.542,3.049L6.285,2.893l0.182-1.466l1.257,0.156L7.542,3.049z M3.277,41.695l1.837-14.802
			l20.528,2.548l-1.837,14.802L3.277,41.695z M24.875,50.183l-1.257-0.156l0.182-1.466l1.257,0.156L24.875,50.183z M25.375,46.156
			l-1.257-0.156l0.182-1.466l1.257,0.156L25.375,46.156z M25.875,42.128l-1.257-0.156l0.182-1.466l1.257,0.156L25.875,42.128z
			 M26.374,38.101l-1.257-0.156l0.182-1.466l1.257,0.156L26.374,38.101z M26.874,34.074l-1.257-0.156l0.182-1.467l1.257,0.156
			L26.874,34.074z M27.374,30.047l-1.257-0.156l0.182-1.467l1.257,0.156L27.374,30.047z M27.874,26.019l-1.257-0.156l0.182-1.466
			l1.257,0.156L27.874,26.019z M28.374,21.992l-1.257-0.156l0.182-1.467l1.257,0.156L28.374,21.992z M28.874,17.964l-1.257-0.156
			l0.182-1.466l1.257,0.156L28.874,17.964z M29.373,13.937l-1.257-0.156l0.182-1.466l1.257,0.156L29.373,13.937z M29.873,9.91
			l-1.257-0.156l0.182-1.467l1.257,0.156L29.873,9.91z M30.373,5.882l-1.257-0.156l0.182-1.466l1.257,0.156L30.373,5.882z"/>
		
			<rect x="29.202" y="4.332" transform="matrix(-0.9924 -0.1232 0.1232 -0.9924 58.8191 13.7781)" fill="#F6F6F6" width="1.267" height="1.477"/>
		
			<rect x="28.702" y="8.359" transform="matrix(-0.9924 -0.1232 0.1232 -0.9924 57.3273 21.7407)" fill="#F6F6F6" width="1.267" height="1.478"/>
		
			<rect x="28.202" y="12.387" transform="matrix(-0.9924 -0.1232 0.1232 -0.9924 55.8353 29.7032)" fill="#F6F6F6" width="1.267" height="1.477"/>
		
			<rect x="27.702" y="16.414" transform="matrix(-0.9924 -0.1232 0.1232 -0.9924 54.3436 37.6651)" fill="#F6F6F6" width="1.267" height="1.477"/>
		
			<rect x="27.203" y="20.441" transform="matrix(-0.9924 -0.1232 0.1232 -0.9924 52.8518 45.6277)" fill="#F6F6F6" width="1.267" height="1.478"/>
		
			<rect x="26.703" y="24.469" transform="matrix(-0.9924 -0.1232 0.1232 -0.9924 51.3598 53.5903)" fill="#F6F6F6" width="1.267" height="1.477"/>
		
			<rect x="26.203" y="28.496" transform="matrix(-0.9924 -0.1232 0.1232 -0.9924 49.8679 61.5529)" fill="#F6F6F6" width="1.267" height="1.478"/>
		
			<rect x="25.703" y="32.524" transform="matrix(-0.9924 -0.1232 0.1232 -0.9924 48.3759 69.5162)" fill="#F6F6F6" width="1.267" height="1.478"/>
		
			<rect x="25.203" y="36.552" transform="matrix(-0.9924 -0.1232 0.1232 -0.9924 46.884 77.4788)" fill="#F6F6F6" width="1.267" height="1.477"/>
		
			<rect x="24.704" y="40.579" transform="matrix(-0.9924 -0.1232 0.1232 -0.9924 45.3924 85.44)" fill="#F6F6F6" width="1.267" height="1.477"/>
		
			<rect x="24.204" y="44.606" transform="matrix(-0.9924 -0.1232 0.1232 -0.9924 43.9004 93.4032)" fill="#F6F6F6" width="1.267" height="1.477"/>
		
			<rect x="23.704" y="48.633" transform="matrix(-0.9924 -0.1232 0.1232 -0.9924 42.4085 101.3658)" fill="#F6F6F6" width="1.267" height="1.477"/>
	</g>
</g>
</svg>
