<?xml version="1.0" encoding="utf-8"?>
<!-- Generator: Adobe Illustrator 17.0.0, SVG Export Plug-In . SVG Version: 6.00 Build 0)  -->
<!DOCTYPE svg PUBLIC "-//W3C//DTD SVG 1.1//EN" "http://www.w3.org/Graphics/SVG/1.1/DTD/svg11.dtd">
<svg version="1.1" id="Layer_1" xmlns="http://www.w3.org/2000/svg" xmlns:xlink="http://www.w3.org/1999/xlink" x="0px" y="0px"
	 width="50.845px" height="50.845px" viewBox="0 0 50.845 50.845" enable-background="new 0 0 50.845 50.845" xml:space="preserve">
<g>
	<path fill="#3B3F48" d="M21.808,24.655h10.32c0.092,0.546,0.171,1.092,0.171,1.813c0,6.241-4.184,10.675-10.491,10.675
		c-6.039,0-10.926-4.886-10.926-10.927c0-6.041,4.887-10.927,10.926-10.927c2.952,0,5.418,1.074,7.322,2.855l-2.966,2.858
		c-0.811-0.781-2.231-1.685-4.356-1.685c-3.73,0-6.772,3.088-6.772,6.898s3.042,6.898,6.772,6.898c4.327,0,5.949-3.105,6.198-4.713
		h-6.198V24.655L21.808,24.655z M45.227,24.655h-3.124v-3.121h-3.122v3.121h-3.122v3.121h3.122v3.121h3.122v-3.121h3.124V24.655z"/>
</g>
<circle fill="none" stroke="#3B3F48" stroke-width="3" stroke-miterlimit="10" cx="25.422" cy="25.422" r="23.922"/>
</svg>
