<?xml version="1.0" encoding="utf-8"?>
<!-- Generator: Adobe Illustrator 17.0.0, SVG Export Plug-In . SVG Version: 6.00 Build 0)  -->
<!DOCTYPE svg PUBLIC "-//W3C//DTD SVG 1.1//EN" "http://www.w3.org/Graphics/SVG/1.1/DTD/svg11.dtd">
<svg version="1.1" id="Layer_1" xmlns="http://www.w3.org/2000/svg" xmlns:xlink="http://www.w3.org/1999/xlink" x="0px" y="0px"
	 width="34.344px" height="21.854px" viewBox="0 0 34.344 21.854" enable-background="new 0 0 34.344 21.854" xml:space="preserve">
<g>
	<path fill="#FFFFFF" d="M10.926,9.365h10.32c0.092,0.546,0.171,1.092,0.171,1.813c0,6.241-4.184,10.675-10.491,10.675
		C4.887,21.854,0,16.968,0,10.927C0,4.886,4.887,0,10.926,0c2.952,0,5.418,1.074,7.322,2.855l-2.966,2.858
		c-0.811-0.781-2.231-1.685-4.356-1.685c-3.73,0-6.772,3.088-6.772,6.898s3.042,6.898,6.772,6.898c4.327,0,5.949-3.105,6.198-4.713
		h-6.198V9.365L10.926,9.365z M34.344,9.365h-3.124V6.244h-3.122v3.121h-3.122v3.121h3.122v3.121h3.122v-3.121h3.124V9.365z"/>
</g>
</svg>
