<?xml version="1.0" encoding="utf-8"?>
<!-- Generator: Adobe Illustrator 17.0.0, SVG Export Plug-In . SVG Version: 6.00 Build 0)  -->
<!DOCTYPE svg PUBLIC "-//W3C//DTD SVG 1.1//EN" "http://www.w3.org/Graphics/SVG/1.1/DTD/svg11.dtd">
<svg version="1.1" id="Layer_1" xmlns="http://www.w3.org/2000/svg" xmlns:xlink="http://www.w3.org/1999/xlink" x="0px" y="0px"
	 width="50.845px" height="50.845px" viewBox="0 0 50.845 50.845" enable-background="new 0 0 50.845 50.845" xml:space="preserve">
<g>
	<path fill="#3B3F48" d="M33.047,39.617H17.796c-3.477,0-6.31-2.83-6.31-6.311V18.058c0-3.48,2.832-6.311,6.31-6.311h15.251
		c3.478,0,6.311,2.832,6.311,6.311v15.248C39.358,36.787,36.525,39.617,33.047,39.617z M17.796,14.523
		c-1.95,0-3.536,1.586-3.536,3.535v15.248c0,1.953,1.586,3.538,3.536,3.538h15.251c1.949,0,3.534-1.586,3.534-3.538V18.058
		c0-1.949-1.585-3.535-3.534-3.535H17.796z M25.423,32.967c-3.972,0-7.204-3.232-7.204-7.203c0-3.973,3.232-7.204,7.204-7.204
		c3.971,0,7.203,3.231,7.203,7.204C32.626,29.736,29.394,32.967,25.423,32.967z M25.423,21.335c-2.445,0-4.43,1.988-4.43,4.43
		c0,2.444,1.985,4.429,4.43,4.429c2.444,0,4.429-1.985,4.429-4.429C29.852,23.324,27.866,21.335,25.423,21.335z M32.9,16.789
		c-1.011,0-1.827,0.817-1.827,1.83c0,1.006,0.816,1.827,1.827,1.827c1.01,0,1.83-0.821,1.83-1.827
		C34.731,17.606,33.91,16.789,32.9,16.789z"/>
</g>
<circle fill="none" stroke="#3B3F48" stroke-width="3" stroke-miterlimit="10" cx="25.422" cy="25.422" r="23.922"/>
</svg>
