<?xml version="1.0" encoding="utf-8"?>
<!-- Generator: Adobe Illustrator 17.0.0, SVG Export Plug-In . SVG Version: 6.00 Build 0)  -->
<!DOCTYPE svg PUBLIC "-//W3C//DTD SVG 1.1//EN" "http://www.w3.org/Graphics/SVG/1.1/DTD/svg11.dtd">
<svg version="1.1" id="Layer_1" xmlns="http://www.w3.org/2000/svg" xmlns:xlink="http://www.w3.org/1999/xlink" x="0px" y="0px"
	 width="27.872px" height="27.87px" viewBox="0 0 27.872 27.87" enable-background="new 0 0 27.872 27.87" xml:space="preserve">
<g>
	<path fill="#FFFFFF" d="M21.561,27.87H6.31C2.832,27.87,0,25.04,0,21.559V6.311C0,2.832,2.832,0,6.31,0h15.251
		c3.478,0,6.311,2.832,6.311,6.311v15.248C27.872,25.04,25.039,27.87,21.561,27.87z M6.31,2.776c-1.95,0-3.536,1.586-3.536,3.535
		v15.248c0,1.953,1.586,3.538,3.536,3.538h15.251c1.949,0,3.534-1.586,3.534-3.538V6.311c0-1.949-1.585-3.535-3.534-3.535H6.31z
		 M13.937,21.221c-3.972,0-7.204-3.232-7.204-7.203c0-3.973,3.232-7.204,7.204-7.204c3.971,0,7.203,3.231,7.203,7.204
		C21.139,17.99,17.908,21.221,13.937,21.221z M13.937,9.589c-2.445,0-4.43,1.988-4.43,4.43c0,2.444,1.985,4.429,4.43,4.429
		c2.444,0,4.429-1.985,4.429-4.429C18.365,11.577,16.38,9.589,13.937,9.589z M21.414,5.043c-1.011,0-1.827,0.817-1.827,1.83
		c0,1.006,0.816,1.827,1.827,1.827c1.01,0,1.83-0.821,1.83-1.827C23.244,5.86,22.424,5.043,21.414,5.043z"/>
</g>
</svg>
