<?xml version="1.0" encoding="utf-8"?>
<!-- Generator: Adobe Illustrator 19.0.0, SVG Export Plug-In . SVG Version: 6.00 Build 0)  -->
<svg version="1.1" id="Layer_1" xmlns="http://www.w3.org/2000/svg" xmlns:xlink="http://www.w3.org/1999/xlink" x="0px" y="0px"
	 viewBox="0 0 212.6 96.7" style="enable-background:new 0 0 212.6 96.7;" xml:space="preserve">
<style type="text/css">
	.st0{fill:#E5E5E5;}
	.st1{fill:#FFFFFF;}
	.st2{fill:#0D1420;}
	.st3{fill:#E49F2E;}
	.st4{fill:#020202;}
	.st5{fill:#EAE0D6;}
	.st6{fill:#999F7B;}
	.st7{fill:#F9BD83;}
	.st8{fill:#EAEAEA;}
	.st9{fill:#0D9447;}
	.st10{fill:#0D6C37;}
	.st11{fill:#836026;}
	.st12{fill:#322612;}
	.st13{fill:#070707;}
	.st14{fill:#F9BF91;}
</style>
<g id="XMLID_3421_">
	<g id="XMLID_3422_">
		<g id="XMLID_3458_">
			<g id="XMLID_3462_">
				<path class="st0" d="M173.2,79.7H129c-6.6,0-12-5.4-12-12V56.8c0-6.6,5.4-12,12-12h44.2c6.6,0,12,5.4,12,12v10.9
					C185.2,74.3,179.8,79.7,173.2,79.7z"/>
			</g>
			<g id="XMLID_3461_">
				<path id="XMLID_91_" class="st1" d="M86,27.5v12.4h-5.7V27.7V27c0-0.9,0.1-1.8,0.2-2.5c0.1-0.7,0.4-1.4,0.7-2
					c0.3-0.6,0.7-1.2,1.2-1.7c0.8-0.8,1.7-1.5,2.8-2c1.1-0.5,2.2-0.7,3.3-0.7c1.7,0,3.3,0.5,4.8,1.5c1.5-1,3.1-1.5,4.8-1.5
					c0.8,0,1.6,0.1,2.4,0.3c0.8,0.2,1.5,0.6,2.2,1.1c0.7,0.5,1.3,1,1.8,1.6c0.4,0.6,0.8,1.1,1,1.6c0.3,0.5,0.5,1.2,0.6,1.8
					c0.1,0.7,0.2,1.4,0.2,2.2v0.9v12.2h-5.7V27.5v-0.7c0-1-0.1-1.7-0.4-2c-0.2-0.3-0.4-0.6-0.8-0.8c-0.4-0.2-0.7-0.3-1.1-0.3
					c-0.4,0-0.8,0.1-1.1,0.3c-0.3,0.2-0.6,0.5-0.8,0.8c-0.2,0.4-0.4,1.1-0.4,2.2v0.5v12.4h-5.7V27.5V27c0-1.1-0.1-1.8-0.4-2.2
					c-0.2-0.4-0.5-0.6-0.8-0.8c-0.3-0.2-0.7-0.3-1.1-0.3c-0.5,0-1,0.1-1.3,0.4c-0.4,0.3-0.6,0.6-0.8,1.1C86,25.6,86,26,86,26.6v0.3
					c0,0.1,0,0.1,0,0.3V27.5z"/>
				<path id="XMLID_93_" class="st1" d="M126.1,27.9v11.9h-5.7V34h-5.1v5.8h-5.7V27.9v-0.8c0-0.9,0.1-1.8,0.2-2.4
					c0.1-0.7,0.3-1.3,0.6-2c0.3-0.6,0.6-1.2,1.1-1.7c0.8-0.9,1.7-1.7,2.8-2.2c1.1-0.5,2.3-0.8,3.6-0.8c1.2,0,2.4,0.2,3.5,0.7
					c1.1,0.5,2,1.2,2.8,2.1c0.7,0.8,1.2,1.7,1.5,2.7c0.3,0.9,0.5,2.1,0.5,3.6V27.9z M115.3,29.2h5.1v-2.1c0-0.9-0.1-1.6-0.3-2
					c-0.2-0.4-0.5-0.7-0.9-1c-0.4-0.2-0.9-0.4-1.3-0.4c-0.5,0-1,0.1-1.4,0.4c-0.4,0.3-0.7,0.7-0.9,1.1c-0.2,0.4-0.3,1-0.3,1.9V29.2z
					"/>
				<path id="XMLID_96_" class="st1" d="M136.7,35h7.6v4.9h-16l7.2-16.4h-6.9v-4.9h15.2L136.7,35z"/>
				<path id="XMLID_98_" class="st1" d="M152.2,39.9h-5.7V18.5h5.7V39.9z"/>
				<path id="XMLID_100_" class="st1" d="M161.3,39.9h-5.7V18.5h5.7v7.6h0.9h0.4c0.8,0,1.4-0.1,1.8-0.4c0.4-0.3,0.7-0.7,0.9-1.3
					c0.2-0.6,0.3-1.5,0.3-2.6v-0.7v-2.6h5.7v3.8v0.7c0,1.3-0.2,2.3-0.5,3c-0.3,0.7-0.9,1.4-1.7,2.1c0.6,0.6,1.1,1.1,1.5,1.7
					c0.4,0.6,0.6,1.3,0.8,2c0.1,0.7,0.2,1.7,0.2,2.8v0.6v4.5h-5.7v-5.1v-0.5c0-1.3-0.4-2.2-1.2-2.7c-0.3-0.2-0.5-0.3-0.8-0.4
					c-0.3-0.1-0.8-0.1-1.4-0.1H162h-0.8V39.9z"/>
				<path id="XMLID_102_" class="st1" d="M191.1,27.9v11.9h-5.7V34h-5.1v5.8h-5.7V27.9v-0.8c0-0.9,0.1-1.8,0.2-2.4
					c0.1-0.7,0.3-1.3,0.6-2c0.3-0.6,0.6-1.2,1.1-1.7c0.8-0.9,1.7-1.7,2.8-2.2c1.1-0.5,2.3-0.8,3.6-0.8c1.2,0,2.4,0.2,3.5,0.7
					c1.1,0.5,2,1.2,2.8,2.1c0.7,0.8,1.2,1.7,1.5,2.7c0.3,0.9,0.5,2.1,0.5,3.6V27.9z M180.3,29.2h5.1v-2.1c0-0.9-0.1-1.6-0.3-2
					c-0.2-0.4-0.5-0.7-0.9-1c-0.4-0.2-0.9-0.4-1.3-0.4c-0.5,0-1,0.1-1.4,0.4s-0.7,0.7-0.9,1.1c-0.2,0.4-0.3,1-0.3,1.9V29.2z"/>
			</g>
			<g id="XMLID_3460_">
				<path id="XMLID_89_" class="st1" d="M105.6,71.1h6.9v8.6H88.6l12.5-17.9c0.1-0.1,0.2-0.2,0.3-0.4c0.1-0.1,0.1-0.1,0.2-0.2
					c0.1-0.1,0.1-0.1,0.1-0.2l0.8-1.2c0.7-1.1,1.1-2.1,1.1-3c0-0.7-0.2-1.4-0.5-2c-0.4-0.6-0.9-1.1-1.4-1.4c-0.6-0.3-1.3-0.5-2-0.5
					c-1.2,0-2.1,0.4-2.9,1.2c-0.8,0.8-1.2,1.8-1.2,2.9c0,0.8,0.2,1.6,0.6,2.2c0.4,0.6,1.1,1.2,2,1.6l-5.2,7.4
					c-4.3-2.9-6.4-6.7-6.4-11.2c0-1.7,0.4-3.4,1.1-5.1c0.7-1.6,1.6-3.1,2.8-4.3c1.2-1.2,2.6-2.1,4.2-2.8c1.5-0.7,3.2-1,5-1
					c2.3,0,4.5,0.6,6.5,1.8c2,1.2,3.6,2.8,4.8,4.8c1.2,2,1.8,4.1,1.8,6.4c0,1.5-0.3,3-0.8,4.5c-0.5,1.4-1.5,3.1-3,5.3L105.6,71.1z"
					/>
			</g>
			<g id="XMLID_3459_">
				<path id="XMLID_83_" class="st2" d="M131,69.9h-5.7V48.5h5.3h0.7c2.1,0,3.8,0.2,5,0.6c1.3,0.4,2.5,1.1,3.6,2
					c0.8,0.7,1.4,1.4,2,2.3c0.5,0.8,0.9,1.7,1.3,2.7c0.3,1,0.4,2,0.4,3c0,1-0.1,1.9-0.4,2.9c-0.3,0.9-0.6,1.8-1.1,2.6
					c-0.5,0.8-1.1,1.5-1.7,2.2c-0.7,0.7-1.4,1.2-2.3,1.7c-0.9,0.5-1.8,0.8-2.6,1c-0.9,0.2-1.9,0.3-3.1,0.3H132v-5.7h0.6
					c1.1,0,2-0.2,2.8-0.6c0.8-0.4,1.4-1,1.9-1.7c0.4-0.7,0.7-1.6,0.7-2.6c0-1.1-0.2-2-0.7-2.8c-0.5-0.8-1.2-1.4-2.1-1.8
					c-0.9-0.4-1.9-0.6-3.2-0.6h-1V69.9z"/>
				<path id="XMLID_85_" class="st2" d="M161.2,62.9v7H156v-6.3v-0.7c0-1-0.1-1.7-0.4-2.2c-0.2-0.4-0.6-0.8-1-1
					c-0.4-0.2-0.9-0.4-1.4-0.4c-0.8,0-1.4,0.3-2,0.8c-0.6,0.6-0.8,1.3-0.8,2c0,0.8,0.3,1.5,0.8,2c0.6,0.5,1.2,0.8,2.1,0.8
					c0.5,0,1.1-0.1,1.7-0.4V70c-0.6,0.1-1.2,0.2-1.7,0.2c-1.5,0-2.8-0.4-4.1-1.1c-1.3-0.7-2.3-1.7-3-2.9c-0.7-1.2-1.1-2.6-1.1-4
					c0-1.5,0.4-2.8,1.1-4.1c0.7-1.2,1.7-2.2,2.9-2.9c1.2-0.7,2.5-1.1,4-1.1c1.5,0,2.8,0.3,4,1c1.2,0.7,2.2,1.7,2.9,2.9
					c0.7,1.2,1.1,2.6,1.1,4V62.9z"/>
				<path id="XMLID_87_" class="st2" d="M164.2,62.9v-8.5h5.2v6.9v0.5c0,0.8,0.2,1.4,0.5,1.7c0.3,0.4,0.8,0.6,1.4,0.6
					c0.6,0,1.1-0.2,1.4-0.6s0.4-1,0.4-1.9v-0.5v-6.9h5.2v12v1.1c0,1.3-0.1,2.4-0.4,3.3c-0.3,0.9-0.8,1.7-1.5,2.5
					c-0.5,0.6-1.1,1.2-1.8,1.5c-0.7,0.4-1.4,0.7-2.3,0.9c-0.8,0.2-1.7,0.3-2.8,0.3c-1.1,0-2.3-0.1-3.4-0.4V71c1,0.4,1.9,0.6,2.8,0.6
					c1.1,0,2-0.3,2.7-0.8c0.7-0.5,1.1-1.3,1.4-2.4c-0.8,0.4-1.4,0.6-2,0.8c-0.5,0.1-1,0.2-1.6,0.2c-1.7,0-3-0.5-3.9-1.6
					c-0.9-1-1.4-2.5-1.4-4.4V62.9z"/>
			</g>
		</g>
		<g id="XMLID_3424_">
			<g id="XMLID_3431_">
				<g id="XMLID_3455_">
					<g id="XMLID_3457_">
						<path class="st3" d="M45.8,79.2c0,0.9-1.7,0.6-3.4,0.6c-1.7,0-3.4,0.3-3.4-0.6c0-1.8,1.5-3.3,3.4-3.3S45.8,77.4,45.8,79.2z"/>
					</g>
					<g id="XMLID_3456_">
						<rect x="38.9" y="79.2" class="st4" width="6.9" height="1"/>
					</g>
				</g>
				<g id="XMLID_3454_">
					<polygon class="st5" points="42.6,76.2 40.3,73.2 40.3,69.8 31.4,69.8 31.4,72.4 32.8,75 37.8,78.5 39.5,78.5 					"/>
				</g>
				<g id="XMLID_3453_">
					<path class="st6" d="M38.3,71.4c0,0-0.7,1-1.1,2.6l2.8,4.2l0.5-0.5L38.1,74L38.3,71.4z"/>
				</g>
				<g id="XMLID_3452_">
					<path class="st7" d="M34.5,49.2c-0.1,0.6-0.3,1.3-0.4,1.9c-0.1,0.6-0.3,1.3-0.2,1.9c0.2,1.1,1.1,1.8,2,2.5
						c0.5,0.4,1.1,0.8,1.7,0.7c0.7,0,1.2-0.6,1.8-0.8c0.3-0.1,0.7-0.2,1-0.4s0.5-0.6,0.3-0.9c-0.1-0.2-0.4-0.3-0.5-0.4
						c-0.2-0.2-0.3-0.4-0.3-0.7c-0.3-1.2-0.6-2.5-0.8-3.7c0-0.1,0-0.1-0.1-0.2C39,49,38.9,49,38.9,49c-0.7-0.2-1.4-0.5-2.2-0.5
						c-0.9,0-1.8,0.3-2.5,0.9"/>
				</g>
				<g id="XMLID_3451_">
					<path id="XMLID_71_" class="st1" d="M38.4,54.9c0.9-0.1,1.7-0.6,2.6-0.7c0.8-0.1,1.1,0.7,1.4,1.4c0.2,0.6,0.5,1.2,0.4,1.9
						c0,0.2-0.1,0.5-0.1,0.7c-0.1,0.3-0.1,0.6-0.1,1c0,1.5-0.1,3-0.1,4.5c0,0.3,0,0.5-0.1,0.8c-0.1,0.3-0.3,0.5-0.4,0.8
						c-0.1,0.4,0.1,0.9,0.2,1.3c0.3,0.7,0.4,1.5,0.4,2.3c0,0.1,0,0.3-0.1,0.4c-0.1,0.1-0.2,0.1-0.3,0.2c-1.2,0.5-2.5,0.7-3.8,0.4
						c-0.3-0.1-0.6-0.2-0.9-0.3c0,0.2-0.3,0.4-0.5,0.4c-0.2,0-0.5,0-0.7-0.1c-0.4-0.1-0.7-0.3-0.9-0.6c-0.1-0.2-0.2-0.5-0.3-0.8
						c-0.4-1.5-0.8-3.1-0.6-4.7c0.1-0.7,0.3-1.4,0.5-2.1c0.5-2.1,0.9-4.2,1.1-6.4C36.7,55,37.6,54.9,38.4,54.9z"/>
					<path id="XMLID_79_" class="st8" d="M36.8,70.8c-0.3,0-0.6-0.1-0.8-0.1c-0.6-0.1-1.2-0.5-1.5-1c-0.2-0.4-0.3-0.7-0.4-1
						c-0.4-1.5-0.9-3.3-0.7-5.1c0.1-0.7,0.3-1.3,0.4-2l0.1-0.3c0.5-2,0.9-4.1,1-6.2l0.1-0.8l3.3-0.4c0.4,0,0.7-0.2,1.1-0.3
						c0.5-0.2,0.9-0.3,1.4-0.4c1.5-0.2,2.1,1.3,2.4,1.9c0.3,0.7,0.6,1.5,0.5,2.4c0,0.2-0.1,0.4-0.1,0.6l0,0.2c0,0.2,0,0.5-0.1,0.8
						l-0.1,4.5c0,0.3,0,0.7-0.2,1.1c-0.1,0.2-0.2,0.3-0.3,0.5c0,0.1-0.1,0.2-0.1,0.2c0,0.1,0.1,0.4,0.1,0.6l0,0.1
						c0.3,0.8,0.4,1.7,0.4,2.6c0,0.2,0,0.6-0.3,1c-0.2,0.3-0.6,0.5-0.7,0.5c-1.5,0.6-3,0.8-4.4,0.5c-0.1,0-0.3-0.1-0.4-0.1
						c-0.2,0.1-0.4,0.2-0.7,0.3C37,70.8,36.9,70.8,36.8,70.8z M36.5,67.9l1.3,0.5c0.2,0.1,0.5,0.2,0.8,0.2c1.1,0.2,2.2,0,3-0.3
						c0-0.6-0.1-1.2-0.3-1.7l0-0.1c-0.2-0.5-0.4-1.1-0.2-1.8c0.1-0.3,0.2-0.5,0.3-0.7c0-0.1,0.1-0.1,0.1-0.2c0-0.1,0-0.3,0-0.4
						l0.1-4.5c0-0.3,0-0.7,0.1-1.1c0-0.1,0-0.2,0.1-0.3c0-0.1,0.1-0.2,0.1-0.3c0-0.4-0.2-0.9-0.4-1.4c-0.1-0.2-0.3-0.6-0.4-0.8
						c-0.3,0.1-0.6,0.2-1,0.3c-0.5,0.2-1,0.4-1.6,0.4L36.9,56c-0.2,1.9-0.5,3.9-1,5.7l-0.1,0.3c-0.2,0.6-0.3,1.1-0.4,1.7
						c-0.2,1.4,0.2,2.9,0.6,4.3c0.1,0.2,0.1,0.4,0.2,0.5c0,0.1,0.1,0.1,0.2,0.2l0.1,0L36.5,67.9z"/>
				</g>
				<g id="XMLID_3450_">
					<path class="st9" d="M37.3,69.7c-2.2,0.4-4.4,0.5-6.6,0.4c-0.2,0-0.5,0-0.7-0.2c-0.3-0.4,0.1-0.9,0.3-1.4
						c0.2-0.6,0.1-1.3-0.3-1.8s-0.8-1-1.2-1.5c-1.7-2-2.2-5-1.3-7.5c0.4-1.1,1.2-2.1,1.4-3.3c0.3-1.5-0.1-3.3,1-4.2
						c0.3-0.3,0.7-0.4,1.1-0.6c0.8-0.3,1.6-0.6,2.3-0.4s1.6,0.8,1.5,1.6c0,0.6-0.5,1.1-0.8,1.6C34.1,52.5,34,52.8,34,53
						c0,0.1,0.1,0.3,0.2,0.4c0.6,0.7,1.7,0.8,2.2,1.5c0.4,0.5,0.4,1.2,0.3,1.8c0,1.2-0.1,2.5-0.5,3.7c-0.2,0.6-0.6,1.2-0.8,1.8
						c-0.5,1.9,0.9,3.8,1.6,5.7c0.2,0.5,0.3,1,0.3,1.5c-0.1,0.5-0.5,1-1,1"/>
				</g>
				<g id="XMLID_3449_">
					<path class="st10" d="M32.2,57.8c0.3,1.5-0.4,3.1-1.6,3.9c-0.1,0-0.1,0.1-0.2,0.2c0,0.1,0.1,0.2,0.2,0.3
						c0.1,0.1,0.3,0.3,0.5,0.3c0.5,0,0.9-0.9,1.4-0.6c0.3,0.2,0.2,0.6,0,0.8c-0.2,0.3-0.4,0.5-0.5,0.8c0,0.3,0.3,0.7,0.6,0.4
						c0-0.2,0-0.3,0.1-0.5s0.3-0.2,0.4-0.1c0.3,0.6,0.6,1.2,0.7,1.8c0.1,0.5,0.1,1-0.3,1.3c-0.2,0.2-0.5,0.2-0.8,0.2
						c-0.7,0-2,0.1-2.8,0.1c0.4,0,0.1,0.5,0.5,0.6c0.2,0.1,1.6,0,1.8-0.1c0.4-0.1,0.8-0.3,1.1-0.4c0.2-0.1,0.4-0.2,0.5-0.3
						c0.5-0.4,0.4-1.2,0.2-1.9c-0.1-0.6-0.3-1.2-0.4-1.7c0-0.2-0.1-0.4-0.2-0.5c-0.1-0.1-0.2-0.2-0.3-0.3C33,61.9,33,61.6,33,61.2
						c0-0.7,0.1-1.3,0-2c-0.1-0.7-0.4-1.3-1-1.7"/>
				</g>
				<g id="XMLID_3448_">
					<path class="st10" d="M34.1,52.5c-1.1,0-2.2,0.4-3,1.1c-0.7,0.6-3,1.8-2.4,2.2c0.2-0.1,0.9-0.4,1-0.5c0.3-0.2,0.6-0.4,0.9-0.7
						c0.2-0.1,0.4-0.3,0.6-0.4c0.3-0.1,0.6-0.2,0.9-0.2c0.8-0.2,1.7-0.3,2.5-0.5c-0.2,0.1-0.4-0.1-0.5-0.3c-0.1-0.2-0.1-0.5-0.3-0.7
						"/>
				</g>
				<g id="XMLID_3447_">
					<path class="st9" d="M40.5,52.4c-0.1,0.4-0.1,0.9,0.2,1.2c0.1,0.1,0.3,0.2,0.5,0.3c0.6,0.3,0.9,1,1,1.6c0.1,0.6,0.1,1.3,0,1.9
						c-0.1,1.8-0.3,3.5-0.4,5.3c0,0.4-0.1,0.7-0.1,1.1c-0.1,0.4-0.3,0.8-0.4,1.2c-0.2,1.3,0.6,2.7,0,3.9c-0.1,0.3-0.3,0.5-0.3,0.8
						c0,0.5,0.4,0.9,0.8,1s0.9,0,1.4-0.1c0.6-0.2,1.2-0.5,1.4-1c0.4-1.1-1-2.2-0.7-3.3c0.1-0.4,0.4-0.7,0.6-1c0.6-0.9,0.8-2.2,0-3
						c-0.3-0.3-0.8-0.5-0.9-0.9c-0.3-0.6,0.3-1.3,0.7-1.9c0.4-0.8,0.5-1.7,0.3-2.5c-0.2-0.9-0.6-1.6-1-2.4c-0.4-0.6-0.8-1.2-1.4-1.6
						c-0.6-0.4-1.3-0.7-2-0.5"/>
				</g>
				<g id="XMLID_3446_">
					<path class="st3" d="M39.1,79.4c0,1.3-2.5,0.8-5,0.8c-2.5,0-5,0.5-5-0.8c0-2.7,2.2-4.8,5-4.8S39.1,76.8,39.1,79.4z"/>
				</g>
				<g id="XMLID_3445_">
					<path class="st4" d="M34.1,78.9"/>
				</g>
				<g id="XMLID_3444_">
					<rect x="29.1" y="79.4" class="st4" width="10" height="1.5"/>
				</g>
				<g id="XMLID_3443_">
					<path class="st7" d="M26.2,26.5c0,0,0.2,2-0.5,4.9c0,0-1.4,11.1,5.1,16c0,0,6.6,4.6,14.1,0c0,0,6-4.9,5.2-15.8l0-6.3L48,22.9
						l-0.8-2.8l-0.7-3.8l-5.6-0.7L29.3,17l-1.7,2.3l0.5,4l-0.3,1.1l-0.3,0.9l-0.8,0.1l-0.5,0.2"/>
				</g>
				<g id="XMLID_3442_">
					<path class="st11" d="M26.1,26.1l2.1-1.3l1.2-1.2l-0.4-3.2c0,0,0.9-1.5,3.5-2.2c2.6-0.7,11.4,0,11.4,0s0.9,0.1,2,2.2l0.9,2.6
						l0.9,2l2.4,0.3L48,20.2l0.3-2.8l0.8-1.9c0,0-2-0.1-3.1,0.6c0,0-0.3-1.9,0.9-2.8s-0.3,0-0.3,0s-1.7,0-2.8,1.1c0,0-1.5-0.9-0.1-3
						c0,0-1.3-0.7-2.8,0.7l-1.4-2.1c0,0-2.2,0.5-3.3,2.7c0,0-2-1.7-3.8-2.3c0,0-0.5,1.7-1.3,3.3l-1.3,0.9c0,0-1.7-1.9-3-2
						c0,0,0.7,1.7,0.5,3.8l-1,3l0.6,1.9l0.4,2.5L26.1,26.1z"/>
				</g>
				<g id="XMLID_3441_">
					<path id="XMLID_78_" class="st12" d="M37.5,47.4c-0.5,0-0.8,0-0.8,0c-8.2-0.9-9.1-10.9-9.1-11l1-0.1c0,0.4,0.9,9.2,8.2,10.1
						c0,0,3.6,0.4,6.5-1.9c2.1-1.6,3.3-4.2,3.7-7.7l1,0.1c-0.4,3.8-1.8,6.6-4.1,8.4C41.5,47.1,38.8,47.4,37.5,47.4z"/>
				</g>
				<g id="XMLID_3438_">
					<g id="XMLID_3440_">
						<ellipse class="st1" cx="41.3" cy="27.9" rx="2.3" ry="2.4"/>
					</g>
					<g id="XMLID_3439_">
						<circle class="st13" cx="40.3" cy="28.5" r="1.2"/>
					</g>
				</g>
				<g id="XMLID_3435_">
					<g id="XMLID_3437_">
						<ellipse class="st1" cx="34.7" cy="27.9" rx="2.3" ry="2.4"/>
					</g>
					<g id="XMLID_3436_">
						<circle class="st13" cx="35.7" cy="28.4" r="1.2"/>
					</g>
				</g>
				<g id="XMLID_3434_">
					<path id="XMLID_75_" d="M38.2,32.5l0-8.9l12.5,1.1l-0.2,5.9L38.2,32.5z M39.2,24.8l0,6.6l10.3-1.6l0.1-4.1L39.2,24.8z"/>
				</g>
				<g id="XMLID_3433_">
					<path id="XMLID_72_" d="M38.1,32.6l-12.3-2l-0.1-5.9l12.5-1L38.1,32.6z M26.7,29.8l10.3,1.6l0.1-6.6l-10.5,0.9L26.7,29.8z"/>
				</g>
				<g id="XMLID_3432_">
					<ellipse class="st14" cx="38.4" cy="36.2" rx="3.1" ry="2.4"/>
				</g>
			</g>
			<g id="XMLID_44_">
				<g id="XMLID_46_">
					<path class="st1" d="M52.6,24.2c-1.2,0-2.2,1-2.2,2.2v7.7c0,1.2,1,2.2,2.2,2.2c1.2,0,2.2-1,2.2-2.2v-7.7
						C54.9,25.2,53.9,24.2,52.6,24.2z"/>
				</g>
				<g id="XMLID_45_">
					<path class="st1" d="M23.5,24.2c-1.2,0-2.2,1-2.2,2.2v7.7c0,1.2,1,2.2,2.2,2.2c1.2,0,2.2-1,2.2-2.2v-7.7
						C25.7,25.2,24.7,24.2,23.5,24.2z"/>
				</g>
			</g>
			<g id="XMLID_3426_">
				<g id="XMLID_3427_">
					<path class="st1" d="M20.4,26.3c-2.1,0.4-3.6,2.2-3.6,4.4s1.6,4,3.6,4.4V26.3z"/>
				</g>
			</g>
			<g id="XMLID_3425_">
				<path class="st1" d="M55.6,26.3v8.9c2.1-0.4,3.8-2.2,3.8-4.5S57.8,26.6,55.6,26.3z"/>
			</g>
		</g>
		<g id="XMLID_3423_">
			<rect id="XMLID_69_" x="69.8" y="18" class="st1" width="0.5" height="62.9"/>
			<rect id="XMLID_70_" x="68.8" y="17" class="st1" width="2.5" height="64.9"/>
		</g>
	</g>
</g>
</svg>
