<?xml version="1.0" encoding="utf-8"?>
<!-- Generator: Adobe Illustrator 19.0.0, SVG Export Plug-In . SVG Version: 6.00 Build 0)  -->
<svg version="1.1" id="Layer_1" xmlns="http://www.w3.org/2000/svg" xmlns:xlink="http://www.w3.org/1999/xlink" x="0px" y="0px"
	 viewBox="-149.5 384.4 25.6 25.6" style="enable-background:new -149.5 384.4 25.6 25.6;" xml:space="preserve">
<style type="text/css">
	.st0{fill:#FFFFFF;}
</style>
<g>
	<path class="st0" d="M-123.9,397.9c0-0.2,0-0.4,0-0.5c0,0,0,0,0,0c0-0.1,0-0.3,0-0.4c0-0.6-0.1-1.3-0.2-1.9c0-0.2-0.1-0.5-0.1-0.7
		c-0.4-1.8-1.3-3.5-2.4-5c-1.5-1.9-3.5-3.3-5.7-4.2c-1.4-0.5-2.9-0.7-4.4-0.7c-0.1,0-0.3,0-0.4,0c0,0,0,0,0,0c0,0-0.1,0-0.1,0
		c-1.4,0-2.7,0.3-4,0.8c-2.2,0.9-4.2,2.3-5.6,4.2c-1.2,1.6-2.1,3.5-2.4,5.4c-0.1,0.4-0.1,0.9-0.2,1.3c0,0.1,0,0.3,0,0.4
		c0,0,0,0.1,0,0.1c0,0.2,0,0.4,0,0.5c0,0,0,0,0,0c0,0.1,0,0.3,0,0.4c0,0.6,0.1,1.3,0.2,1.9c0,0.2,0.1,0.5,0.1,0.7
		c0.4,1.8,1.3,3.5,2.4,5c1.5,1.9,3.5,3.3,5.7,4.2c1.4,0.5,2.9,0.7,4.4,0.7c0.1,0,0.3,0,0.4,0c0,0,0,0,0,0c0,0,0.1,0,0.1,0
		c1.4,0,2.7-0.3,4-0.8c2.2-0.9,4.2-2.3,5.6-4.2c1.2-1.6,2.1-3.5,2.4-5.4c0.1-0.4,0.1-0.9,0.2-1.3
		C-123.9,398.3-123.9,398.1-123.9,397.9C-123.9,398-123.9,397.9-123.9,397.9z M-145.2,403.7c0.7-0.1,1.3-0.2,2-0.3
		c0,0.1,0.1,0.1,0.1,0.2c0.4,1,1,2,1.4,3C-143.1,406-144.2,404.9-145.2,403.7z M-147.3,398.1c1,0,1.9,0,2.9,0
		c0.1,1.2,0.4,2.4,0.6,3.6c-0.8,0.2-1.6,0.3-2.4,0.4c-0.3-0.7-0.6-1.4-0.8-2.2c0-0.1,0-0.2-0.1-0.3c0-0.1,0-0.1,0-0.2
		c0-0.1,0-0.2-0.1-0.3C-147.2,398.9-147.3,398.5-147.3,398.1z M-144,392.8c-0.3,1.2-0.4,2.4-0.4,3.6c-0.9,0-1.9,0-2.8,0
		c0.1-1.4,0.5-2.8,1.1-4C-145.5,392.5-144.7,392.7-144,392.8z M-142.1,388.1c-0.4,1-0.9,2-1.4,3c-0.5-0.1-1.1-0.2-1.6-0.3
		C-144.3,389.7-143.3,388.8-142.1,388.1z M-137.6,391.7c-1.2,0-2.5-0.1-3.7-0.2c0.6-1.6,1.5-3.1,2.5-4.4c0.1-0.1,0.2-0.2,0.3-0.3
		c0.3-0.1,0.7-0.1,1-0.1C-137.6,388.3-137.6,390-137.6,391.7z M-137.6,396.4c-1.7,0-3.3,0-5,0c0.1-1.1,0.3-2.2,0.6-3.3
		c1.4,0.2,2.9,0.3,4.3,0.3C-137.6,394.4-137.6,395.4-137.6,396.4z M-137.6,401.1c-1.5,0-3,0.1-4.6,0.3c-0.3-1.1-0.5-2.2-0.4-3.3
		c1.7,0,3.3,0,5,0C-137.6,399.1-137.6,400.1-137.6,401.1z M-137.6,407.9c-0.5,0-1.2,0-1.5-0.5c-1-1.3-1.8-2.8-2.4-4.3
		c1.3-0.2,2.7-0.3,4-0.3C-137.6,404.5-137.6,406.2-137.6,407.9z M-131.2,406.4c0.4-1,0.9-2,1.4-3c0.5,0.1,1.1,0.2,1.6,0.3
		C-129,404.8-130,405.7-131.2,406.4z M-135.8,402.8c1.2,0,2.5,0.1,3.7,0.2c-0.6,1.6-1.5,3.1-2.5,4.5c-0.1,0.1-0.2,0.2-0.3,0.3
		c-0.3,0.1-0.7,0.1-1,0.1C-135.8,406.2-135.8,404.5-135.8,402.8z M-135.8,398.1c1.7,0,3.3,0,5,0c-0.1,1.1-0.3,2.2-0.6,3.3
		c-1.4-0.2-2.9-0.3-4.3-0.3C-135.8,400.1-135.8,399.1-135.8,398.1z M-135.8,393.4c1.5,0,3-0.1,4.6-0.3c0.3,1.1,0.5,2.2,0.4,3.3
		c-1.7,0-3.3,0-5,0C-135.8,395.4-135.8,394.4-135.8,393.4z M-131.8,391.4c-1.3,0.2-2.7,0.3-4,0.3c0-1.7,0-3.4,0-5
		c0.5,0,1.2,0,1.5,0.5C-133.2,388.4-132.4,389.9-131.8,391.4z M-128.1,390.8c-0.7,0.1-1.3,0.2-2,0.3c0-0.1-0.1-0.1-0.1-0.2
		c-0.4-1-1-2-1.4-3C-130.2,388.6-129.1,389.6-128.1,390.8z M-126,396.4c-0.9,0-1.9,0-2.9,0c-0.1-1.2-0.4-2.4-0.6-3.6
		c0.8-0.2,1.6-0.3,2.4-0.4c0.3,0.7,0.6,1.4,0.8,2.2c0,0.1,0,0.2,0.1,0.3c0,0.1,0,0.1,0,0.2c0,0.1,0,0.2,0.1,0.3
		C-126.1,395.6-126,396-126,396.4z M-126,398.1c-0.1,1.4-0.5,2.8-1.1,4c-0.7-0.1-1.5-0.3-2.2-0.4c0.3-1.2,0.4-2.4,0.4-3.6
		C-127.9,398.1-127,398.1-126,398.1z"/>
</g>
</svg>
