<?xml version="1.0" encoding="utf-8"?>
<!-- Generator: Adobe Illustrator 17.0.0, SVG Export Plug-In . SVG Version: 6.00 Build 0)  -->
<!DOCTYPE svg PUBLIC "-//W3C//DTD SVG 1.1//EN" "http://www.w3.org/Graphics/SVG/1.1/DTD/svg11.dtd">
<svg version="1.1" id="Layer_1" xmlns="http://www.w3.org/2000/svg" xmlns:xlink="http://www.w3.org/1999/xlink" x="0px" y="0px"
	 width="74.656px" height="74.669px" viewBox="0 0 74.656 74.669" enable-background="new 0 0 74.656 74.669" xml:space="preserve">
<g>
	<path fill="#FFFFFF" d="M37.191,10.3c-0.407-0.418-0.873-0.896-1.467-1.307c-0.291-0.217-0.593-0.445-0.906-0.682
		c-0.339-0.197-0.689-0.401-1.051-0.608c-0.713-0.448-1.546-0.753-2.397-1.103c-0.881-0.244-1.781-0.598-2.745-0.71
		c-0.951-0.207-1.941-0.217-2.925-0.275c-0.984,0.058-1.973,0.071-2.924,0.278c-0.964,0.115-1.865,0.465-2.746,0.706
		c-0.85,0.353-1.682,0.659-2.396,1.107c-0.362,0.207-0.719,0.401-1.051,0.604c-0.313,0.238-0.615,0.465-0.906,0.686
		c-0.59,0.404-1.067,0.893-1.479,1.31c-0.435,0.401-0.748,0.788-0.982,1.12c-0.49,0.659-0.753,1.052-0.753,1.052
		s0.419-0.224,1.122-0.645c0.34-0.228,0.783-0.458,1.271-0.696c0.485-0.251,1.015-0.53,1.64-0.781
		c0.303-0.129,0.619-0.265,0.946-0.404c0.334-0.115,0.68-0.238,1.036-0.36c0.689-0.289,1.484-0.397,2.243-0.648
		c0.797-0.139,1.604-0.323,2.444-0.387c0.832-0.125,1.685-0.119,2.534-0.163c0.85,0.044,1.703,0.037,2.534,0.166
		c0.839,0.068,1.647,0.248,2.444,0.387c0.76,0.251,1.552,0.363,2.242,0.652c0.71,0.238,1.381,0.482,1.983,0.764
		c0.621,0.248,1.161,0.533,1.652,0.788c0.496,0.244,0.928,0.469,1.262,0.689c0.693,0.414,1.12,0.638,1.12,0.638
		s-0.256-0.387-0.755-1.052C37.938,11.084,37.616,10.694,37.191,10.3z"/>
	<path fill="#FFFFFF" d="M52.733,46.934c-0.657-0.655-1.606-0.835-2.429-0.55l-4.567-4.566c8.12-10.086,7.505-24.925-1.854-34.285
		C39.025,2.675,32.568,0,25.701,0C18.832,0,12.375,2.675,7.519,7.533C-2.506,17.558-2.506,33.87,7.52,43.895
		c4.855,4.855,11.312,7.53,18.18,7.53c5.933,0,11.553-2.003,16.104-5.676l4.567,4.569c-0.285,0.822-0.108,1.769,0.55,2.427
		l15.847,15.844l5.811-5.809L52.733,46.934z M9.486,41.93C0.544,32.988,0.544,18.441,9.485,9.499
		c4.332-4.332,10.09-6.715,16.215-6.715c6.125,0,11.884,2.383,16.215,6.715c8.94,8.942,8.94,23.489-0.001,32.431
		c-4.331,4.328-10.089,6.715-16.215,6.715C19.575,48.645,13.817,46.258,9.486,41.93z"/>
	
		<rect x="63.802" y="66.348" transform="matrix(0.7073 -0.7069 0.7069 0.7073 -28.138 67.8921)" fill="#FFFFFF" width="8.216" height="3.148"/>
	<path fill="#FFFFFF" d="M73.969,68.172l-0.918-0.917l-5.81,5.809l0.919,0.917c0.916,0.917,2.403,0.92,3.319,0l2.489-2.488
		C74.884,70.575,74.885,69.089,73.969,68.172z"/>
</g>
</svg>
