<?xml version="1.0" encoding="utf-8"?>
<!-- Generator: Adobe Illustrator 17.0.0, SVG Export Plug-In . SVG Version: 6.00 Build 0)  -->
<!DOCTYPE svg PUBLIC "-//W3C//DTD SVG 1.1//EN" "http://www.w3.org/Graphics/SVG/1.1/DTD/svg11.dtd">
<svg version="1.1" id="Layer_1" xmlns="http://www.w3.org/2000/svg" xmlns:xlink="http://www.w3.org/1999/xlink" x="0px" y="0px"
	 width="50.845px" height="50.845px" viewBox="0 0 50.845 50.845" enable-background="new 0 0 50.845 50.845" xml:space="preserve">
<g>
	<path fill="#3B3F48" d="M43.051,16.014c-1.296,0.577-2.692,0.965-4.155,1.138c1.494-0.894,2.639-2.311,3.178-4.001
		c-1.394,0.829-2.943,1.432-4.589,1.757c-1.321-1.406-3.2-2.286-5.284-2.286c-3.994,0-7.232,3.24-7.232,7.234
		c0,0.567,0.065,1.12,0.187,1.649c-6.01-0.302-11.34-3.182-14.908-7.558c-0.623,1.068-0.98,2.311-0.98,3.636
		c0,2.51,1.277,4.723,3.218,6.021c-1.185-0.037-2.3-0.362-3.275-0.904C9.21,22.729,9.21,22.76,9.21,22.79
		c0,3.505,2.493,6.427,5.803,7.092c-0.606,0.166-1.246,0.255-1.906,0.255c-0.467,0-0.919-0.047-1.362-0.129
		c0.922,2.873,3.592,4.964,6.758,5.022c-2.476,1.94-5.593,3.097-8.983,3.097c-0.584,0-1.161-0.034-1.725-0.102
		c3.198,2.053,7.002,3.252,11.087,3.252c13.305,0,20.579-11.022,20.579-20.583c0-0.313-0.006-0.626-0.019-0.936
		C40.857,18.74,42.08,17.465,43.051,16.014L43.051,16.014z M43.051,16.014"/>
</g>
<circle fill="none" stroke="#3B3F48" stroke-width="3" stroke-miterlimit="10" cx="25.422" cy="25.422" r="23.922"/>
</svg>
