<?xml version="1.0" encoding="utf-8"?>
<!-- Generator: Adobe Illustrator 19.0.0, SVG Export Plug-In . SVG Version: 6.00 Build 0)  -->
<svg version="1.1" id="Layer_1" xmlns="http://www.w3.org/2000/svg" xmlns:xlink="http://www.w3.org/1999/xlink" x="0px" y="0px"
	 viewBox="-150.4 383.4 27.9 27.8" style="enable-background:new -150.4 383.4 27.9 27.8;" xml:space="preserve">
<style type="text/css">
	.st0{fill:#FFFFFF;}
</style>
<g>
	<g>
		<g>
			<g>
				<polygon class="st0" points="-143.3,392.1 -143.3,392.1 -143.3,392.1 				"/>
				<path class="st0" d="M-150,393.8l1.6-1.3l1.9-1.5v-4.2h-0.6v-1.1h4.3v1.1h-0.6v1.7l6.2-4.9l0,0c0.5-0.4,1.2-0.4,1.7,0l10.3,8.4
					l2.2,1.8c0.5,0.4,0.5,1,0,1.4c-0.5,0.4-1.2,0.4-1.7,0l-0.6-0.5l-11.2-9l-7,5.5l0,0l-5.1,4c-0.2,0.2-0.5,0.3-0.8,0.3
					c-0.3,0-0.6-0.1-0.9-0.3C-150.5,394.8-150.5,394.2-150,393.8z"/>
			</g>
			<g>
				<g>
					<polygon class="st0" points="-148.3,396.1 -136.3,386.5 -125.1,395.6 -125.1,408.8 -133.1,408.8 -133.1,396.8 -140.3,396.8 
						-140.3,408.8 -148.3,408.8 					"/>
				</g>
			</g>
		</g>
		<rect x="-149.3" y="409.2" class="st0" width="25.6" height="2"/>
	</g>
</g>
</svg>
